  0
SECTION
  2
HEADER
  9
$ACADVER
  1
AC1014
  9
$HANDSEED
  5
FFFF
  9
$MEASUREMENT
 70
     1
  0
ENDSEC
  0
SECTION
  2
TABLES
  0
TABLE
  2
VPORT
  5
8
330
0
100
AcDbSymbolTable
 70
     4
  0
VPORT
  5
2E
330
8
100
AcDbSymbolTableRecord
100
AcDbViewportTableRecord
  2
*ACTIVE
 70
     0
 10
0.0
 20
0.0
 11
1.0
 21
1.0
 12
210.0
 22
148.5
 13
0.0
 23
0.0
 14
10.0
 24
10.0
 15
10.0
 25
10.0
 16
0.0
 26
0.0
 36
1.0
 17
0.0
 27
0.0
 37
0.0
 40
341.0
 41
1.24
 42
50.0
 43
0.0
 44
0.0
 50
0.0
 51
0.0
 71
     0
 72
   100
 73
     1
 74
     3
 75
     0
 76
     0
 77
     0
 78
     0
  0
ENDTAB
  0
TABLE
  2
LTYPE
  5
5
330
0
100
AcDbSymbolTable
 70
     1
  0
LTYPE
  5
14
330
5
100
AcDbSymbolTableRecord
100
AcDbLinetypeTableRecord
  2
BYBLOCK
 70
     0
  3

 72
    65
 73
     0
 40
0.0
  0
LTYPE
  5
15
330
5
100
AcDbSymbolTableRecord
100
AcDbLinetypeTableRecord
  2
BYLAYER
 70
     0
  3

 72
    65
 73
     0
 40
0.0
  0
LTYPE
  5
16
330
5
100
AcDbSymbolTableRecord
100
AcDbLinetypeTableRecord
  2
CONTINUOUS
 70
     0
  3
Solid line
 72
    65
 73
     0
 40
0.0
  0
ENDTAB
  0
TABLE
  2
LAYER
  5
2
100
AcDbSymbolTable
 70
1
  0
LAYER
  5
50
100
AcDbSymbolTableRecord
100
AcDbLayerTableRecord
  2
0
 70
0
  6
CONTINUOUS
  0
ENDTAB
  0
TABLE
  2
STYLE
  5
3
330
0
100
AcDbSymbolTable
 70
     1
  0
STYLE
  5
11
330
3
100
AcDbSymbolTableRecord
100
AcDbTextStyleTableRecord
  2
STANDARD
 70
     0
 40
0.0
 41
1.0
 50
0.0
 71
     0
 42
2.5
  3
txt
  4

  0
ENDTAB
  0
TABLE
  2
VIEW
  5
6
330
0
100
AcDbSymbolTable
 70
     0
  0
ENDTAB
  0
TABLE
  2
UCS
  5
7
330
0
100
AcDbSymbolTable
 70
     0
  0
ENDTAB
  0
TABLE
  2
APPID
  5
9
330
0
100
AcDbSymbolTable
 70
     2
  0
APPID
  5
12
330
9
100
AcDbSymbolTableRecord
100
AcDbRegAppTableRecord
  2
ACAD
 70
     0
  0
ENDTAB
  0
TABLE
  2
DIMSTYLE
  5
A
330
0
100
AcDbSymbolTable
 70
     1
  0
DIMSTYLE
105
27
330
A
100
AcDbSymbolTableRecord
100
AcDbDimStyleTableRecord
  2
ISO-25
 70
     0
  3

  4

  5

  6

  7

 40
1.0
 41
2.5
 42
0.625
 43
3.75
 44
1.25
 45
0.0
 46
0.0
 47
0.0
 48
0.0
140
2.5
141
2.5
142
0.0
143
0.03937007874016
144
1.0
145
0.0
146
1.0
147
0.625
 71
     0
 72
     0
 73
     0
 74
     0
 75
     0
 76
     0
 77
     1
 78
     8
170
     0
171
     3
172
     1
173
     0
174
     0
175
     0
176
     0
177
     0
178
     0
270
     2
271
     2
272
     2
273
     2
274
     3
340
11
275
     0
280
     0
281
     0
282
     0
283
     0
284
     8
285
     0
286
     0
287
     3
288
     0
  0
ENDTAB
  0
TABLE
  2
BLOCK_RECORD
  5
1
330
0
100
AcDbSymbolTable
 70
     1
  0
BLOCK_RECORD
  5
1F
330
1
100
AcDbSymbolTableRecord
100
AcDbBlockTableRecord
  2
*MODEL_SPACE
  0
BLOCK_RECORD
  5
1B
330
1
100
AcDbSymbolTableRecord
100
AcDbBlockTableRecord
  2
*PAPER_SPACE
  0
ENDTAB
  0
ENDSEC
  0
SECTION
  2
BLOCKS
  0
BLOCK
  5
20
330
1F
100
AcDbEntity
  8
0
100
AcDbBlockBegin
  2
*MODEL_SPACE
 70
     0
 10
0.0
 20
0.0
 30
0.0
  3
*MODEL_SPACE
  1

  0
ENDBLK
  5
21
330
1F
100
AcDbEntity
  8
0
100
AcDbBlockEnd
  0
BLOCK
  5
1C
330
1B
100
AcDbEntity
 67
     1
  8
0
100
AcDbBlockBegin
  2
*PAPER_SPACE
  1

  0
ENDBLK
  5
1D
330
1B
100
AcDbEntity
 67
     1
  8
0
100
AcDbBlockEnd
  0
ENDSEC
  0
SECTION
  2
ENTITIES
  0
SPLINE
  5
100
100
AcDbEntity
  8
0
 62
7
100
AcDbSpline
 70
8
 71
3
 72
8
 73
4
 74
0
 40
0
 40
0
 40
0
 40
0
 40
1
 40
1
 40
1
 40
1
 10
70.005477
 20
0.416462
 30
0.0
 10
68.913356
 20
0.765733
 30
0.0
 10
68.235798
 20
1.479534
 30
0.0
 10
67.948167
 20
2.583818
 30
0.0
  0
SPLINE
  5
101
100
AcDbEntity
  8
0
 62
7
100
AcDbSpline
 70
8
 71
3
 72
8
 73
4
 74
0
 40
0
 40
0
 40
0
 40
0
 40
1
 40
1
 40
1
 40
1
 10
67.948167
 20
2.583818
 30
0.0
 10
67.838196
 20
3.006034
 30
0.0
 10
67.817997
 20
3.855905
 30
0.0
 10
67.817997
 20
8.061122
 30
0.0
  0
SPLINE
  5
102
100
AcDbEntity
  8
0
 62
7
100
AcDbSpline
 70
8
 71
3
 72
8
 73
4
 74
0
 40
0
 40
0
 40
0
 40
0
 40
1
 40
1
 40
1
 40
1
 10
71.162331
 20
5.841998
 30
0.0
 10
71.162331
 20
3.565649
 30
0.0
 10
71.206545
 20
3.308273
 30
0.0
 10
71.635718
 20
3.086338
 30
0.0
  0
SPLINE
  5
103
100
AcDbEntity
  8
0
 62
7
100
AcDbSpline
 70
8
 71
3
 72
8
 73
4
 74
0
 40
0
 40
0
 40
0
 40
0
 40
1
 40
1
 40
1
 40
1
 10
71.635718
 20
3.086338
 30
0.0
 10
71.947111
 20
2.925310
 30
0.0
 10
72.432458
 20
2.930379
 30
0.0
 10
72.929837
 20
3.099858
 30
0.0
  0
SPLINE
  5
104
100
AcDbEntity
  8
0
 62
7
100
AcDbSpline
 70
8
 71
3
 72
8
 73
4
 74
0
 40
0
 40
0
 40
0
 40
0
 40
1
 40
1
 40
1
 40
1
 10
72.929837
 20
3.099858
 30
0.0
 10
73.150206
 20
3.174947
 30
0.0
 10
73.341590
 20
3.222572
 30
0.0
 10
73.355131
 20
3.205692
 30
0.0
  0
SPLINE
  5
105
100
AcDbEntity
  8
0
 62
7
100
AcDbSpline
 70
8
 71
3
 72
8
 73
4
 74
0
 40
0
 40
0
 40
0
 40
0
 40
1
 40
1
 40
1
 40
1
 10
73.355131
 20
3.205692
 30
0.0
 10
73.368678
 20
3.188811
 30
0.0
 10
73.502274
 20
2.717803
 30
0.0
 10
73.652023
 20
2.159003
 30
0.0
  0
SPLINE
  5
106
100
AcDbEntity
  8
0
 62
7
100
AcDbSpline
 70
8
 71
3
 72
8
 73
4
 74
0
 40
0
 40
0
 40
0
 40
0
 40
1
 40
1
 40
1
 40
1
 10
73.652023
 20
2.159003
 30
0.0
 10
73.801769
 20
1.600203
 30
0.0
 10
73.941972
 20
1.081429
 30
0.0
 10
73.963586
 20
1.006171
 30
0.0
  0
SPLINE
  5
107
100
AcDbEntity
  8
0
 62
7
100
AcDbSpline
 70
8
 71
3
 72
8
 73
4
 74
0
 40
0
 40
0
 40
0
 40
0
 40
1
 40
1
 40
1
 40
1
 10
73.963586
 20
1.006171
 30
0.0
 10
74.010972
 20
0.841155
 30
0.0
 10
73.438083
 20
0.573447
 30
0.0
 10
72.629792
 20
0.382897
 30
0.0
  0
SPLINE
  5
108
100
AcDbEntity
  8
0
 62
7
100
AcDbSpline
 70
8
 71
3
 72
8
 73
4
 74
0
 40
0
 40
0
 40
0
 40
0
 40
1
 40
1
 40
1
 40
1
 10
72.629792
 20
0.382897
 30
0.0
 10
71.885223
 20
0.207367
 30
0.0
 10
70.608222
 20
0.223700
 30
0.0
 10
70.005477
 20
0.416465
 30
0.0
  0
LWPOLYLINE
  5
109
100
AcDbEntity
  8
0
 62
7
100
AcDbPolyline
 90
13
 70
0
 10
67.817997
 20
8.061122
 30
0.0
 10
67.817997
 20
13.038667
 30
0.0
 10
69.468997
 20
13.038667
 30
0.0
 10
71.119997
 20
13.038667
 30
0.0
 10
71.119997
 20
11.599333
 30
0.0
 10
71.119997
 20
10.160000
 30
0.0
 10
72.474664
 20
10.160000
 30
0.0
 10
73.829331
 20
10.160000
 30
0.0
 10
73.829331
 20
9.061483
 30
0.0
 10
73.829331
 20
7.962967
 30
0.0
 10
72.495831
 20
7.939649
 30
0.0
 10
71.162331
 20
7.916331
 30
0.0
 10
71.162331
 20
5.841998
 30
0.0
  0
LWPOLYLINE
  5
10a
100
AcDbEntity
  8
0
 62
7
100
AcDbPolyline
 90
1
 70
1
 10
70.005477
 20
0.416465
 30
0.0
  0
SPLINE
  5
10b
100
AcDbEntity
  8
0
 62
7
100
AcDbSpline
 70
8
 71
3
 72
8
 73
4
 74
0
 40
0
 40
0
 40
0
 40
0
 40
1
 40
1
 40
1
 40
1
 10
58.845958
 20
0.474247
 30
0.0
 10
57.091837
 20
0.945653
 30
0.0
 10
55.757003
 20
2.215534
 30
0.0
 10
55.250599
 20
3.894667
 30
0.0
  0
SPLINE
  5
10c
100
AcDbEntity
  8
0
 62
7
100
AcDbSpline
 70
8
 71
3
 72
8
 73
4
 74
0
 40
0
 40
0
 40
0
 40
0
 40
1
 40
1
 40
1
 40
1
 10
55.250599
 20
3.894667
 30
0.0
 10
55.036307
 20
4.605213
 30
0.0
 10
54.989114
 20
5.927129
 30
0.0
 10
55.150959
 20
6.685688
 30
0.0
  0
SPLINE
  5
10d
100
AcDbEntity
  8
0
 62
7
100
AcDbSpline
 70
8
 71
3
 72
8
 73
4
 74
0
 40
0
 40
0
 40
0
 40
0
 40
1
 40
1
 40
1
 40
1
 10
55.150959
 20
6.685688
 30
0.0
 10
55.596777
 20
8.775219
 30
0.0
 10
57.088302
 20
10.194401
 30
0.0
 10
59.287831
 20
10.621914
 30
0.0
  0
LWPOLYLINE
  5
10e
100
AcDbEntity
  8
0
 62
7
100
AcDbPolyline
 90
8
 70
1
 10
42.925997
 20
7.027333
 30
0.0
 10
42.925997
 20
13.716000
 30
0.0
 10
44.661664
 20
13.716000
 30
0.0
 10
46.397331
 20
13.716000
 30
0.0
 10
46.397331
 20
7.027333
 30
0.0
 10
46.397331
 20
0.338667
 30
0.0
 10
44.661664
 20
0.338667
 30
0.0
 10
42.925997
 20
0.338667
 30
0.0
  0
SPLINE
  5
10f
100
AcDbEntity
  8
0
 62
7
100
AcDbSpline
 70
8
 71
3
 72
8
 73
4
 74
0
 40
0
 40
0
 40
0
 40
0
 40
1
 40
1
 40
1
 40
1
 10
59.552295
 20
7.747157
 30
0.0
 10
58.045398
 20
6.935639
 30
0.0
 10
58.092483
 20
3.957324
 30
0.0
 10
59.624738
 20
3.164964
 30
0.0
  0
LWPOLYLINE
  5
110
100
AcDbEntity
  8
0
 62
7
100
AcDbPolyline
 90
5
 70
0
 10
59.287831
 20
10.621914
 30
0.0
 10
59.859331
 20
10.732994
 30
0.0
 10
59.859331
 20
9.322751
 30
0.0
 10
59.859331
 20
7.912507
 30
0.0
 10
59.552295
 20
7.747157
 30
0.0
  0
SPLINE
  5
111
100
AcDbEntity
  8
0
 62
7
100
AcDbSpline
 70
8
 71
3
 72
8
 73
4
 74
0
 40
0
 40
0
 40
0
 40
0
 40
1
 40
1
 40
1
 40
1
 10
59.584164
 20
0.344249
 30
0.0
 10
59.432822
 20
0.347319
 30
0.0
 10
59.100630
 20
0.405818
 30
0.0
 10
58.845958
 20
0.474258
 30
0.0
  0
LWPOLYLINE
  5
112
100
AcDbEntity
  8
0
 62
7
100
AcDbPolyline
 90
5
 70
0
 10
59.624738
 20
3.164964
 30
0.0
 10
59.859331
 20
3.043650
 30
0.0
 10
59.859331
 20
1.691158
 30
0.0
 10
59.859331
 20
0.338667
 30
0.0
 10
59.584164
 20
0.344249
 30
0.0
  0
LWPOLYLINE
  5
113
100
AcDbEntity
  8
0
 62
7
100
AcDbPolyline
 90
1
 70
1
 10
58.845958
 20
0.474258
 30
0.0
  0
SPLINE
  5
114
100
AcDbEntity
  8
0
 62
7
100
AcDbSpline
 70
8
 71
3
 72
8
 73
4
 74
0
 40
0
 40
0
 40
0
 40
0
 40
1
 40
1
 40
1
 40
1
 10
61.799814
 20
3.245083
 30
0.0
 10
62.496324
 20
3.706013
 30
0.0
 10
62.822664
 20
4.422637
 30
0.0
 10
62.822664
 20
5.491210
 30
0.0
  0
SPLINE
  5
115
100
AcDbEntity
  8
0
 62
7
100
AcDbSpline
 70
8
 71
3
 72
8
 73
4
 74
0
 40
0
 40
0
 40
0
 40
0
 40
1
 40
1
 40
1
 40
1
 10
62.822664
 20
5.491210
 30
0.0
 10
62.822664
 20
5.865380
 30
0.0
 10
62.765755
 20
6.317525
 30
0.0
 10
62.691068
 20
6.536713
 30
0.0
  0
SPLINE
  5
116
100
AcDbEntity
  8
0
 62
7
100
AcDbSpline
 70
8
 71
3
 72
8
 73
4
 74
0
 40
0
 40
0
 40
0
 40
0
 40
1
 40
1
 40
1
 40
1
 10
62.691068
 20
6.536713
 30
0.0
 10
62.538867
 20
6.983401
 30
0.0
 10
62.068557
 20
7.567788
 30
0.0
 10
61.713499
 20
7.751394
 30
0.0
  0
LWPOLYLINE
  5
117
100
AcDbEntity
  8
0
 62
7
100
AcDbPolyline
 90
3
 70
0
 10
61.467997
 20
1.682083
 30
0.0
 10
61.467997
 20
3.025497
 30
0.0
 10
61.799814
 20
3.245083
 30
0.0
  0
SPLINE
  5
118
100
AcDbEntity
  8
0
 62
7
100
AcDbSpline
 70
8
 71
3
 72
8
 73
4
 74
0
 40
0
 40
0
 40
0
 40
0
 40
1
 40
1
 40
1
 40
1
 10
61.688610
 20
10.668000
 30
0.0
 10
62.078047
 20
10.668000
 30
0.0
 10
62.932487
 20
10.411133
 30
0.0
 10
63.550969
 20
10.108127
 30
0.0
  0
SPLINE
  5
119
100
AcDbEntity
  8
0
 62
7
100
AcDbSpline
 70
8
 71
3
 72
8
 73
4
 74
0
 40
0
 40
0
 40
0
 40
0
 40
1
 40
1
 40
1
 40
1
 10
63.550969
 20
10.108127
 30
0.0
 10
65.430024
 20
9.187546
 30
0.0
 10
66.478475
 20
7.111828
 30
0.0
 10
66.208301
 20
4.847167
 30
0.0
  0
SPLINE
  5
11a
100
AcDbEntity
  8
0
 62
7
100
AcDbSpline
 70
8
 71
3
 72
8
 73
4
 74
0
 40
0
 40
0
 40
0
 40
0
 40
1
 40
1
 40
1
 40
1
 10
66.208301
 20
4.847167
 30
0.0
 10
66.110982
 20
4.031414
 30
0.0
 10
66.001326
 20
3.643153
 30
0.0
 10
65.698920
 20
3.043605
 30
0.0
  0
SPLINE
  5
11b
100
AcDbEntity
  8
0
 62
7
100
AcDbSpline
 70
8
 71
3
 72
8
 73
4
 74
0
 40
0
 40
0
 40
0
 40
0
 40
1
 40
1
 40
1
 40
1
 10
65.698920
 20
3.043605
 30
0.0
 10
65.049670
 20
1.756405
 30
0.0
 10
63.872155
 20
0.841642
 30
0.0
 10
62.393923
 20
0.476094
 30
0.0
  0
SPLINE
  5
11c
100
AcDbEntity
  8
0
 62
7
100
AcDbSpline
 70
8
 71
3
 72
8
 73
4
 74
0
 40
0
 40
0
 40
0
 40
0
 40
1
 40
1
 40
1
 40
1
 10
62.393923
 20
0.476094
 30
0.0
 10
61.394070
 20
0.228843
 30
0.0
 10
61.467997
 20
0.132556
 30
0.0
 10
61.467997
 20
1.682083
 30
0.0
  0
LWPOLYLINE
  5
11d
100
AcDbEntity
  8
0
 62
7
100
AcDbPolyline
 90
5
 70
0
 10
61.713499
 20
7.751394
 30
0.0
 10
61.467997
 20
7.878348
 30
0.0
 10
61.467997
 20
9.273174
 30
0.0
 10
61.467997
 20
10.668000
 30
0.0
 10
61.688610
 20
10.668000
 30
0.0
  0
SPLINE
  5
11e
100
AcDbEntity
  8
0
 62
7
100
AcDbSpline
 70
8
 71
3
 72
8
 73
4
 74
0
 40
0
 40
0
 40
0
 40
0
 40
1
 40
1
 40
1
 40
1
 10
5.629747
 20
0.783167
 30
0.0
 10
5.534796
 20
1.050391
 30
0.0
 10
3.640449
 20
9.256672
 30
0.0
 10
3.667475
 20
9.283697
 30
0.0
  0
SPLINE
  5
11f
100
AcDbEntity
  8
0
 62
7
100
AcDbSpline
 70
8
 71
3
 72
8
 73
4
 74
0
 40
0
 40
0
 40
0
 40
0
 40
1
 40
1
 40
1
 40
1
 10
3.667475
 20
9.283697
 30
0.0
 10
3.684292
 20
9.300514
 30
0.0
 10
6.994563
 20
9.304536
 30
0.0
 10
11.023633
 20
9.292638
 30
0.0
  0
LWPOLYLINE
  5
120
100
AcDbEntity
  8
0
 62
7
100
AcDbPolyline
 90
1
 70
1
 10
61.467997
 20
1.682083
 30
0.0
  0
SPLINE
  5
121
100
AcDbEntity
  8
0
 62
7
100
AcDbSpline
 70
8
 71
3
 72
8
 73
4
 74
0
 40
0
 40
0
 40
0
 40
0
 40
1
 40
1
 40
1
 40
1
 10
17.346173
 20
4.995333
 30
0.0
 10
16.794501
 20
2.643717
 30
0.0
 10
16.342578
 20
0.710142
 30
0.0
 10
16.341900
 20
0.698500
 30
0.0
  0
SPLINE
  5
122
100
AcDbEntity
  8
0
 62
7
100
AcDbSpline
 70
8
 71
3
 72
8
 73
4
 74
0
 40
0
 40
0
 40
0
 40
0
 40
1
 40
1
 40
1
 40
1
 10
16.341900
 20
0.698500
 30
0.0
 10
16.341212
 20
0.686858
 30
0.0
 10
13.939171
 20
0.677333
 30
0.0
 10
11.004009
 20
0.677333
 30
0.0
  0
SPLINE
  5
123
100
AcDbEntity
  8
0
 62
7
100
AcDbSpline
 70
8
 71
3
 72
8
 73
4
 74
0
 40
0
 40
0
 40
0
 40
0
 40
1
 40
1
 40
1
 40
1
 10
11.004009
 20
0.677333
 30
0.0
 10
6.811184
 20
0.677333
 30
0.0
 10
5.659292
 20
0.700008
 30
0.0
 10
5.629747
 20
0.783167
 30
0.0
  0
LWPOLYLINE
  5
124
100
AcDbEntity
  8
0
 62
7
100
AcDbPolyline
 90
3
 70
0
 10
11.023633
 20
9.292638
 30
0.0
 10
18.349213
 20
9.271000
 30
0.0
 10
17.346173
 20
4.995333
 30
0.0
  0
LWPOLYLINE
  5
125
100
AcDbEntity
  8
0
 62
7
100
AcDbPolyline
 90
1
 70
1
 10
5.629747
 20
0.783167
 30
0.0
  0
SPLINE
  5
126
100
AcDbEntity
  8
0
 62
7
100
AcDbSpline
 70
8
 71
3
 72
8
 73
4
 74
0
 40
0
 40
0
 40
0
 40
0
 40
1
 40
1
 40
1
 40
1
 10
48.610009
 20
6.858000
 30
0.0
 10
49.376026
 20
6.858000
 30
0.0
 10
49.784267
 20
6.981182
 30
0.0
 10
50.201311
 20
7.338157
 30
0.0
  0
SPLINE
  5
127
100
AcDbEntity
  8
0
 62
7
100
AcDbSpline
 70
8
 71
3
 72
8
 73
4
 74
0
 40
0
 40
0
 40
0
 40
0
 40
1
 40
1
 40
1
 40
1
 10
50.201311
 20
7.338157
 30
0.0
 10
51.030248
 20
8.047696
 30
0.0
 10
51.053921
 20
9.696497
 30
0.0
 10
50.245362
 20
10.406420
 30
0.0
  0
SPLINE
  5
128
100
AcDbEntity
  8
0
 62
7
100
AcDbSpline
 70
8
 71
3
 72
8
 73
4
 74
0
 40
0
 40
0
 40
0
 40
0
 40
1
 40
1
 40
1
 40
1
 10
50.245362
 20
10.406420
 30
0.0
 10
49.881570
 20
10.725832
 30
0.0
 10
49.233085
 20
10.922000
 30
0.0
 10
48.540964
 20
10.922000
 30
0.0
  0
LWPOLYLINE
  5
129
100
AcDbEntity
  8
0
 62
7
100
AcDbPolyline
 90
3
 70
0
 10
48.005997
 20
5.448833
 30
0.0
 10
48.005997
 20
6.858000
 30
0.0
 10
48.610009
 20
6.858000
 30
0.0
  0
SPLINE
  5
12a
100
AcDbEntity
  8
0
 62
7
100
AcDbSpline
 70
8
 71
3
 72
8
 73
4
 74
0
 40
0
 40
0
 40
0
 40
0
 40
1
 40
1
 40
1
 40
1
 10
49.000831
 20
13.681822
 30
0.0
 10
50.873451
 20
13.570709
 30
0.0
 10
52.026860
 20
13.159921
 30
0.0
 10
52.898633
 20
12.293616
 30
0.0
  0
SPLINE
  5
12b
100
AcDbEntity
  8
0
 62
7
100
AcDbSpline
 70
8
 71
3
 72
8
 73
4
 74
0
 40
0
 40
0
 40
0
 40
0
 40
1
 40
1
 40
1
 40
1
 10
52.898633
 20
12.293616
 30
0.0
 10
53.774361
 20
11.423381
 30
0.0
 10
54.122132
 20
10.478373
 30
0.0
 10
54.120034
 20
8.974667
 30
0.0
  0
SPLINE
  5
12c
100
AcDbEntity
  8
0
 62
7
100
AcDbSpline
 70
8
 71
3
 72
8
 73
4
 74
0
 40
0
 40
0
 40
0
 40
0
 40
1
 40
1
 40
1
 40
1
 10
54.120034
 20
8.974667
 30
0.0
 10
54.117917
 20
7.433820
 30
0.0
 10
53.740063
 20
6.412156
 30
0.0
 10
52.833537
 20
5.495826
 30
0.0
  0
SPLINE
  5
12d
100
AcDbEntity
  8
0
 62
7
100
AcDbSpline
 70
8
 71
3
 72
8
 73
4
 74
0
 40
0
 40
0
 40
0
 40
0
 40
1
 40
1
 40
1
 40
1
 10
52.833537
 20
5.495826
 30
0.0
 10
51.909935
 20
4.562235
 30
0.0
 10
50.872059
 20
4.172904
 30
0.0
 10
49.085497
 20
4.089850
 30
0.0
  0
LWPOLYLINE
  5
12e
100
AcDbEntity
  8
0
 62
7
100
AcDbPolyline
 90
5
 70
0
 10
48.540964
 20
10.922000
 30
0.0
 10
48.005997
 20
10.922000
 30
0.0
 10
48.005997
 20
12.331426
 30
0.0
 10
48.005997
 20
13.740850
 30
0.0
 10
49.000831
 20
13.681822
 30
0.0
  0
SPLINE
  5
12f
100
AcDbEntity
  8
0
 62
7
100
AcDbSpline
 70
8
 71
3
 72
8
 73
4
 74
0
 40
0
 40
0
 40
0
 40
0
 40
1
 40
1
 40
1
 40
1
 10
2.656696
 20
10.112326
 30
0.0
 10
2.171829
 20
10.323352
 30
0.0
 10
2.116667
 20
10.494058
 30
0.0
 10
2.116667
 20
11.783521
 30
0.0
  0
SPLINE
  5
130
100
AcDbEntity
  8
0
 62
7
100
AcDbSpline
 70
8
 71
3
 72
8
 73
4
 74
0
 40
0
 40
0
 40
0
 40
0
 40
1
 40
1
 40
1
 40
1
 10
2.116667
 20
11.783521
 30
0.0
 10
2.116667
 20
12.504497
 30
0.0
 10
2.155085
 20
13.030351
 30
0.0
 10
2.217817
 20
13.168032
 30
0.0
  0
SPLINE
  5
131
100
AcDbEntity
  8
0
 62
7
100
AcDbSpline
 70
8
 71
3
 72
8
 73
4
 74
0
 40
0
 40
0
 40
0
 40
0
 40
1
 40
1
 40
1
 40
1
 10
2.217817
 20
13.168032
 30
0.0
 10
2.437626
 20
13.650462
 30
0.0
 10
2.073237
 20
13.631333
 30
0.0
 10
11.043459
 20
13.631333
 30
0.0
  0
LWPOLYLINE
  5
132
100
AcDbEntity
  8
0
 62
7
100
AcDbPolyline
 90
3
 70
0
 10
49.085497
 20
4.089850
 30
0.0
 10
48.005997
 20
4.039667
 30
0.0
 10
48.005997
 20
5.448833
 30
0.0
  0
SPLINE
  5
133
100
AcDbEntity
  8
0
 62
7
100
AcDbSpline
 70
8
 71
3
 72
8
 73
4
 74
0
 40
0
 40
0
 40
0
 40
0
 40
1
 40
1
 40
1
 40
1
 10
19.882847
 20
11.966324
 30
0.0
 10
19.906762
 20
10.983914
 30
0.0
 10
19.887927
 20
10.751340
 30
0.0
 10
19.766083
 20
10.524294
 30
0.0
  0
SPLINE
  5
134
100
AcDbEntity
  8
0
 62
7
100
AcDbSpline
 70
8
 71
3
 72
8
 73
4
 74
0
 40
0
 40
0
 40
0
 40
0
 40
1
 40
1
 40
1
 40
1
 10
19.766083
 20
10.524294
 30
0.0
 10
19.465010
 20
9.963282
 30
0.0
 10
19.912247
 20
9.990320
 30
0.0
 10
10.993871
 20
9.993981
 30
0.0
  0
SPLINE
  5
135
100
AcDbEntity
  8
0
 62
7
100
AcDbSpline
 70
8
 71
3
 72
8
 73
4
 74
0
 40
0
 40
0
 40
0
 40
0
 40
1
 40
1
 40
1
 40
1
 10
10.993871
 20
9.993981
 30
0.0
 10
4.382980
 20
9.996698
 30
0.0
 10
2.873135
 20
10.018126
 30
0.0
 10
2.656696
 20
10.112326
 30
0.0
  0
LWPOLYLINE
  5
136
100
AcDbEntity
  8
0
 62
7
100
AcDbPolyline
 90
5
 70
0
 10
11.043459
 20
13.631333
 30
0.0
 10
19.301328
 20
13.631333
 30
0.0
 10
19.577830
 20
13.384490
 30
0.0
 10
19.854333
 20
13.137647
 30
0.0
 10
19.882847
 20
11.966324
 30
0.0
  0
SPLINE
  5
137
100
AcDbEntity
  8
0
 62
7
100
AcDbSpline
 70
8
 71
3
 72
8
 73
4
 74
0
 40
0
 40
0
 40
0
 40
0
 40
1
 40
1
 40
1
 40
1
 10
57.605620
 20
12.057465
 30
0.0
 10
56.350736
 20
12.296153
 30
0.0
 10
54.440664
 20
13.060867
 30
0.0
 10
54.440664
 20
13.324583
 30
0.0
  0
SPLINE
  5
138
100
AcDbEntity
  8
0
 62
7
100
AcDbSpline
 70
8
 71
3
 72
8
 73
4
 74
0
 40
0
 40
0
 40
0
 40
0
 40
1
 40
1
 40
1
 40
1
 10
54.440664
 20
13.324583
 30
0.0
 10
54.440664
 20
13.419266
 30
0.0
 10
54.729234
 20
14.226873
 30
0.0
 10
55.189080
 20
15.419134
 30
0.0
  0
LWPOLYLINE
  5
139
100
AcDbEntity
  8
0
 62
7
100
AcDbPolyline
 90
1
 70
1
 10
2.656696
 20
10.112326
 30
0.0
  0
SPLINE
  5
13a
100
AcDbEntity
  8
0
 62
7
100
AcDbSpline
 70
8
 71
3
 72
8
 73
4
 74
0
 40
0
 40
0
 40
0
 40
0
 40
1
 40
1
 40
1
 40
1
 10
55.767748
 20
15.401666
 30
0.0
 10
56.039036
 20
15.270252
 30
0.0
 10
56.584847
 20
15.056292
 30
0.0
 10
56.980664
 20
14.926199
 30
0.0
  0
SPLINE
  5
13b
100
AcDbEntity
  8
0
 62
7
100
AcDbSpline
 70
8
 71
3
 72
8
 73
4
 74
0
 40
0
 40
0
 40
0
 40
0
 40
1
 40
1
 40
1
 40
1
 10
56.980664
 20
14.926199
 30
0.0
 10
57.599829
 20
14.722699
 30
0.0
 10
57.836305
 20
14.689667
 30
0.0
 10
58.673997
 20
14.689667
 30
0.0
  0
SPLINE
  5
13c
100
AcDbEntity
  8
0
 62
7
100
AcDbSpline
 70
8
 71
3
 72
8
 73
4
 74
0
 40
0
 40
0
 40
0
 40
0
 40
1
 40
1
 40
1
 40
1
 10
58.673997
 20
14.689667
 30
0.0
 10
59.585611
 20
14.689667
 30
0.0
 10
59.673112
 20
14.704626
 30
0.0
 10
60.046963
 20
14.924388
 30
0.0
  0
SPLINE
  5
13d
100
AcDbEntity
  8
0
 62
7
100
AcDbSpline
 70
8
 71
3
 72
8
 73
4
 74
0
 40
0
 40
0
 40
0
 40
0
 40
1
 40
1
 40
1
 40
1
 10
60.046963
 20
14.924388
 30
0.0
 10
60.863033
 20
15.404103
 30
0.0
 10
61.129331
 20
16.008071
 30
0.0
 10
61.129331
 20
17.379227
 30
0.0
  0
LWPOLYLINE
  5
13e
100
AcDbEntity
  8
0
 62
7
100
AcDbPolyline
 90
3
 70
0
 10
55.189080
 20
15.419134
 30
0.0
 10
55.274498
 20
15.640601
 30
0.0
 10
55.767748
 20
15.401666
 30
0.0
  0
SPLINE
  5
13f
100
AcDbEntity
  8
0
 62
7
100
AcDbSpline
 70
8
 71
3
 72
8
 73
4
 74
0
 40
0
 40
0
 40
0
 40
0
 40
1
 40
1
 40
1
 40
1
 10
60.854164
 20
17.969828
 30
0.0
 10
60.006918
 20
16.916791
 30
0.0
 10
58.657731
 20
16.439156
 30
0.0
 10
57.150839
 20
16.658788
 30
0.0
  0
SPLINE
  5
140
100
AcDbEntity
  8
0
 62
7
100
AcDbSpline
 70
8
 71
3
 72
8
 73
4
 74
0
 40
0
 40
0
 40
0
 40
0
 40
1
 40
1
 40
1
 40
1
 10
57.150839
 20
16.658788
 30
0.0
 10
55.592536
 20
16.885913
 30
0.0
 10
54.525606
 20
17.811513
 30
0.0
 10
54.147117
 20
19.264627
 30
0.0
  0
SPLINE
  5
141
100
AcDbEntity
  8
0
 62
7
100
AcDbSpline
 70
8
 71
3
 72
8
 73
4
 74
0
 40
0
 40
0
 40
0
 40
0
 40
1
 40
1
 40
1
 40
1
 10
54.147117
 20
19.264627
 30
0.0
 10
54.041895
 20
19.668604
 30
0.0
 10
54.017331
 20
20.352437
 30
0.0
 10
54.017331
 20
22.877788
 30
0.0
  0
LWPOLYLINE
  5
142
100
AcDbEntity
  8
0
 62
7
100
AcDbPolyline
 90
3
 70
0
 10
61.129331
 20
17.379227
 30
0.0
 10
61.129331
 20
18.311830
 30
0.0
 10
60.854164
 20
17.969828
 30
0.0
  0
SPLINE
  5
143
100
AcDbEntity
  8
0
 62
7
100
AcDbSpline
 70
8
 71
3
 72
8
 73
4
 74
0
 40
0
 40
0
 40
0
 40
0
 40
1
 40
1
 40
1
 40
1
 10
57.332970
 20
23.473833
 30
0.0
 10
57.360881
 20
21.023750
 30
0.0
 10
57.367144
 20
20.943871
 30
0.0
 10
57.562422
 20
20.547247
 30
0.0
  0
SPLINE
  5
144
100
AcDbEntity
  8
0
 62
7
100
AcDbSpline
 70
8
 71
3
 72
8
 73
4
 74
0
 40
0
 40
0
 40
0
 40
0
 40
1
 40
1
 40
1
 40
1
 10
57.562422
 20
20.547247
 30
0.0
 10
57.840523
 20
19.982400
 30
0.0
 10
58.283382
 20
19.701724
 30
0.0
 10
58.964994
 20
19.658322
 30
0.0
  0
SPLINE
  5
145
100
AcDbEntity
  8
0
 62
7
100
AcDbSpline
 70
8
 71
3
 72
8
 73
4
 74
0
 40
0
 40
0
 40
0
 40
0
 40
1
 40
1
 40
1
 40
1
 10
58.964994
 20
19.658322
 30
0.0
 10
59.977745
 20
19.593835
 30
0.0
 10
60.706908
 20
20.113617
 30
0.0
 10
61.003167
 20
21.111223
 30
0.0
  0
SPLINE
  5
146
100
AcDbEntity
  8
0
 62
7
100
AcDbSpline
 70
8
 71
3
 72
8
 73
4
 74
0
 40
0
 40
0
 40
0
 40
0
 40
1
 40
1
 40
1
 40
1
 10
61.003167
 20
21.111223
 30
0.0
 10
61.100986
 20
21.440613
 30
0.0
 10
61.129331
 20
22.036721
 30
0.0
 10
61.129331
 20
23.764367
 30
0.0
  0
LWPOLYLINE
  5
147
100
AcDbEntity
  8
0
 62
7
100
AcDbPolyline
 90
5
 70
0
 10
54.017331
 20
22.877788
 30
0.0
 10
54.017331
 20
25.992667
 30
0.0
 10
55.660803
 20
25.992667
 30
0.0
 10
57.304276
 20
25.992667
 30
0.0
 10
57.332970
 20
23.473833
 30
0.0
  0
SPLINE
  5
148
100
AcDbEntity
  8
0
 62
7
100
AcDbSpline
 70
8
 71
3
 72
8
 73
4
 74
0
 40
0
 40
0
 40
0
 40
0
 40
1
 40
1
 40
1
 40
1
 10
64.496072
 20
20.933833
 30
0.0
 10
64.463822
 20
15.428623
 30
0.0
 10
64.475434
 20
15.567910
 30
0.0
 10
63.964976
 20
14.562667
 30
0.0
  0
SPLINE
  5
149
100
AcDbEntity
  8
0
 62
7
100
AcDbSpline
 70
8
 71
3
 72
8
 73
4
 74
0
 40
0
 40
0
 40
0
 40
0
 40
1
 40
1
 40
1
 40
1
 10
63.964976
 20
14.562667
 30
0.0
 10
63.431005
 20
13.511112
 30
0.0
 10
62.352230
 20
12.629873
 30
0.0
 10
61.105158
 20
12.226514
 30
0.0
  0
SPLINE
  5
14a
100
AcDbEntity
  8
0
 62
7
100
AcDbSpline
 70
8
 71
3
 72
8
 73
4
 74
0
 40
0
 40
0
 40
0
 40
0
 40
1
 40
1
 40
1
 40
1
 10
61.105158
 20
12.226514
 30
0.0
 10
60.532163
 20
12.041182
 30
0.0
 10
60.215801
 20
11.996387
 30
0.0
 10
59.308997
 20
11.972193
 30
0.0
  0
SPLINE
  5
14b
100
AcDbEntity
  8
0
 62
7
100
AcDbSpline
 70
8
 71
3
 72
8
 73
4
 74
0
 40
0
 40
0
 40
0
 40
0
 40
1
 40
1
 40
1
 40
1
 10
59.308997
 20
11.972193
 30
0.0
 10
58.613773
 20
11.953643
 30
0.0
 10
57.986316
 20
11.985054
 30
0.0
 10
57.605620
 20
12.057465
 30
0.0
  0
LWPOLYLINE
  5
14c
100
AcDbEntity
  8
0
 62
7
100
AcDbPolyline
 90
5
 70
0
 10
61.129331
 20
23.764367
 30
0.0
 10
61.129331
 20
25.992667
 30
0.0
 10
62.827519
 20
25.992667
 30
0.0
 10
64.525705
 20
25.992667
 30
0.0
 10
64.496072
 20
20.933833
 30
0.0
  0
SPLINE
  5
14d
100
AcDbEntity
  8
0
 62
7
100
AcDbSpline
 70
8
 71
3
 72
8
 73
4
 74
0
 40
0
 40
0
 40
0
 40
0
 40
1
 40
1
 40
1
 40
1
 10
10.019901
 20
14.541500
 30
0.0
 10
10.042255
 20
14.622992
 30
0.0
 10
10.084651
 20
14.832542
 30
0.0
 10
10.114109
 20
15.007167
 30
0.0
  0
SPLINE
  5
14e
100
AcDbEntity
  8
0
 62
7
100
AcDbSpline
 70
8
 71
3
 72
8
 73
4
 74
0
 40
0
 40
0
 40
0
 40
0
 40
1
 40
1
 40
1
 40
1
 10
10.114109
 20
15.007167
 30
0.0
 10
10.143569
 20
15.181792
 30
0.0
 10
10.186337
 20
15.324667
 30
0.0
 10
10.209149
 20
15.324667
 30
0.0
  0
SPLINE
  5
14f
100
AcDbEntity
  8
0
 62
7
100
AcDbSpline
 70
8
 71
3
 72
8
 73
4
 74
0
 40
0
 40
0
 40
0
 40
0
 40
1
 40
1
 40
1
 40
1
 10
10.209149
 20
15.324667
 30
0.0
 10
10.323802
 20
15.324667
 30
0.0
 10
10.670989
 20
15.031680
 30
0.0
 10
10.912588
 20
14.731043
 30
0.0
  0
LWPOLYLINE
  5
150
100
AcDbEntity
  8
0
 62
7
100
AcDbPolyline
 90
1
 70
1
 10
57.605620
 20
12.057465
 30
0.0
  0
SPLINE
  5
151
100
AcDbEntity
  8
0
 62
7
100
AcDbSpline
 70
8
 71
3
 72
8
 73
4
 74
0
 40
0
 40
0
 40
0
 40
0
 40
1
 40
1
 40
1
 40
1
 10
10.581618
 20
14.393333
 30
0.0
 10
10.048899
 20
14.393333
 30
0.0
 10
9.983955
 20
14.410465
 30
0.0
 10
10.019901
 20
14.541500
 30
0.0
  0
LWPOLYLINE
  5
152
100
AcDbEntity
  8
0
 62
7
100
AcDbPolyline
 90
3
 70
0
 10
10.912588
 20
14.731043
 30
0.0
 10
11.183979
 20
14.393333
 30
0.0
 10
10.581618
 20
14.393333
 30
0.0
  0
SPLINE
  5
153
100
AcDbEntity
  8
0
 62
7
100
AcDbSpline
 70
8
 71
3
 72
8
 73
4
 74
0
 40
0
 40
0
 40
0
 40
0
 40
1
 40
1
 40
1
 40
1
 10
6.714403
 20
15.362382
 30
0.0
 10
5.948764
 20
15.601719
 30
0.0
 10
4.322934
 20
16.639059
 30
0.0
 10
3.419837
 20
17.464439
 30
0.0
  0
SPLINE
  5
154
100
AcDbEntity
  8
0
 62
7
100
AcDbSpline
 70
8
 71
3
 72
8
 73
4
 74
0
 40
0
 40
0
 40
0
 40
0
 40
1
 40
1
 40
1
 40
1
 10
3.419837
 20
17.464439
 30
0.0
 10
2.219905
 20
18.561110
 30
0.0
 10
1.309482
 20
20.195034
 30
0.0
 10
0.917741
 20
21.954920
 30
0.0
  0
SPLINE
  5
155
100
AcDbEntity
  8
0
 62
7
100
AcDbSpline
 70
8
 71
3
 72
8
 73
4
 74
0
 40
0
 40
0
 40
0
 40
0
 40
1
 40
1
 40
1
 40
1
 10
0.917741
 20
21.954920
 30
0.0
 10
0.687619
 20
22.988737
 30
0.0
 10
0.673711
 20
24.501447
 30
0.0
 10
0.885512
 20
25.460262
 30
0.0
  0
LWPOLYLINE
  5
156
100
AcDbEntity
  8
0
 62
7
100
AcDbPolyline
 90
1
 70
1
 10
10.019901
 20
14.541500
 30
0.0
  0
SPLINE
  5
157
100
AcDbEntity
  8
0
 62
7
100
AcDbSpline
 70
8
 71
3
 72
8
 73
4
 74
0
 40
0
 40
0
 40
0
 40
0
 40
1
 40
1
 40
1
 40
1
 10
1.267130
 20
25.841262
 30
0.0
 10
1.651114
 20
25.312080
 30
0.0
 10
2.469922
 20
24.623296
 30
0.0
 10
3.023697
 20
24.363630
 30
0.0
  0
SPLINE
  5
158
100
AcDbEntity
  8
0
 62
7
100
AcDbSpline
 70
8
 71
3
 72
8
 73
4
 74
0
 40
0
 40
0
 40
0
 40
0
 40
1
 40
1
 40
1
 40
1
 10
3.023697
 20
24.363630
 30
0.0
 10
3.795844
 20
24.001570
 30
0.0
 10
4.636344
 20
23.882344
 30
0.0
 10
6.440466
 20
23.878954
 30
0.0
  0
SPLINE
  5
159
100
AcDbEntity
  8
0
 62
7
100
AcDbSpline
 70
8
 71
3
 72
8
 73
4
 74
0
 40
0
 40
0
 40
0
 40
0
 40
1
 40
1
 40
1
 40
1
 10
6.440466
 20
23.878954
 30
0.0
 10
7.633122
 20
23.876705
 30
0.0
 10
8.123600
 20
23.843047
 30
0.0
 10
8.472466
 20
23.739481
 30
0.0
  0
SPLINE
  5
15a
100
AcDbEntity
  8
0
 62
7
100
AcDbSpline
 70
8
 71
3
 72
8
 73
4
 74
0
 40
0
 40
0
 40
0
 40
0
 40
1
 40
1
 40
1
 40
1
 10
8.472466
 20
23.739481
 30
0.0
 10
8.978180
 20
23.589350
 30
0.0
 10
9.864213
 20
23.165442
 30
0.0
 10
9.944786
 20
23.035072
 30
0.0
  0
SPLINE
  5
15b
100
AcDbEntity
  8
0
 62
7
100
AcDbSpline
 70
8
 71
3
 72
8
 73
4
 74
0
 40
0
 40
0
 40
0
 40
0
 40
1
 40
1
 40
1
 40
1
 10
9.944786
 20
23.035072
 30
0.0
 10
9.972903
 20
22.989578
 30
0.0
 10
9.861847
 20
22.765751
 30
0.0
 10
9.697993
 20
22.537679
 30
0.0
  0
SPLINE
  5
15c
100
AcDbEntity
  8
0
 62
7
100
AcDbSpline
 70
8
 71
3
 72
8
 73
4
 74
0
 40
0
 40
0
 40
0
 40
0
 40
1
 40
1
 40
1
 40
1
 10
9.697993
 20
22.537679
 30
0.0
 10
9.155813
 20
21.783004
 30
0.0
 10
8.720666
 20
20.599194
 30
0.0
 10
8.720666
 20
19.878878
 30
0.0
  0
SPLINE
  5
15d
100
AcDbEntity
  8
0
 62
7
100
AcDbSpline
 70
8
 71
3
 72
8
 73
4
 74
0
 40
0
 40
0
 40
0
 40
0
 40
1
 40
1
 40
1
 40
1
 10
8.720666
 20
19.878878
 30
0.0
 10
8.720666
 20
19.702396
 30
0.0
 10
8.696724
 20
19.558000
 30
0.0
 10
8.667462
 20
19.558000
 30
0.0
  0
SPLINE
  5
15e
100
AcDbEntity
  8
0
 62
7
100
AcDbSpline
 70
8
 71
3
 72
8
 73
4
 74
0
 40
0
 40
0
 40
0
 40
0
 40
1
 40
1
 40
1
 40
1
 10
8.667462
 20
19.558000
 30
0.0
 10
8.638199
 20
19.558000
 30
0.0
 10
8.355392
 20
19.802201
 30
0.0
 10
8.039001
 20
20.100668
 30
0.0
  0
SPLINE
  5
15f
100
AcDbEntity
  8
0
 62
7
100
AcDbSpline
 70
8
 71
3
 72
8
 73
4
 74
0
 40
0
 40
0
 40
0
 40
0
 40
1
 40
1
 40
1
 40
1
 10
8.039001
 20
20.100668
 30
0.0
 10
7.306725
 20
20.791459
 30
0.0
 10
6.610127
 20
21.202944
 30
0.0
 10
5.003030
 20
21.894031
 30
0.0
  0
SPLINE
  5
160
100
AcDbEntity
  8
0
 62
7
100
AcDbSpline
 70
8
 71
3
 72
8
 73
4
 74
0
 40
0
 40
0
 40
0
 40
0
 40
1
 40
1
 40
1
 40
1
 10
5.003030
 20
21.894031
 30
0.0
 10
3.049098
 20
22.734264
 30
0.0
 10
2.519043
 20
23.091533
 30
0.0
 10
2.043583
 20
23.888766
 30
0.0
  0
SPLINE
  5
161
100
AcDbEntity
  8
0
 62
7
100
AcDbSpline
 70
8
 71
3
 72
8
 73
4
 74
0
 40
0
 40
0
 40
0
 40
0
 40
1
 40
1
 40
1
 40
1
 10
2.043583
 20
23.888766
 30
0.0
 10
1.846697
 20
24.218896
 30
0.0
 10
1.684148
 20
24.322984
 30
0.0
 10
1.484890
 20
24.246521
 30
0.0
  0
SPLINE
  5
162
100
AcDbEntity
  8
0
 62
7
100
AcDbSpline
 70
8
 71
3
 72
8
 73
4
 74
0
 40
0
 40
0
 40
0
 40
0
 40
1
 40
1
 40
1
 40
1
 10
1.484890
 20
24.246521
 30
0.0
 10
1.085006
 20
24.093072
 30
0.0
 10
1.403689
 20
23.285252
 30
0.0
 10
2.212186
 20
22.402920
 30
0.0
  0
SPLINE
  5
163
100
AcDbEntity
  8
0
 62
7
100
AcDbSpline
 70
8
 71
3
 72
8
 73
4
 74
0
 40
0
 40
0
 40
0
 40
0
 40
1
 40
1
 40
1
 40
1
 10
2.212186
 20
22.402920
 30
0.0
 10
2.863563
 20
21.692057
 30
0.0
 10
3.436888
 20
21.283007
 30
0.0
 10
5.061816
 20
20.369797
 30
0.0
  0
SPLINE
  5
164
100
AcDbEntity
  8
0
 62
7
100
AcDbSpline
 70
8
 71
3
 72
8
 73
4
 74
0
 40
0
 40
0
 40
0
 40
0
 40
1
 40
1
 40
1
 40
1
 10
5.061816
 20
20.369797
 30
0.0
 10
6.863988
 20
19.356976
 30
0.0
 10
7.486622
 20
18.932145
 30
0.0
 10
8.172804
 20
18.247127
 30
0.0
  0
SPLINE
  5
165
100
AcDbEntity
  8
0
 62
7
100
AcDbSpline
 70
8
 71
3
 72
8
 73
4
 74
0
 40
0
 40
0
 40
0
 40
0
 40
1
 40
1
 40
1
 40
1
 10
8.172804
 20
18.247127
 30
0.0
 10
8.869206
 20
17.551907
 30
0.0
 10
9.059333
 20
17.197518
 30
0.0
 10
9.059333
 20
16.594667
 30
0.0
  0
SPLINE
  5
166
100
AcDbEntity
  8
0
 62
7
100
AcDbSpline
 70
8
 71
3
 72
8
 73
4
 74
0
 40
0
 40
0
 40
0
 40
0
 40
1
 40
1
 40
1
 40
1
 10
9.059333
 20
16.594667
 30
0.0
 10
9.059333
 20
16.050442
 30
0.0
 10
8.858334
 20
15.608546
 30
0.0
 10
8.515777
 20
15.399654
 30
0.0
  0
SPLINE
  5
167
100
AcDbEntity
  8
0
 62
7
100
AcDbSpline
 70
8
 71
3
 72
8
 73
4
 74
0
 40
0
 40
0
 40
0
 40
0
 40
1
 40
1
 40
1
 40
1
 10
8.515777
 20
15.399654
 30
0.0
 10
8.202908
 20
15.208867
 30
0.0
 10
7.267417
 20
15.189512
 30
0.0
 10
6.714403
 20
15.362382
 30
0.0
  0
LWPOLYLINE
  5
168
100
AcDbEntity
  8
0
 62
7
100
AcDbPolyline
 90
3
 70
0
 10
0.885512
 20
25.460262
 30
0.0
 10
1.039095
 20
26.155524
 30
0.0
 10
1.267130
 20
25.841262
 30
0.0
  0
SPLINE
  5
169
100
AcDbEntity
  8
0
 62
7
100
AcDbSpline
 70
8
 71
3
 72
8
 73
4
 74
0
 40
0
 40
0
 40
0
 40
0
 40
1
 40
1
 40
1
 40
1
 10
14.621501
 20
15.671491
 30
0.0
 10
14.436784
 20
15.768967
 30
0.0
 10
14.192960
 20
16.009236
 30
0.0
 10
14.050001
 20
16.234659
 30
0.0
  0
SPLINE
  5
16a
100
AcDbEntity
  8
0
 62
7
100
AcDbSpline
 70
8
 71
3
 72
8
 73
4
 74
0
 40
0
 40
0
 40
0
 40
0
 40
1
 40
1
 40
1
 40
1
 10
14.050001
 20
16.234659
 30
0.0
 10
13.834480
 20
16.574501
 30
0.0
 10
13.800747
 20
16.708816
 30
0.0
 10
13.801260
 20
17.225076
 30
0.0
  0
SPLINE
  5
16b
100
AcDbEntity
  8
0
 62
7
100
AcDbSpline
 70
8
 71
3
 72
8
 73
4
 74
0
 40
0
 40
0
 40
0
 40
0
 40
1
 40
1
 40
1
 40
1
 10
13.801260
 20
17.225076
 30
0.0
 10
13.801948
 20
17.868250
 30
0.0
 10
14.020584
 20
18.911796
 30
0.0
 10
14.307009
 20
19.638463
 30
0.0
  0
SPLINE
  5
16c
100
AcDbEntity
  8
0
 62
7
100
AcDbSpline
 70
8
 71
3
 72
8
 73
4
 74
0
 40
0
 40
0
 40
0
 40
0
 40
1
 40
1
 40
1
 40
1
 10
14.307009
 20
19.638463
 30
0.0
 10
14.404897
 20
19.886806
 30
0.0
 10
14.803502
 20
20.779922
 30
0.0
 10
15.192799
 20
21.623165
 30
0.0
  0
SPLINE
  5
16d
100
AcDbEntity
  8
0
 62
7
100
AcDbSpline
 70
8
 71
3
 72
8
 73
4
 74
0
 40
0
 40
0
 40
0
 40
0
 40
1
 40
1
 40
1
 40
1
 10
15.192799
 20
21.623165
 30
0.0
 10
16.107080
 20
23.603559
 30
0.0
 10
16.265061
 20
24.111069
 30
0.0
 10
16.318742
 20
25.240225
 30
0.0
  0
SPLINE
  5
16e
100
AcDbEntity
  8
0
 62
7
100
AcDbSpline
 70
8
 71
3
 72
8
 73
4
 74
0
 40
0
 40
0
 40
0
 40
0
 40
1
 40
1
 40
1
 40
1
 10
16.318742
 20
25.240225
 30
0.0
 10
16.365880
 20
26.231742
 30
0.0
 10
16.267593
 20
26.709744
 30
0.0
 10
16.002315
 20
26.779116
 30
0.0
  0
SPLINE
  5
16f
100
AcDbEntity
  8
0
 62
7
100
AcDbSpline
 70
8
 71
3
 72
8
 73
4
 74
0
 40
0
 40
0
 40
0
 40
0
 40
1
 40
1
 40
1
 40
1
 10
16.002315
 20
26.779116
 30
0.0
 10
15.684595
 20
26.862202
 30
0.0
 10
15.593115
 20
26.671588
 30
0.0
 10
15.563929
 20
25.865667
 30
0.0
  0
SPLINE
  5
170
100
AcDbEntity
  8
0
 62
7
100
AcDbSpline
 70
8
 71
3
 72
8
 73
4
 74
0
 40
0
 40
0
 40
0
 40
0
 40
1
 40
1
 40
1
 40
1
 10
15.563929
 20
25.865667
 30
0.0
 10
15.538878
 20
25.173976
 30
0.0
 10
15.504076
 20
25.037263
 30
0.0
 10
15.186747
 20
24.384000
 30
0.0
  0
SPLINE
  5
171
100
AcDbEntity
  8
0
 62
7
100
AcDbSpline
 70
8
 71
3
 72
8
 73
4
 74
0
 40
0
 40
0
 40
0
 40
0
 40
1
 40
1
 40
1
 40
1
 10
15.186747
 20
24.384000
 30
0.0
 10
14.994475
 20
23.988183
 30
0.0
 10
14.527551
 20
23.151813
 30
0.0
 10
14.149139
 20
22.525398
 30
0.0
  0
SPLINE
  5
172
100
AcDbEntity
  8
0
 62
7
100
AcDbSpline
 70
8
 71
3
 72
8
 73
4
 74
0
 40
0
 40
0
 40
0
 40
0
 40
1
 40
1
 40
1
 40
1
 10
14.149139
 20
22.525398
 30
0.0
 10
13.063766
 20
20.728696
 30
0.0
 10
12.783686
 20
19.784220
 30
0.0
 10
12.654038
 20
17.483667
 30
0.0
  0
SPLINE
  5
173
100
AcDbEntity
  8
0
 62
7
100
AcDbSpline
 70
8
 71
3
 72
8
 73
4
 74
0
 40
0
 40
0
 40
0
 40
0
 40
1
 40
1
 40
1
 40
1
 10
12.654038
 20
17.483667
 30
0.0
 10
12.592129
 20
16.385112
 30
0.0
 10
12.513749
 20
16.145303
 30
0.0
 10
12.103878
 20
15.800419
 30
0.0
  0
SPLINE
  5
174
100
AcDbEntity
  8
0
 62
7
100
AcDbSpline
 70
8
 71
3
 72
8
 73
4
 74
0
 40
0
 40
0
 40
0
 40
0
 40
1
 40
1
 40
1
 40
1
 10
12.103878
 20
15.800419
 30
0.0
 10
11.543667
 20
15.329032
 30
0.0
 10
10.689719
 20
15.628367
 30
0.0
 10
10.197215
 20
16.468762
 30
0.0
  0
SPLINE
  5
175
100
AcDbEntity
  8
0
 62
7
100
AcDbSpline
 70
8
 71
3
 72
8
 73
4
 74
0
 40
0
 40
0
 40
0
 40
0
 40
1
 40
1
 40
1
 40
1
 10
10.197215
 20
16.468762
 30
0.0
 10
9.536363
 20
17.596421
 30
0.0
 10
9.245942
 20
19.281310
 30
0.0
 10
9.515142
 20
20.425835
 30
0.0
  0
SPLINE
  5
176
100
AcDbEntity
  8
0
 62
7
100
AcDbSpline
 70
8
 71
3
 72
8
 73
4
 74
0
 40
0
 40
0
 40
0
 40
0
 40
1
 40
1
 40
1
 40
1
 10
9.515142
 20
20.425835
 30
0.0
 10
9.814111
 20
21.696923
 30
0.0
 10
10.412756
 20
22.492857
 30
0.0
 10
11.810999
 20
23.478317
 30
0.0
  0
SPLINE
  5
177
100
AcDbEntity
  8
0
 62
7
100
AcDbSpline
 70
8
 71
3
 72
8
 73
4
 74
0
 40
0
 40
0
 40
0
 40
0
 40
1
 40
1
 40
1
 40
1
 10
11.810999
 20
23.478317
 30
0.0
 10
13.414893
 20
24.608714
 30
0.0
 10
14.187385
 20
25.341723
 30
0.0
 10
14.574536
 20
26.100599
 30
0.0
  0
SPLINE
  5
178
100
AcDbEntity
  8
0
 62
7
100
AcDbSpline
 70
8
 71
3
 72
8
 73
4
 74
0
 40
0
 40
0
 40
0
 40
0
 40
1
 40
1
 40
1
 40
1
 10
14.574536
 20
26.100599
 30
0.0
 10
14.807112
 20
26.556488
 30
0.0
 10
15.070666
 20
27.630758
 30
0.0
 10
15.070666
 20
28.122877
 30
0.0
  0
SPLINE
  5
179
100
AcDbEntity
  8
0
 62
7
100
AcDbSpline
 70
8
 71
3
 72
8
 73
4
 74
0
 40
0
 40
0
 40
0
 40
0
 40
1
 40
1
 40
1
 40
1
 10
15.070666
 20
28.122877
 30
0.0
 10
15.070666
 20
28.348261
 30
0.0
 10
15.102159
 20
28.532667
 30
0.0
 10
15.140651
 20
28.532667
 30
0.0
  0
SPLINE
  5
17a
100
AcDbEntity
  8
0
 62
7
100
AcDbSpline
 70
8
 71
3
 72
8
 73
4
 74
0
 40
0
 40
0
 40
0
 40
0
 40
1
 40
1
 40
1
 40
1
 10
15.140651
 20
28.532667
 30
0.0
 10
15.269562
 20
28.532667
 30
0.0
 10
16.476439
 20
27.226253
 30
0.0
 10
16.822291
 20
26.712333
 30
0.0
  0
SPLINE
  5
17b
100
AcDbEntity
  8
0
 62
7
100
AcDbSpline
 70
8
 71
3
 72
8
 73
4
 74
0
 40
0
 40
0
 40
0
 40
0
 40
1
 40
1
 40
1
 40
1
 10
16.822291
 20
26.712333
 30
0.0
 10
18.165402
 20
24.716528
 30
0.0
 10
18.661205
 20
22.205954
 30
0.0
 10
18.153268
 20
19.972725
 30
0.0
  0
SPLINE
  5
17c
100
AcDbEntity
  8
0
 62
7
100
AcDbSpline
 70
8
 71
3
 72
8
 73
4
 74
0
 40
0
 40
0
 40
0
 40
0
 40
1
 40
1
 40
1
 40
1
 10
18.153268
 20
19.972725
 30
0.0
 10
17.977910
 20
19.201735
 30
0.0
 10
17.448199
 20
17.763770
 30
0.0
 10
17.096400
 20
17.103728
 30
0.0
  0
SPLINE
  5
17d
100
AcDbEntity
  8
0
 62
7
100
AcDbSpline
 70
8
 71
3
 72
8
 73
4
 74
0
 40
0
 40
0
 40
0
 40
0
 40
1
 40
1
 40
1
 40
1
 10
17.096400
 20
17.103728
 30
0.0
 10
16.628772
 20
16.226367
 30
0.0
 10
15.748506
 20
15.488734
 30
0.0
 10
15.179873
 20
15.497742
 30
0.0
  0
SPLINE
  5
17e
100
AcDbEntity
  8
0
 62
7
100
AcDbSpline
 70
8
 71
3
 72
8
 73
4
 74
0
 40
0
 40
0
 40
0
 40
0
 40
1
 40
1
 40
1
 40
1
 10
15.179873
 20
15.497742
 30
0.0
 10
15.049959
 20
15.499806
 30
0.0
 10
14.798691
 20
15.577988
 30
0.0
 10
14.621501
 20
15.671491
 30
0.0
  0
LWPOLYLINE
  5
17f
100
AcDbEntity
  8
0
 62
7
100
AcDbPolyline
 90
1
 70
1
 10
6.714403
 20
15.362382
 30
0.0
  0
SPLINE
  5
180
100
AcDbEntity
  8
0
 62
7
100
AcDbSpline
 70
8
 71
3
 72
8
 73
4
 74
0
 40
0
 40
0
 40
0
 40
0
 40
1
 40
1
 40
1
 40
1
 10
50.080331
 20
15.702283
 30
0.0
 10
49.847497
 20
15.769884
 30
0.0
 10
49.632764
 20
15.826875
 30
0.0
 10
49.603147
 20
15.828930
 30
0.0
  0
SPLINE
  5
181
100
AcDbEntity
  8
0
 62
7
100
AcDbSpline
 70
8
 71
3
 72
8
 73
4
 74
0
 40
0
 40
0
 40
0
 40
0
 40
1
 40
1
 40
1
 40
1
 10
49.603147
 20
15.828930
 30
0.0
 10
49.573527
 20
15.830994
 30
0.0
 10
49.320924
 20
15.985167
 30
0.0
 10
49.041804
 20
16.171556
 30
0.0
  0
SPLINE
  5
182
100
AcDbEntity
  8
0
 62
7
100
AcDbSpline
 70
8
 71
3
 72
8
 73
4
 74
0
 40
0
 40
0
 40
0
 40
0
 40
1
 40
1
 40
1
 40
1
 10
49.041804
 20
16.171556
 30
0.0
 10
48.441314
 20
16.572548
 30
0.0
 10
47.989575
 20
17.186129
 30
0.0
 10
47.727494
 20
17.956738
 30
0.0
  0
SPLINE
  5
183
100
AcDbEntity
  8
0
 62
7
100
AcDbSpline
 70
8
 71
3
 72
8
 73
4
 74
0
 40
0
 40
0
 40
0
 40
0
 40
1
 40
1
 40
1
 40
1
 10
47.727494
 20
17.956738
 30
0.0
 10
47.546159
 20
18.489923
 30
0.0
 10
47.542376
 20
18.601086
 30
0.0
 10
47.516516
 20
24.151167
 30
0.0
  0
LWPOLYLINE
  5
184
100
AcDbEntity
  8
0
 62
7
100
AcDbPolyline
 90
1
 70
1
 10
14.621501
 20
15.671491
 30
0.0
  0
SPLINE
  5
185
100
AcDbEntity
  8
0
 62
7
100
AcDbSpline
 70
8
 71
3
 72
8
 73
4
 74
0
 40
0
 40
0
 40
0
 40
0
 40
1
 40
1
 40
1
 40
1
 10
50.903423
 20
24.447500
 30
0.0
 10
50.928849
 20
18.674175
 30
0.0
 10
50.915514
 20
18.840199
 30
0.0
 10
51.370934
 20
18.632691
 30
0.0
  0
SPLINE
  5
186
100
AcDbEntity
  8
0
 62
7
100
AcDbSpline
 70
8
 71
3
 72
8
 73
4
 74
0
 40
0
 40
0
 40
0
 40
0
 40
1
 40
1
 40
1
 40
1
 10
51.370934
 20
18.632691
 30
0.0
 10
51.647296
 20
18.506773
 30
0.0
 10
52.106155
 20
18.519453
 30
0.0
 10
52.448441
 20
18.662468
 30
0.0
  0
SPLINE
  5
187
100
AcDbEntity
  8
0
 62
7
100
AcDbSpline
 70
8
 71
3
 72
8
 73
4
 74
0
 40
0
 40
0
 40
0
 40
0
 40
1
 40
1
 40
1
 40
1
 10
52.448441
 20
18.662468
 30
0.0
 10
52.731794
 20
18.780861
 30
0.0
 10
52.737520
 20
18.779036
 30
0.0
 10
52.780798
 20
18.556635
 30
0.0
  0
SPLINE
  5
188
100
AcDbEntity
  8
0
 62
7
100
AcDbSpline
 70
8
 71
3
 72
8
 73
4
 74
0
 40
0
 40
0
 40
0
 40
0
 40
1
 40
1
 40
1
 40
1
 10
52.780798
 20
18.556635
 30
0.0
 10
52.894815
 20
17.970732
 30
0.0
 10
53.022003
 20
16.074073
 30
0.0
 10
52.951573
 20
16.010046
 30
0.0
  0
SPLINE
  5
189
100
AcDbEntity
  8
0
 62
7
100
AcDbSpline
 70
8
 71
3
 72
8
 73
4
 74
0
 40
0
 40
0
 40
0
 40
0
 40
1
 40
1
 40
1
 40
1
 10
52.951573
 20
16.010046
 30
0.0
 10
52.581342
 20
15.673469
 30
0.0
 10
50.827189
 20
15.485444
 30
0.0
 10
50.080347
 20
15.702283
 30
0.0
  0
LWPOLYLINE
  5
18a
100
AcDbEntity
  8
0
 62
7
100
AcDbPolyline
 90
5
 70
0
 10
47.516516
 20
24.151167
 30
0.0
 10
47.490189
 20
29.802667
 30
0.0
 10
49.185004
 20
29.802667
 30
0.0
 10
50.879822
 20
29.802667
 30
0.0
 10
50.903423
 20
24.447500
 30
0.0
  0
SPLINE
  5
18b
100
AcDbEntity
  8
0
 62
7
100
AcDbSpline
 70
8
 71
3
 72
8
 73
4
 74
0
 40
0
 40
0
 40
0
 40
0
 40
1
 40
1
 40
1
 40
1
 10
38.819664
 20
15.788147
 30
0.0
 10
36.605408
 20
16.273506
 30
0.0
 10
35.172142
 20
17.764498
 30
0.0
 10
34.814169
 20
19.954969
 30
0.0
  0
SPLINE
  5
18c
100
AcDbEntity
  8
0
 62
7
100
AcDbSpline
 70
8
 71
3
 72
8
 73
4
 74
0
 40
0
 40
0
 40
0
 40
0
 40
1
 40
1
 40
1
 40
1
 10
34.814169
 20
19.954969
 30
0.0
 10
34.580491
 20
21.384848
 30
0.0
 10
34.857605
 20
22.739434
 30
0.0
 10
35.620931
 20
23.898573
 30
0.0
  0
SPLINE
  5
18d
100
AcDbEntity
  8
0
 62
7
100
AcDbSpline
 70
8
 71
3
 72
8
 73
4
 74
0
 40
0
 40
0
 40
0
 40
0
 40
1
 40
1
 40
1
 40
1
 10
35.620931
 20
23.898573
 30
0.0
 10
36.268062
 20
24.881267
 30
0.0
 10
37.416780
 20
25.644308
 30
0.0
 10
38.706920
 20
25.948452
 30
0.0
  0
SPLINE
  5
18e
100
AcDbEntity
  8
0
 62
7
100
AcDbSpline
 70
8
 71
3
 72
8
 73
4
 74
0
 40
0
 40
0
 40
0
 40
0
 40
1
 40
1
 40
1
 40
1
 10
38.706920
 20
25.948452
 30
0.0
 10
39.614406
 20
26.162388
 30
0.0
 10
39.539331
 20
26.280578
 30
0.0
 10
39.539331
 20
24.638000
 30
0.0
  0
SPLINE
  5
18f
100
AcDbEntity
  8
0
 62
7
100
AcDbSpline
 70
8
 71
3
 72
8
 73
4
 74
0
 40
0
 40
0
 40
0
 40
0
 40
1
 40
1
 40
1
 40
1
 10
39.539331
 20
24.638000
 30
0.0
 10
39.539331
 20
23.395354
 30
0.0
 10
39.521418
 20
23.198667
 30
0.0
 10
39.408301
 20
23.198667
 30
0.0
  0
SPLINE
  5
190
100
AcDbEntity
  8
0
 62
7
100
AcDbSpline
 70
8
 71
3
 72
8
 73
4
 74
0
 40
0
 40
0
 40
0
 40
0
 40
1
 40
1
 40
1
 40
1
 10
39.408301
 20
23.198667
 30
0.0
 10
39.336234
 20
23.198667
 30
0.0
 10
39.094069
 20
23.015468
 30
0.0
 10
38.870160
 20
22.791559
 30
0.0
  0
SPLINE
  5
191
100
AcDbEntity
  8
0
 62
7
100
AcDbSpline
 70
8
 71
3
 72
8
 73
4
 74
0
 40
0
 40
0
 40
0
 40
0
 40
1
 40
1
 40
1
 40
1
 10
38.870160
 20
22.791559
 30
0.0
 10
38.343594
 20
22.264991
 30
0.0
 10
38.148067
 20
21.715057
 30
0.0
 10
38.150477
 20
20.767394
 30
0.0
  0
SPLINE
  5
192
100
AcDbEntity
  8
0
 62
7
100
AcDbSpline
 70
8
 71
3
 72
8
 73
4
 74
0
 40
0
 40
0
 40
0
 40
0
 40
1
 40
1
 40
1
 40
1
 10
38.150477
 20
20.767394
 30
0.0
 10
38.152065
 20
20.143954
 30
0.0
 10
38.182510
 20
20.012198
 30
0.0
 10
38.443972
 20
19.497394
 30
0.0
  0
SPLINE
  5
193
100
AcDbEntity
  8
0
 62
7
100
AcDbSpline
 70
8
 71
3
 72
8
 73
4
 74
0
 40
0
 40
0
 40
0
 40
0
 40
1
 40
1
 40
1
 40
1
 10
38.443972
 20
19.497394
 30
0.0
 10
38.670764
 20
19.050849
 30
0.0
 10
38.824112
 20
18.866465
 30
0.0
 10
39.132917
 20
18.669000
 30
0.0
  0
LWPOLYLINE
  5
194
100
AcDbEntity
  8
0
 62
7
100
AcDbPolyline
 90
1
 70
1
 10
50.080347
 20
15.702283
 30
0.0
  0
SPLINE
  5
195
100
AcDbEntity
  8
0
 62
7
100
AcDbSpline
 70
8
 71
3
 72
8
 73
4
 74
0
 40
0
 40
0
 40
0
 40
0
 40
1
 40
1
 40
1
 40
1
 10
39.534743
 20
17.039167
 30
0.0
 10
39.538235
 20
15.989070
 30
0.0
 10
39.514291
 20
15.664927
 30
0.0
 10
39.433508
 20
15.670064
 30
0.0
  0
SPLINE
  5
196
100
AcDbEntity
  8
0
 62
7
100
AcDbSpline
 70
8
 71
3
 72
8
 73
4
 74
0
 40
0
 40
0
 40
0
 40
0
 40
1
 40
1
 40
1
 40
1
 10
39.433508
 20
15.670064
 30
0.0
 10
39.375300
 20
15.673763
 30
0.0
 10
39.099075
 20
15.726904
 30
0.0
 10
38.819675
 20
15.788147
 30
0.0
  0
LWPOLYLINE
  5
197
100
AcDbEntity
  8
0
 62
7
100
AcDbPolyline
 90
3
 70
0
 10
39.132917
 20
18.669000
 30
0.0
 10
39.530139
 20
18.415000
 30
0.0
 10
39.534743
 20
17.039167
 30
0.0
  0
LWPOLYLINE
  5
198
100
AcDbEntity
  8
0
 62
7
100
AcDbPolyline
 90
1
 70
1
 10
38.819675
 20
15.788147
 30
0.0
  0
SPLINE
  5
199
100
AcDbEntity
  8
0
 62
7
100
AcDbSpline
 70
8
 71
3
 72
8
 73
4
 74
0
 40
0
 40
0
 40
0
 40
0
 40
1
 40
1
 40
1
 40
1
 10
41.554419
 20
18.669000
 30
0.0
 10
41.862798
 20
18.866191
 30
0.0
 10
42.016590
 20
19.050888
 30
0.0
 10
42.242049
 20
19.494810
 30
0.0
  0
SPLINE
  5
19a
100
AcDbEntity
  8
0
 62
7
100
AcDbSpline
 70
8
 71
3
 72
8
 73
4
 74
0
 40
0
 40
0
 40
0
 40
0
 40
1
 40
1
 40
1
 40
1
 10
42.242049
 20
19.494810
 30
0.0
 10
42.500526
 20
20.003742
 30
0.0
 10
42.533102
 20
20.143395
 30
0.0
 10
42.538290
 20
20.764810
 30
0.0
  0
SPLINE
  5
19b
100
AcDbEntity
  8
0
 62
7
100
AcDbSpline
 70
8
 71
3
 72
8
 73
4
 74
0
 40
0
 40
0
 40
0
 40
0
 40
1
 40
1
 40
1
 40
1
 10
42.538290
 20
20.764810
 30
0.0
 10
42.546175
 20
21.708473
 30
0.0
 10
42.350605
 20
22.258130
 30
0.0
 10
41.817176
 20
22.791559
 30
0.0
  0
SPLINE
  5
19c
100
AcDbEntity
  8
0
 62
7
100
AcDbSpline
 70
8
 71
3
 72
8
 73
4
 74
0
 40
0
 40
0
 40
0
 40
0
 40
1
 40
1
 40
1
 40
1
 10
41.817176
 20
22.791559
 30
0.0
 10
41.593259
 20
23.015468
 30
0.0
 10
41.351097
 20
23.198667
 30
0.0
 10
41.279030
 20
23.198667
 30
0.0
  0
SPLINE
  5
19d
100
AcDbEntity
  8
0
 62
7
100
AcDbSpline
 70
8
 71
3
 72
8
 73
4
 74
0
 40
0
 40
0
 40
0
 40
0
 40
1
 40
1
 40
1
 40
1
 10
41.279030
 20
23.198667
 30
0.0
 10
41.165878
 20
23.198667
 30
0.0
 10
41.147997
 20
23.396079
 30
0.0
 10
41.147997
 20
24.645442
 30
0.0
  0
LWPOLYLINE
  5
19e
100
AcDbEntity
  8
0
 62
7
100
AcDbPolyline
 90
3
 70
0
 10
41.152596
 20
17.038166
 30
0.0
 10
41.157200
 20
18.415000
 30
0.0
 10
41.554419
 20
18.669000
 30
0.0
  0
SPLINE
  5
19f
100
AcDbEntity
  8
0
 62
7
100
AcDbSpline
 70
8
 71
3
 72
8
 73
4
 74
0
 40
0
 40
0
 40
0
 40
0
 40
1
 40
1
 40
1
 40
1
 10
41.507831
 20
26.036980
 30
0.0
 10
43.013839
 20
25.805796
 30
0.0
 10
44.335711
 20
25.011014
 30
0.0
 10
45.064400
 20
23.898573
 30
0.0
  0
SPLINE
  5
1a0
100
AcDbEntity
  8
0
 62
7
100
AcDbSpline
 70
8
 71
3
 72
8
 73
4
 74
0
 40
0
 40
0
 40
0
 40
0
 40
1
 40
1
 40
1
 40
1
 10
45.064400
 20
23.898573
 30
0.0
 10
45.518462
 20
23.205387
 30
0.0
 10
45.698185
 20
22.760675
 30
0.0
 10
45.854964
 20
21.942385
 30
0.0
  0
SPLINE
  5
1a1
100
AcDbEntity
  8
0
 62
7
100
AcDbSpline
 70
8
 71
3
 72
8
 73
4
 74
0
 40
0
 40
0
 40
0
 40
0
 40
1
 40
1
 40
1
 40
1
 10
45.854964
 20
21.942385
 30
0.0
 10
46.278408
 20
19.732276
 30
0.0
 10
45.381267
 20
17.551865
 30
0.0
 10
43.602518
 20
16.468038
 30
0.0
  0
SPLINE
  5
1a2
100
AcDbEntity
  8
0
 62
7
100
AcDbSpline
 70
8
 71
3
 72
8
 73
4
 74
0
 40
0
 40
0
 40
0
 40
0
 40
1
 40
1
 40
1
 40
1
 10
43.602518
 20
16.468038
 30
0.0
 10
43.103064
 20
16.163710
 30
0.0
 10
42.095497
 20
15.801231
 30
0.0
 10
41.507831
 20
15.714462
 30
0.0
  0
LWPOLYLINE
  5
1a3
100
AcDbEntity
  8
0
 62
7
100
AcDbPolyline
 90
3
 70
0
 10
41.147997
 20
24.645442
 30
0.0
 10
41.147997
 20
26.092217
 30
0.0
 10
41.507831
 20
26.036980
 30
0.0
  0
LWPOLYLINE
  5
1a4
100
AcDbEntity
  8
0
 62
7
100
AcDbPolyline
 90
3
 70
0
 10
41.507831
 20
15.714462
 30
0.0
 10
41.147997
 20
15.661332
 30
0.0
 10
41.152596
 20
17.038166
 30
0.0
  0
LWPOLYLINE
  5
1a5
100
AcDbEntity
  8
0
 62
7
100
AcDbPolyline
 90
8
 70
1
 10
22.605999
 20
22.394333
 30
0.0
 10
22.605999
 20
29.040667
 30
0.0
 10
24.341666
 20
29.040667
 30
0.0
 10
26.077332
 20
29.040667
 30
0.0
 10
26.077332
 20
22.394333
 30
0.0
 10
26.077332
 20
15.748000
 30
0.0
 10
24.341666
 20
15.748000
 30
0.0
 10
22.605999
 20
15.748000
 30
0.0
  0
SPLINE
  5
1a6
100
AcDbEntity
  8
0
 62
7
100
AcDbSpline
 70
8
 71
3
 72
8
 73
4
 74
0
 40
0
 40
0
 40
0
 40
0
 40
1
 40
1
 40
1
 40
1
 10
28.147499
 20
22.182667
 30
0.0
 10
29.602449
 20
22.182667
 30
0.0
 10
30.406488
 20
22.803013
 30
0.0
 10
30.532940
 20
24.023125
 30
0.0
  0
SPLINE
  5
1a7
100
AcDbEntity
  8
0
 62
7
100
AcDbSpline
 70
8
 71
3
 72
8
 73
4
 74
0
 40
0
 40
0
 40
0
 40
0
 40
1
 40
1
 40
1
 40
1
 10
30.532940
 20
24.023125
 30
0.0
 10
30.673426
 20
25.378658
 30
0.0
 10
29.937131
 20
26.163843
 30
0.0
 10
28.405902
 20
26.291394
 30
0.0
  0
LWPOLYLINE
  5
1a8
100
AcDbEntity
  8
0
 62
7
100
AcDbPolyline
 90
3
 70
0
 10
27.686000
 20
20.777519
 30
0.0
 10
27.686000
 20
22.182667
 30
0.0
 10
28.147499
 20
22.182667
 30
0.0
  0
SPLINE
  5
1a9
100
AcDbEntity
  8
0
 62
7
100
AcDbSpline
 70
8
 71
3
 72
8
 73
4
 74
0
 40
0
 40
0
 40
0
 40
0
 40
1
 40
1
 40
1
 40
1
 10
28.807833
 20
29.017716
 30
0.0
 10
30.388989
 20
28.954236
 30
0.0
 10
31.363843
 20
28.654486
 30
0.0
 10
32.308363
 20
27.941365
 30
0.0
  0
SPLINE
  5
1aa
100
AcDbEntity
  8
0
 62
7
100
AcDbSpline
 70
8
 71
3
 72
8
 73
4
 74
0
 40
0
 40
0
 40
0
 40
0
 40
1
 40
1
 40
1
 40
1
 10
32.308363
 20
27.941365
 30
0.0
 10
34.258792
 20
26.468777
 30
0.0
 10
34.378535
 20
22.680990
 30
0.0
 10
32.533000
 20
20.835456
 30
0.0
  0
SPLINE
  5
1ab
100
AcDbEntity
  8
0
 62
7
100
AcDbSpline
 70
8
 71
3
 72
8
 73
4
 74
0
 40
0
 40
0
 40
0
 40
0
 40
1
 40
1
 40
1
 40
1
 10
32.533000
 20
20.835456
 30
0.0
 10
31.659986
 20
19.962440
 30
0.0
 10
30.478375
 20
19.539674
 30
0.0
 10
28.596167
 20
19.426903
 30
0.0
  0
LWPOLYLINE
  5
1ac
100
AcDbEntity
  8
0
 62
7
100
AcDbPolyline
 90
5
 70
0
 10
28.405902
 20
26.291394
 30
0.0
 10
27.686000
 20
26.351361
 30
0.0
 10
27.686000
 20
27.707059
 30
0.0
 10
27.686000
 20
29.062756
 30
0.0
 10
28.807833
 20
29.017716
 30
0.0
  0
SPLINE
  5
1ad
100
AcDbEntity
  8
0
 62
7
100
AcDbSpline
 70
8
 71
3
 72
8
 73
4
 74
0
 40
0
 40
0
 40
0
 40
0
 40
1
 40
1
 40
1
 40
1
 10
10.204840
 20
23.723165
 30
0.0
 10
9.949587
 20
23.910191
 30
0.0
 10
9.824522
 20
24.091426
 30
0.0
 10
9.685207
 20
24.476177
 30
0.0
  0
SPLINE
  5
1ae
100
AcDbEntity
  8
0
 62
7
100
AcDbSpline
 70
8
 71
3
 72
8
 73
4
 74
0
 40
0
 40
0
 40
0
 40
0
 40
1
 40
1
 40
1
 40
1
 10
9.685207
 20
24.476177
 30
0.0
 10
9.584297
 20
24.754864
 30
0.0
 10
9.308897
 20
25.297332
 30
0.0
 10
9.073209
 20
25.681661
 30
0.0
  0
SPLINE
  5
1af
100
AcDbEntity
  8
0
 62
7
100
AcDbSpline
 70
8
 71
3
 72
8
 73
4
 74
0
 40
0
 40
0
 40
0
 40
0
 40
1
 40
1
 40
1
 40
1
 10
9.073209
 20
25.681661
 30
0.0
 10
8.434955
 20
26.722440
 30
0.0
 10
8.214445
 20
27.243557
 30
0.0
 10
8.213493
 20
27.713375
 30
0.0
  0
SPLINE
  5
1b0
100
AcDbEntity
  8
0
 62
7
100
AcDbSpline
 70
8
 71
3
 72
8
 73
4
 74
0
 40
0
 40
0
 40
0
 40
0
 40
1
 40
1
 40
1
 40
1
 10
8.213493
 20
27.713375
 30
0.0
 10
8.212806
 20
28.056416
 30
0.0
 10
8.188961
 20
28.117216
 30
0.0
 10
8.064500
 20
28.093414
 30
0.0
  0
SPLINE
  5
1b1
100
AcDbEntity
  8
0
 62
7
100
AcDbSpline
 70
8
 71
3
 72
8
 73
4
 74
0
 40
0
 40
0
 40
0
 40
0
 40
1
 40
1
 40
1
 40
1
 10
8.064500
 20
28.093414
 30
0.0
 10
7.872512
 20
28.056697
 30
0.0
 10
7.810426
 20
27.638830
 30
0.0
 10
7.892188
 20
26.933680
 30
0.0
  0
SPLINE
  5
1b2
100
AcDbEntity
  8
0
 62
7
100
AcDbSpline
 70
8
 71
3
 72
8
 73
4
 74
0
 40
0
 40
0
 40
0
 40
0
 40
1
 40
1
 40
1
 40
1
 10
7.892188
 20
26.933680
 30
0.0
 10
7.936563
 20
26.550976
 30
0.0
 10
8.090621
 20
26.097244
 30
0.0
 10
8.419523
 20
25.380574
 30
0.0
  0
SPLINE
  5
1b3
100
AcDbEntity
  8
0
 62
7
100
AcDbSpline
 70
8
 71
3
 72
8
 73
4
 74
0
 40
0
 40
0
 40
0
 40
0
 40
1
 40
1
 40
1
 40
1
 10
8.419523
 20
25.380574
 30
0.0
 10
8.747070
 20
24.666860
 30
0.0
 10
8.843325
 20
24.383794
 30
0.0
 10
8.745740
 20
24.421241
 30
0.0
  0
SPLINE
  5
1b4
100
AcDbEntity
  8
0
 62
7
100
AcDbSpline
 70
8
 71
3
 72
8
 73
4
 74
0
 40
0
 40
0
 40
0
 40
0
 40
1
 40
1
 40
1
 40
1
 10
8.745740
 20
24.421241
 30
0.0
 10
8.491573
 20
24.518774
 30
0.0
 10
7.346996
 20
24.650616
 30
0.0
 10
6.994456
 20
24.622968
 30
0.0
  0
LWPOLYLINE
  5
1b5
100
AcDbEntity
  8
0
 62
7
100
AcDbPolyline
 90
3
 70
0
 10
28.596167
 20
19.426903
 30
0.0
 10
27.686000
 20
19.372372
 30
0.0
 10
27.686000
 20
20.777519
 30
0.0
  0
SPLINE
  5
1b6
100
AcDbEntity
  8
0
 62
7
100
AcDbSpline
 70
8
 71
3
 72
8
 73
4
 74
0
 40
0
 40
0
 40
0
 40
0
 40
1
 40
1
 40
1
 40
1
 10
6.621448
 20
25.112420
 30
0.0
 10
6.566434
 20
26.254848
 30
0.0
 10
7.134026
 20
27.814002
 30
0.0
 10
7.925321
 20
28.694113
 30
0.0
  0
SPLINE
  5
1b7
100
AcDbEntity
  8
0
 62
7
100
AcDbSpline
 70
8
 71
3
 72
8
 73
4
 74
0
 40
0
 40
0
 40
0
 40
0
 40
1
 40
1
 40
1
 40
1
 10
7.925321
 20
28.694113
 30
0.0
 10
8.344170
 20
29.159974
 30
0.0
 10
8.670206
 20
29.397656
 30
0.0
 10
8.584686
 20
29.174793
 30
0.0
  0
SPLINE
  5
1b8
100
AcDbEntity
  8
0
 62
7
100
AcDbSpline
 70
8
 71
3
 72
8
 73
4
 74
0
 40
0
 40
0
 40
0
 40
0
 40
1
 40
1
 40
1
 40
1
 10
8.584686
 20
29.174793
 30
0.0
 10
8.507972
 20
28.974881
 30
0.0
 10
8.719643
 20
28.095707
 30
0.0
 10
8.934109
 20
27.723463
 30
0.0
  0
SPLINE
  5
1b9
100
AcDbEntity
  8
0
 62
7
100
AcDbSpline
 70
8
 71
3
 72
8
 73
4
 74
0
 40
0
 40
0
 40
0
 40
0
 40
1
 40
1
 40
1
 40
1
 10
8.934109
 20
27.723463
 30
0.0
 10
9.184977
 20
27.288040
 30
0.0
 10
9.695046
 20
26.817511
 30
0.0
 10
10.518669
 20
26.261735
 30
0.0
  0
SPLINE
  5
1ba
100
AcDbEntity
  8
0
 62
7
100
AcDbSpline
 70
8
 71
3
 72
8
 73
4
 74
0
 40
0
 40
0
 40
0
 40
0
 40
1
 40
1
 40
1
 40
1
 10
10.518669
 20
26.261735
 30
0.0
 10
11.289575
 20
25.741533
 30
0.0
 10
11.668739
 20
25.281641
 30
0.0
 10
11.851176
 20
24.645523
 30
0.0
  0
SPLINE
  5
1bb
100
AcDbEntity
  8
0
 62
7
100
AcDbSpline
 70
8
 71
3
 72
8
 73
4
 74
0
 40
0
 40
0
 40
0
 40
0
 40
1
 40
1
 40
1
 40
1
 10
11.851176
 20
24.645523
 30
0.0
 10
11.910449
 20
24.438848
 30
0.0
 10
11.865156
 20
24.388276
 30
0.0
 10
11.228048
 20
23.949753
 30
0.0
  0
LWPOLYLINE
  5
1bc
100
AcDbEntity
  8
0
 62
7
100
AcDbPolyline
 90
3
 70
0
 10
6.994456
 20
24.622968
 30
0.0
 10
6.646333
 20
24.595667
 30
0.0
 10
6.621448
 20
25.112420
 30
0.0
  0
LWPOLYLINE
  5
1bd
100
AcDbEntity
  8
0
 62
7
100
AcDbPolyline
 90
3
 70
0
 10
11.228048
 20
23.949753
 30
0.0
 10
10.541000
 20
23.476858
 30
0.0
 10
10.204840
 20
23.723165
 30
0.0
  0
ENDSEC
  0
SECTION
  2
OBJECTS
  0
DICTIONARY
  5
C
330
0
100
AcDbDictionary
  3
ACAD_GROUP
350
D
  3
ACAD_MLINESTYLE
350
17
  0
DICTIONARY
  5
D
330
C
100
AcDbDictionary
  0
DICTIONARY
  5
1A
330
C
100
AcDbDictionary
  0
DICTIONARY
  5
17
330
C
100
AcDbDictionary
  3
STANDARD
350
18
  0
DICTIONARY
  5
19
330
C
100
AcDbDictionary
  0
ENDSEC
  0
EOF
