M48
;DRILL file {KiCad 4.0.7} date 2017 November 25, Saturday 17:02:18
;FORMAT={3:3/ absolute / metric / suppress leading zeros}
FMAT,2
METRIC,TZ
T1C0.300
T2C0.500
T3C0.900
T4C1.000
T5C3.200
%
G90
G05
M71
T1
X38000Y-39500
X38500Y-46500
X42962Y-46538
X42975Y-45525
X42987Y-44513
X46000Y-56500
X56000Y-40000
X57000Y-41000
X61000Y-49000
X62500Y-37500
X64500Y-52500
T2
X31500Y-64500
X32000Y-37500
X37000Y-36000
X37000Y-38000
X38000Y-74000
X39000Y-57000
X40000Y-68500
X44000Y-36000
X44000Y-50500
X44000Y-57000
X47500Y-42000
X47500Y-44000
X47500Y-46000
X48000Y-36000
X49500Y-42000
X49500Y-44000
X49500Y-46000
X50000Y-69000
X51500Y-42000
X51500Y-44000
X51500Y-46000
X52000Y-36000
X56000Y-36000
X56000Y-44000
X60500Y-67500
X61000Y-36000
X63000Y-49110
X63000Y-53000
X66000Y-36000
X67000Y-45000
X68000Y-76000
X69000Y-67000
X70000Y-78000
X71000Y-36000
X71000Y-61000
X72000Y-67000
T3
X67460Y-40000
X70000Y-40000
X72540Y-40000
T4
X32500Y-41500
X32500Y-44040
X32500Y-46580
X32500Y-49120
X32500Y-51660
X32500Y-54200
X41460Y-78000
X44000Y-78000
X50960Y-73500
X50960Y-78000
X53500Y-73500
X53500Y-78000
X60500Y-78000
X66500Y-49460
X66500Y-52000
X67960Y-72000
X70500Y-72000
X77000Y-44920
X77000Y-47460
X77000Y-50000
X77000Y-52540
X77000Y-55080
X77000Y-62000
X77000Y-64540
X77000Y-67080
T5
X33500Y-33500
X33500Y-76500
X76500Y-33500
X76500Y-76500
T0
M30
