G04 #@! TF.FileFunction,Soldermask,Top*
%FSLAX46Y46*%
G04 Gerber Fmt 4.6, Leading zero omitted, Abs format (unit mm)*
G04 Created by KiCad (PCBNEW 4.0.7) date 2017 November 25, Saturday 16:53:06*
%MOMM*%
%LPD*%
G01*
G04 APERTURE LIST*
%ADD10C,0.100000*%
%ADD11O,2.900000X1.300000*%
%ADD12O,1.300000X2.900000*%
%ADD13R,6.400000X6.400000*%
%ADD14R,1.150000X1.600000*%
%ADD15R,1.600000X1.150000*%
%ADD16R,1.600000X1.300000*%
%ADD17R,1.300000X1.600000*%
%ADD18R,2.400000X2.000000*%
%ADD19R,1.960000X1.050000*%
%ADD20C,3.600000*%
%ADD21R,4.200000X2.400000*%
%ADD22R,1.900000X2.400000*%
%ADD23R,1.650000X1.900000*%
%ADD24R,2.200000X2.200000*%
%ADD25C,2.200000*%
%ADD26R,1.950000X1.000000*%
%ADD27R,1.200000X2.300000*%
%ADD28R,2.100000X2.100000*%
%ADD29O,2.100000X2.100000*%
G04 APERTURE END LIST*
D10*
D11*
X58800000Y-36300000D03*
X58800000Y-37570000D03*
X58800000Y-38840000D03*
X58800000Y-40110000D03*
X58800000Y-41380000D03*
X58800000Y-42650000D03*
X58800000Y-43920000D03*
X58800000Y-45190000D03*
X58800000Y-46460000D03*
X58800000Y-47730000D03*
X58800000Y-49000000D03*
X58800000Y-50270000D03*
X58800000Y-51540000D03*
X58800000Y-52810000D03*
D12*
X55515000Y-54300000D03*
X54245000Y-54300000D03*
X52975000Y-54300000D03*
X51705000Y-54300000D03*
X50435000Y-54300000D03*
X49165000Y-54300000D03*
X47895000Y-54300000D03*
X46625000Y-54300000D03*
X45355000Y-54300000D03*
X44085000Y-54300000D03*
D11*
X40800000Y-52810000D03*
X40800000Y-51540000D03*
X40800000Y-50270000D03*
X40800000Y-49000000D03*
X40800000Y-47730000D03*
X40800000Y-46460000D03*
X40800000Y-45190000D03*
X40800000Y-43920000D03*
X40800000Y-42650000D03*
X40800000Y-41380000D03*
X40800000Y-40110000D03*
X40800000Y-38840000D03*
X40800000Y-37570000D03*
X40800000Y-36300000D03*
D13*
X49500000Y-44000000D03*
D14*
X38000000Y-37950000D03*
X38000000Y-36050000D03*
D15*
X53950000Y-70000000D03*
X52050000Y-70000000D03*
D14*
X59000000Y-66450000D03*
X59000000Y-64550000D03*
D15*
X67950000Y-60500000D03*
X66050000Y-60500000D03*
D16*
X65100000Y-42500000D03*
X62900000Y-42500000D03*
X62400000Y-67000000D03*
X64600000Y-67000000D03*
X37600000Y-58000000D03*
X35400000Y-58000000D03*
X37600000Y-55000000D03*
X35400000Y-55000000D03*
D17*
X69500000Y-48400000D03*
X69500000Y-50600000D03*
X71500000Y-46900000D03*
X71500000Y-49100000D03*
D18*
X37200000Y-67500000D03*
X31800000Y-67500000D03*
X37200000Y-61500000D03*
X31800000Y-61500000D03*
D19*
X65650000Y-56550000D03*
X65650000Y-57500000D03*
X65650000Y-58450000D03*
X68350000Y-58450000D03*
X68350000Y-56550000D03*
X68350000Y-57500000D03*
D20*
X76500000Y-76500000D03*
X33500000Y-76500000D03*
X33500000Y-33500000D03*
X76500000Y-33500000D03*
D16*
X58100000Y-56500000D03*
X55900000Y-56500000D03*
D17*
X35500000Y-44400000D03*
X35500000Y-46600000D03*
D21*
X54000000Y-61350000D03*
D22*
X54000000Y-67650000D03*
X56300000Y-67650000D03*
X51700000Y-67650000D03*
D23*
X48000000Y-71250000D03*
X48000000Y-68750000D03*
D16*
X43600000Y-67500000D03*
X41400000Y-67500000D03*
D24*
X72540000Y-40000000D03*
D25*
X70000000Y-40000000D03*
X67460000Y-40000000D03*
D16*
X65100000Y-39000000D03*
X62900000Y-39000000D03*
D26*
X45200000Y-73905000D03*
X45200000Y-72635000D03*
X45200000Y-71365000D03*
X45200000Y-70095000D03*
X39800000Y-70095000D03*
X39800000Y-71365000D03*
X39800000Y-72635000D03*
X39800000Y-73905000D03*
D27*
X64450000Y-69500000D03*
X62550000Y-69500000D03*
X63500000Y-72500000D03*
D28*
X53500000Y-78000000D03*
D29*
X50960000Y-78000000D03*
D28*
X77000000Y-62000000D03*
D29*
X77000000Y-64540000D03*
X77000000Y-67080000D03*
D28*
X77000000Y-44920000D03*
D29*
X77000000Y-47460000D03*
X77000000Y-50000000D03*
X77000000Y-52540000D03*
X77000000Y-55080000D03*
D28*
X66500000Y-49460000D03*
D29*
X66500000Y-52000000D03*
D28*
X53500000Y-73500000D03*
D29*
X50960000Y-73500000D03*
D28*
X67960000Y-72000000D03*
D29*
X70500000Y-72000000D03*
D28*
X44000000Y-78000000D03*
D29*
X41460000Y-78000000D03*
D28*
X60500000Y-78000000D03*
X32500000Y-41500000D03*
D29*
X32500000Y-44040000D03*
X32500000Y-46580000D03*
X32500000Y-49120000D03*
X32500000Y-51660000D03*
X32500000Y-54200000D03*
M02*
