G04 #@! TF.FileFunction,Legend,Top*
%FSLAX46Y46*%
G04 Gerber Fmt 4.6, Leading zero omitted, Abs format (unit mm)*
G04 Created by KiCad (PCBNEW 4.0.7) date 2017 November 25, Saturday 16:53:06*
%MOMM*%
%LPD*%
G01*
G04 APERTURE LIST*
%ADD10C,0.100000*%
%ADD11C,0.150000*%
%ADD12C,0.500000*%
%ADD13C,0.120000*%
G04 APERTURE END LIST*
D10*
D11*
X50738095Y-75763429D02*
X51500000Y-75763429D01*
X53500000Y-75763429D02*
X54261905Y-75763429D01*
X53880953Y-76144381D02*
X53880953Y-75382476D01*
X55833334Y-75620571D02*
X55976191Y-75668190D01*
X56023810Y-75715810D01*
X56071429Y-75811048D01*
X56071429Y-75953905D01*
X56023810Y-76049143D01*
X55976191Y-76096762D01*
X55880953Y-76144381D01*
X55500000Y-76144381D01*
X55500000Y-75144381D01*
X55833334Y-75144381D01*
X55928572Y-75192000D01*
X55976191Y-75239619D01*
X56023810Y-75334857D01*
X56023810Y-75430095D01*
X55976191Y-75525333D01*
X55928572Y-75572952D01*
X55833334Y-75620571D01*
X55500000Y-75620571D01*
X56452381Y-75858667D02*
X56928572Y-75858667D01*
X56357143Y-76144381D02*
X56690476Y-75144381D01*
X57023810Y-76144381D01*
X57214286Y-75144381D02*
X57785715Y-75144381D01*
X57500000Y-76144381D02*
X57500000Y-75144381D01*
X34547619Y-48714286D02*
X35547619Y-48714286D01*
X35547619Y-49095239D01*
X35500000Y-49190477D01*
X35452381Y-49238096D01*
X35357143Y-49285715D01*
X35214286Y-49285715D01*
X35119048Y-49238096D01*
X35071429Y-49190477D01*
X35023810Y-49095239D01*
X35023810Y-48714286D01*
X34547619Y-50285715D02*
X35023810Y-49952381D01*
X34547619Y-49714286D02*
X35547619Y-49714286D01*
X35547619Y-50095239D01*
X35500000Y-50190477D01*
X35452381Y-50238096D01*
X35357143Y-50285715D01*
X35214286Y-50285715D01*
X35119048Y-50238096D01*
X35071429Y-50190477D01*
X35023810Y-50095239D01*
X35023810Y-49714286D01*
X35547619Y-50904762D02*
X35547619Y-51095239D01*
X35500000Y-51190477D01*
X35404762Y-51285715D01*
X35214286Y-51333334D01*
X34880952Y-51333334D01*
X34690476Y-51285715D01*
X34595238Y-51190477D01*
X34547619Y-51095239D01*
X34547619Y-50904762D01*
X34595238Y-50809524D01*
X34690476Y-50714286D01*
X34880952Y-50666667D01*
X35214286Y-50666667D01*
X35404762Y-50714286D01*
X35500000Y-50809524D01*
X35547619Y-50904762D01*
X35500000Y-52285715D02*
X35547619Y-52190477D01*
X35547619Y-52047620D01*
X35500000Y-51904762D01*
X35404762Y-51809524D01*
X35309524Y-51761905D01*
X35119048Y-51714286D01*
X34976190Y-51714286D01*
X34785714Y-51761905D01*
X34690476Y-51809524D01*
X34595238Y-51904762D01*
X34547619Y-52047620D01*
X34547619Y-52142858D01*
X34595238Y-52285715D01*
X34642857Y-52333334D01*
X34976190Y-52333334D01*
X34976190Y-52142858D01*
X62952381Y-77928571D02*
X63095238Y-77976190D01*
X63142857Y-78023810D01*
X63190476Y-78119048D01*
X63190476Y-78261905D01*
X63142857Y-78357143D01*
X63095238Y-78404762D01*
X63000000Y-78452381D01*
X62619047Y-78452381D01*
X62619047Y-77452381D01*
X62952381Y-77452381D01*
X63047619Y-77500000D01*
X63095238Y-77547619D01*
X63142857Y-77642857D01*
X63142857Y-77738095D01*
X63095238Y-77833333D01*
X63047619Y-77880952D01*
X62952381Y-77928571D01*
X62619047Y-77928571D01*
X63571428Y-78166667D02*
X64047619Y-78166667D01*
X63476190Y-78452381D02*
X63809523Y-77452381D01*
X64142857Y-78452381D01*
X64333333Y-77452381D02*
X64904762Y-77452381D01*
X64619047Y-78452381D02*
X64619047Y-77452381D01*
X65000000Y-78547619D02*
X65761905Y-78547619D01*
X65952381Y-78404762D02*
X66095238Y-78452381D01*
X66333334Y-78452381D01*
X66428572Y-78404762D01*
X66476191Y-78357143D01*
X66523810Y-78261905D01*
X66523810Y-78166667D01*
X66476191Y-78071429D01*
X66428572Y-78023810D01*
X66333334Y-77976190D01*
X66142857Y-77928571D01*
X66047619Y-77880952D01*
X66000000Y-77833333D01*
X65952381Y-77738095D01*
X65952381Y-77642857D01*
X66000000Y-77547619D01*
X66047619Y-77500000D01*
X66142857Y-77452381D01*
X66380953Y-77452381D01*
X66523810Y-77500000D01*
X66952381Y-77928571D02*
X67285715Y-77928571D01*
X67428572Y-78452381D02*
X66952381Y-78452381D01*
X66952381Y-77452381D01*
X67428572Y-77452381D01*
X67857143Y-78452381D02*
X67857143Y-77452381D01*
X68428572Y-78452381D01*
X68428572Y-77452381D01*
X68857143Y-78404762D02*
X69000000Y-78452381D01*
X69238096Y-78452381D01*
X69333334Y-78404762D01*
X69380953Y-78357143D01*
X69428572Y-78261905D01*
X69428572Y-78166667D01*
X69380953Y-78071429D01*
X69333334Y-78023810D01*
X69238096Y-77976190D01*
X69047619Y-77928571D01*
X68952381Y-77880952D01*
X68904762Y-77833333D01*
X68857143Y-77738095D01*
X68857143Y-77642857D01*
X68904762Y-77547619D01*
X68952381Y-77500000D01*
X69047619Y-77452381D01*
X69285715Y-77452381D01*
X69428572Y-77500000D01*
X66166667Y-69952381D02*
X66166667Y-68952381D01*
X66404762Y-70047619D02*
X67166667Y-70047619D01*
X67357143Y-69904762D02*
X67500000Y-69952381D01*
X67738096Y-69952381D01*
X67833334Y-69904762D01*
X67880953Y-69857143D01*
X67928572Y-69761905D01*
X67928572Y-69666667D01*
X67880953Y-69571429D01*
X67833334Y-69523810D01*
X67738096Y-69476190D01*
X67547619Y-69428571D01*
X67452381Y-69380952D01*
X67404762Y-69333333D01*
X67357143Y-69238095D01*
X67357143Y-69142857D01*
X67404762Y-69047619D01*
X67452381Y-69000000D01*
X67547619Y-68952381D01*
X67785715Y-68952381D01*
X67928572Y-69000000D01*
X68357143Y-69428571D02*
X68690477Y-69428571D01*
X68833334Y-69952381D02*
X68357143Y-69952381D01*
X68357143Y-68952381D01*
X68833334Y-68952381D01*
X69261905Y-69952381D02*
X69261905Y-68952381D01*
X69833334Y-69952381D01*
X69833334Y-68952381D01*
X70261905Y-69904762D02*
X70404762Y-69952381D01*
X70642858Y-69952381D01*
X70738096Y-69904762D01*
X70785715Y-69857143D01*
X70833334Y-69761905D01*
X70833334Y-69666667D01*
X70785715Y-69571429D01*
X70738096Y-69523810D01*
X70642858Y-69476190D01*
X70452381Y-69428571D01*
X70357143Y-69380952D01*
X70309524Y-69333333D01*
X70261905Y-69238095D01*
X70261905Y-69142857D01*
X70309524Y-69047619D01*
X70357143Y-69000000D01*
X70452381Y-68952381D01*
X70690477Y-68952381D01*
X70833334Y-69000000D01*
X71452381Y-68952381D02*
X71642858Y-68952381D01*
X71738096Y-69000000D01*
X71833334Y-69095238D01*
X71880953Y-69285714D01*
X71880953Y-69619048D01*
X71833334Y-69809524D01*
X71738096Y-69904762D01*
X71642858Y-69952381D01*
X71452381Y-69952381D01*
X71357143Y-69904762D01*
X71261905Y-69809524D01*
X71214286Y-69619048D01*
X71214286Y-69285714D01*
X71261905Y-69095238D01*
X71357143Y-69000000D01*
X71452381Y-68952381D01*
X72880953Y-69952381D02*
X72547619Y-69476190D01*
X72309524Y-69952381D02*
X72309524Y-68952381D01*
X72690477Y-68952381D01*
X72785715Y-69000000D01*
X72833334Y-69047619D01*
X72880953Y-69142857D01*
X72880953Y-69285714D01*
X72833334Y-69380952D01*
X72785715Y-69428571D01*
X72690477Y-69476190D01*
X72309524Y-69476190D01*
X73952381Y-54714286D02*
X74952381Y-54476191D01*
X74238095Y-54285714D01*
X74952381Y-54095238D01*
X73952381Y-53857143D01*
X74666667Y-53523810D02*
X74666667Y-53047619D01*
X74952381Y-53619048D02*
X73952381Y-53285715D01*
X74952381Y-52952381D01*
X73952381Y-52761905D02*
X73952381Y-52190476D01*
X74952381Y-52476191D02*
X73952381Y-52476191D01*
X74428571Y-51857143D02*
X74428571Y-51523809D01*
X74952381Y-51380952D02*
X74952381Y-51857143D01*
X73952381Y-51857143D01*
X73952381Y-51380952D01*
X74952381Y-50380952D02*
X74476190Y-50714286D01*
X74952381Y-50952381D02*
X73952381Y-50952381D01*
X73952381Y-50571428D01*
X74000000Y-50476190D01*
X74047619Y-50428571D01*
X74142857Y-50380952D01*
X74285714Y-50380952D01*
X74380952Y-50428571D01*
X74428571Y-50476190D01*
X74476190Y-50571428D01*
X74476190Y-50952381D01*
X75047619Y-50190476D02*
X75047619Y-49428571D01*
X74952381Y-48714285D02*
X74952381Y-49190476D01*
X73952381Y-49190476D01*
X74428571Y-48380952D02*
X74428571Y-48047618D01*
X74952381Y-47904761D02*
X74952381Y-48380952D01*
X73952381Y-48380952D01*
X73952381Y-47904761D01*
X73952381Y-47619047D02*
X74952381Y-47285714D01*
X73952381Y-46952380D01*
X74428571Y-46619047D02*
X74428571Y-46285713D01*
X74952381Y-46142856D02*
X74952381Y-46619047D01*
X73952381Y-46619047D01*
X73952381Y-46142856D01*
X74952381Y-45238094D02*
X74952381Y-45714285D01*
X73952381Y-45714285D01*
X75452381Y-67666666D02*
X74452381Y-67666666D01*
X74928571Y-67666666D02*
X74928571Y-67095237D01*
X75452381Y-67095237D02*
X74452381Y-67095237D01*
X74452381Y-66619047D02*
X75261905Y-66619047D01*
X75357143Y-66571428D01*
X75404762Y-66523809D01*
X75452381Y-66428571D01*
X75452381Y-66238094D01*
X75404762Y-66142856D01*
X75357143Y-66095237D01*
X75261905Y-66047618D01*
X74452381Y-66047618D01*
X75452381Y-65571428D02*
X74452381Y-65571428D01*
X75166667Y-65238094D01*
X74452381Y-64904761D01*
X75452381Y-64904761D01*
X75452381Y-64428571D02*
X74452381Y-64428571D01*
X75452381Y-63952381D02*
X74452381Y-63952381D01*
X74452381Y-63714286D01*
X74500000Y-63571428D01*
X74595238Y-63476190D01*
X74690476Y-63428571D01*
X74880952Y-63380952D01*
X75023810Y-63380952D01*
X75214286Y-63428571D01*
X75309524Y-63476190D01*
X75404762Y-63571428D01*
X75452381Y-63714286D01*
X75452381Y-63952381D01*
X75452381Y-62952381D02*
X74452381Y-62952381D01*
X74452381Y-62619048D02*
X74452381Y-62047619D01*
X75452381Y-62333334D02*
X74452381Y-62333334D01*
X74976190Y-61523810D02*
X75452381Y-61523810D01*
X74452381Y-61857143D02*
X74976190Y-61523810D01*
X74452381Y-61190476D01*
D12*
X40177981Y-34946000D02*
G75*
G03X40177981Y-34946000I-283981J0D01*
G01*
D11*
X58800000Y-34800000D02*
X40800000Y-34800000D01*
X40800000Y-28800000D02*
X40800000Y-54300000D01*
X58800000Y-28800000D02*
X58800000Y-54300000D01*
X58800000Y-54300000D02*
X40800000Y-54300000D01*
X58800000Y-28800000D02*
X40800000Y-28800000D01*
X37400000Y-37350000D02*
X37400000Y-36650000D01*
X38600000Y-36650000D02*
X38600000Y-37350000D01*
X53350000Y-70600000D02*
X52650000Y-70600000D01*
X52650000Y-69400000D02*
X53350000Y-69400000D01*
X58400000Y-65850000D02*
X58400000Y-65150000D01*
X59600000Y-65150000D02*
X59600000Y-65850000D01*
X67350000Y-61100000D02*
X66650000Y-61100000D01*
X66650000Y-59900000D02*
X67350000Y-59900000D01*
X63500000Y-41825000D02*
X64500000Y-41825000D01*
X64500000Y-43175000D02*
X63500000Y-43175000D01*
X64000000Y-67675000D02*
X63000000Y-67675000D01*
X63000000Y-66325000D02*
X64000000Y-66325000D01*
X36000000Y-57325000D02*
X37000000Y-57325000D01*
X37000000Y-58675000D02*
X36000000Y-58675000D01*
X36000000Y-54325000D02*
X37000000Y-54325000D01*
X37000000Y-55675000D02*
X36000000Y-55675000D01*
X68825000Y-50000000D02*
X68825000Y-49000000D01*
X70175000Y-49000000D02*
X70175000Y-50000000D01*
X70825000Y-48500000D02*
X70825000Y-47500000D01*
X72175000Y-47500000D02*
X72175000Y-48500000D01*
X33100000Y-66800000D02*
X35900000Y-66800000D01*
X35900000Y-66800000D02*
X35900000Y-68200000D01*
X35900000Y-68200000D02*
X33100000Y-68200000D01*
X33100000Y-68200000D02*
X33100000Y-66800000D01*
X37500000Y-65750000D02*
X37500000Y-66400000D01*
X37500000Y-69250000D02*
X37500000Y-68600000D01*
X31500000Y-68600000D02*
X31500000Y-69250000D01*
X31500000Y-65750000D02*
X31500000Y-66400000D01*
X37500000Y-65750000D02*
X31500000Y-65750000D01*
X31500000Y-69250000D02*
X37500000Y-69250000D01*
X33100000Y-60800000D02*
X35900000Y-60800000D01*
X35900000Y-60800000D02*
X35900000Y-62200000D01*
X35900000Y-62200000D02*
X33100000Y-62200000D01*
X33100000Y-62200000D02*
X33100000Y-60800000D01*
X37500000Y-59750000D02*
X37500000Y-60400000D01*
X37500000Y-63250000D02*
X37500000Y-62600000D01*
X31500000Y-62600000D02*
X31500000Y-63250000D01*
X31500000Y-59750000D02*
X31500000Y-60400000D01*
X37500000Y-59750000D02*
X31500000Y-59750000D01*
X31500000Y-63250000D02*
X37500000Y-63250000D01*
D13*
X66100000Y-59110000D02*
X67900000Y-59110000D01*
X67900000Y-55890000D02*
X64950000Y-55890000D01*
D11*
X56500000Y-55825000D02*
X57500000Y-55825000D01*
X57500000Y-57175000D02*
X56500000Y-57175000D01*
X34825000Y-46000000D02*
X34825000Y-45000000D01*
X36175000Y-45000000D02*
X36175000Y-46000000D01*
D13*
X57410000Y-62590000D02*
X56150000Y-62590000D01*
X50590000Y-62590000D02*
X51850000Y-62590000D01*
X57410000Y-66350000D02*
X57410000Y-62590000D01*
X50590000Y-68600000D02*
X50590000Y-62590000D01*
X47150000Y-69500000D02*
X47150000Y-70500000D01*
X48850000Y-70500000D02*
X48850000Y-69500000D01*
X42000000Y-66820000D02*
X43000000Y-66820000D01*
X43000000Y-68180000D02*
X42000000Y-68180000D01*
D11*
X63500000Y-38325000D02*
X64500000Y-38325000D01*
X64500000Y-39675000D02*
X63500000Y-39675000D01*
X44575000Y-74575000D02*
X44575000Y-74525000D01*
X40425000Y-74575000D02*
X40425000Y-74430000D01*
X40425000Y-69425000D02*
X40425000Y-69570000D01*
X44575000Y-69425000D02*
X44575000Y-69570000D01*
X44575000Y-74575000D02*
X40425000Y-74575000D01*
X44575000Y-69425000D02*
X40425000Y-69425000D01*
X44575000Y-74525000D02*
X45975000Y-74525000D01*
D13*
X61920000Y-71760000D02*
X62850000Y-71760000D01*
X65080000Y-71760000D02*
X64150000Y-71760000D01*
X65080000Y-71760000D02*
X65080000Y-68600000D01*
X61920000Y-71760000D02*
X61920000Y-70300000D01*
X49630000Y-76670000D02*
X49630000Y-79330000D01*
X52230000Y-76670000D02*
X49630000Y-76670000D01*
X52230000Y-79330000D02*
X49630000Y-79330000D01*
X52230000Y-76670000D02*
X52230000Y-79330000D01*
X53500000Y-76670000D02*
X54830000Y-76670000D01*
X54830000Y-76670000D02*
X54830000Y-78000000D01*
X75670000Y-68410000D02*
X78330000Y-68410000D01*
X75670000Y-63270000D02*
X75670000Y-68410000D01*
X78330000Y-63270000D02*
X78330000Y-68410000D01*
X75670000Y-63270000D02*
X78330000Y-63270000D01*
X75670000Y-62000000D02*
X75670000Y-60670000D01*
X75670000Y-60670000D02*
X77000000Y-60670000D01*
X75670000Y-56410000D02*
X78330000Y-56410000D01*
X75670000Y-46190000D02*
X75670000Y-56410000D01*
X78330000Y-46190000D02*
X78330000Y-56410000D01*
X75670000Y-46190000D02*
X78330000Y-46190000D01*
X75670000Y-44920000D02*
X75670000Y-43590000D01*
X75670000Y-43590000D02*
X77000000Y-43590000D01*
X65170000Y-53330000D02*
X67830000Y-53330000D01*
X65170000Y-50730000D02*
X65170000Y-53330000D01*
X67830000Y-50730000D02*
X67830000Y-53330000D01*
X65170000Y-50730000D02*
X67830000Y-50730000D01*
X65170000Y-49460000D02*
X65170000Y-48130000D01*
X65170000Y-48130000D02*
X66500000Y-48130000D01*
X49630000Y-72170000D02*
X49630000Y-74830000D01*
X52230000Y-72170000D02*
X49630000Y-72170000D01*
X52230000Y-74830000D02*
X49630000Y-74830000D01*
X52230000Y-72170000D02*
X52230000Y-74830000D01*
X53500000Y-72170000D02*
X54830000Y-72170000D01*
X54830000Y-72170000D02*
X54830000Y-73500000D01*
X71830000Y-73330000D02*
X71830000Y-70670000D01*
X69230000Y-73330000D02*
X71830000Y-73330000D01*
X69230000Y-70670000D02*
X71830000Y-70670000D01*
X69230000Y-73330000D02*
X69230000Y-70670000D01*
X67960000Y-73330000D02*
X66630000Y-73330000D01*
X66630000Y-73330000D02*
X66630000Y-72000000D01*
X40130000Y-76670000D02*
X40130000Y-79330000D01*
X42730000Y-76670000D02*
X40130000Y-76670000D01*
X42730000Y-79330000D02*
X40130000Y-79330000D01*
X42730000Y-76670000D02*
X42730000Y-79330000D01*
X44000000Y-76670000D02*
X45330000Y-76670000D01*
X45330000Y-76670000D02*
X45330000Y-78000000D01*
X59170000Y-76670000D02*
X59170000Y-79330000D01*
X59230000Y-76670000D02*
X59170000Y-76670000D01*
X59230000Y-79330000D02*
X59170000Y-79330000D01*
X59230000Y-76670000D02*
X59230000Y-79330000D01*
X60500000Y-76670000D02*
X61830000Y-76670000D01*
X61830000Y-76670000D02*
X61830000Y-78000000D01*
X31170000Y-55530000D02*
X33830000Y-55530000D01*
X31170000Y-42770000D02*
X31170000Y-55530000D01*
X33830000Y-42770000D02*
X33830000Y-55530000D01*
X31170000Y-42770000D02*
X33830000Y-42770000D01*
X31170000Y-41500000D02*
X31170000Y-40170000D01*
X31170000Y-40170000D02*
X32500000Y-40170000D01*
D11*
X39404947Y-32779243D02*
X40214471Y-32779243D01*
X40309709Y-32731624D01*
X40357328Y-32684005D01*
X40404947Y-32588767D01*
X40404947Y-32398290D01*
X40357328Y-32303052D01*
X40309709Y-32255433D01*
X40214471Y-32207814D01*
X39404947Y-32207814D01*
X39500185Y-31779243D02*
X39452566Y-31731624D01*
X39404947Y-31636386D01*
X39404947Y-31398290D01*
X39452566Y-31303052D01*
X39500185Y-31255433D01*
X39595423Y-31207814D01*
X39690661Y-31207814D01*
X39833518Y-31255433D01*
X40404947Y-31826862D01*
X40404947Y-31207814D01*
X56319233Y-51884005D02*
X56319233Y-51407814D01*
X56604947Y-51979243D02*
X55604947Y-51645910D01*
X56604947Y-51312576D01*
X56604947Y-50979243D02*
X55604947Y-50979243D01*
X56223995Y-50503053D02*
X56223995Y-49741148D01*
X55604947Y-49407815D02*
X55604947Y-48836386D01*
X56604947Y-49122101D02*
X55604947Y-49122101D01*
X56604947Y-48503053D02*
X55604947Y-48503053D01*
X56604947Y-48074481D02*
X56081137Y-48074481D01*
X55985899Y-48122100D01*
X55938280Y-48217338D01*
X55938280Y-48360196D01*
X55985899Y-48455434D01*
X56033518Y-48503053D01*
X56604947Y-47598291D02*
X55938280Y-47598291D01*
X55604947Y-47598291D02*
X55652566Y-47645910D01*
X55700185Y-47598291D01*
X55652566Y-47550672D01*
X55604947Y-47598291D01*
X55700185Y-47598291D01*
X55938280Y-47122101D02*
X56604947Y-47122101D01*
X56033518Y-47122101D02*
X55985899Y-47074482D01*
X55938280Y-46979244D01*
X55938280Y-46836386D01*
X55985899Y-46741148D01*
X56081137Y-46693529D01*
X56604947Y-46693529D01*
X56604947Y-46217339D02*
X55604947Y-46217339D01*
X56223995Y-46122101D02*
X56604947Y-45836386D01*
X55938280Y-45836386D02*
X56319233Y-46217339D01*
X56557328Y-45026862D02*
X56604947Y-45122100D01*
X56604947Y-45312577D01*
X56557328Y-45407815D01*
X56462090Y-45455434D01*
X56081137Y-45455434D01*
X55985899Y-45407815D01*
X55938280Y-45312577D01*
X55938280Y-45122100D01*
X55985899Y-45026862D01*
X56081137Y-44979243D01*
X56176376Y-44979243D01*
X56271614Y-45455434D01*
X56604947Y-44550672D02*
X55938280Y-44550672D01*
X56128756Y-44550672D02*
X56033518Y-44503053D01*
X55985899Y-44455434D01*
X55938280Y-44360196D01*
X55938280Y-44264957D01*
X55557328Y-43217338D02*
X56843042Y-44074481D01*
X56081137Y-42884005D02*
X56081137Y-42550671D01*
X56604947Y-42407814D02*
X56604947Y-42884005D01*
X55604947Y-42884005D01*
X55604947Y-42407814D01*
X56557328Y-42026862D02*
X56604947Y-41931624D01*
X56604947Y-41741148D01*
X56557328Y-41645909D01*
X56462090Y-41598290D01*
X56414471Y-41598290D01*
X56319233Y-41645909D01*
X56271614Y-41741148D01*
X56271614Y-41884005D01*
X56223995Y-41979243D01*
X56128756Y-42026862D01*
X56081137Y-42026862D01*
X55985899Y-41979243D01*
X55938280Y-41884005D01*
X55938280Y-41741148D01*
X55985899Y-41645909D01*
X55938280Y-41169719D02*
X56938280Y-41169719D01*
X55985899Y-41169719D02*
X55938280Y-41074481D01*
X55938280Y-40884004D01*
X55985899Y-40788766D01*
X56033518Y-40741147D01*
X56128756Y-40693528D01*
X56414471Y-40693528D01*
X56509709Y-40741147D01*
X56557328Y-40788766D01*
X56604947Y-40884004D01*
X56604947Y-41074481D01*
X56557328Y-41169719D01*
X56604947Y-40264957D02*
X55938280Y-40264957D01*
X56128756Y-40264957D02*
X56033518Y-40217338D01*
X55985899Y-40169719D01*
X55938280Y-40074481D01*
X55938280Y-39979242D01*
X56557328Y-39264956D02*
X56604947Y-39360194D01*
X56604947Y-39550671D01*
X56557328Y-39645909D01*
X56462090Y-39693528D01*
X56081137Y-39693528D01*
X55985899Y-39645909D01*
X55938280Y-39550671D01*
X55938280Y-39360194D01*
X55985899Y-39264956D01*
X56081137Y-39217337D01*
X56176376Y-39217337D01*
X56271614Y-39693528D01*
X56557328Y-38836385D02*
X56604947Y-38741147D01*
X56604947Y-38550671D01*
X56557328Y-38455432D01*
X56462090Y-38407813D01*
X56414471Y-38407813D01*
X56319233Y-38455432D01*
X56271614Y-38550671D01*
X56271614Y-38693528D01*
X56223995Y-38788766D01*
X56128756Y-38836385D01*
X56081137Y-38836385D01*
X55985899Y-38788766D01*
X55938280Y-38693528D01*
X55938280Y-38550671D01*
X55985899Y-38455432D01*
X56557328Y-38026861D02*
X56604947Y-37931623D01*
X56604947Y-37741147D01*
X56557328Y-37645908D01*
X56462090Y-37598289D01*
X56414471Y-37598289D01*
X56319233Y-37645908D01*
X56271614Y-37741147D01*
X56271614Y-37884004D01*
X56223995Y-37979242D01*
X56128756Y-38026861D01*
X56081137Y-38026861D01*
X55985899Y-37979242D01*
X55938280Y-37884004D01*
X55938280Y-37741147D01*
X55985899Y-37645908D01*
X56604947Y-37169718D02*
X55938280Y-37169718D01*
X55604947Y-37169718D02*
X55652566Y-37217337D01*
X55700185Y-37169718D01*
X55652566Y-37122099D01*
X55604947Y-37169718D01*
X55700185Y-37169718D01*
X55938280Y-36836385D02*
X55938280Y-36455433D01*
X56604947Y-36693528D02*
X55747804Y-36693528D01*
X55652566Y-36645909D01*
X55604947Y-36550671D01*
X55604947Y-36455433D01*
X54581137Y-51855433D02*
X54581137Y-51522099D01*
X55104947Y-51379242D02*
X55104947Y-51855433D01*
X54104947Y-51855433D01*
X54104947Y-51379242D01*
X55057328Y-50998290D02*
X55104947Y-50855433D01*
X55104947Y-50617337D01*
X55057328Y-50522099D01*
X55009709Y-50474480D01*
X54914471Y-50426861D01*
X54819233Y-50426861D01*
X54723995Y-50474480D01*
X54676376Y-50522099D01*
X54628756Y-50617337D01*
X54581137Y-50807814D01*
X54533518Y-50903052D01*
X54485899Y-50950671D01*
X54390661Y-50998290D01*
X54295423Y-50998290D01*
X54200185Y-50950671D01*
X54152566Y-50903052D01*
X54104947Y-50807814D01*
X54104947Y-50569718D01*
X54152566Y-50426861D01*
X55104947Y-49998290D02*
X54104947Y-49998290D01*
X54104947Y-49617337D01*
X54152566Y-49522099D01*
X54200185Y-49474480D01*
X54295423Y-49426861D01*
X54438280Y-49426861D01*
X54533518Y-49474480D01*
X54581137Y-49522099D01*
X54628756Y-49617337D01*
X54628756Y-49998290D01*
X54723995Y-48998290D02*
X54723995Y-48236385D01*
X54104947Y-47855433D02*
X54104947Y-47236385D01*
X54485899Y-47569719D01*
X54485899Y-47426861D01*
X54533518Y-47331623D01*
X54581137Y-47284004D01*
X54676376Y-47236385D01*
X54914471Y-47236385D01*
X55009709Y-47284004D01*
X55057328Y-47331623D01*
X55104947Y-47426861D01*
X55104947Y-47712576D01*
X55057328Y-47807814D01*
X55009709Y-47855433D01*
X54200185Y-46855433D02*
X54152566Y-46807814D01*
X54104947Y-46712576D01*
X54104947Y-46474480D01*
X54152566Y-46379242D01*
X54200185Y-46331623D01*
X54295423Y-46284004D01*
X54390661Y-46284004D01*
X54533518Y-46331623D01*
X55104947Y-46903052D01*
X55104947Y-46284004D01*
X55057328Y-45903052D02*
X55104947Y-45760195D01*
X55104947Y-45522099D01*
X55057328Y-45426861D01*
X55009709Y-45379242D01*
X54914471Y-45331623D01*
X54819233Y-45331623D01*
X54723995Y-45379242D01*
X54676376Y-45426861D01*
X54628756Y-45522099D01*
X54581137Y-45712576D01*
X54533518Y-45807814D01*
X54485899Y-45855433D01*
X54390661Y-45903052D01*
X54295423Y-45903052D01*
X54200185Y-45855433D01*
X54152566Y-45807814D01*
X54104947Y-45712576D01*
X54104947Y-45474480D01*
X54152566Y-45331623D01*
X37833334Y-39857143D02*
X37785715Y-39904762D01*
X37642858Y-39952381D01*
X37547620Y-39952381D01*
X37404762Y-39904762D01*
X37309524Y-39809524D01*
X37261905Y-39714286D01*
X37214286Y-39523810D01*
X37214286Y-39380952D01*
X37261905Y-39190476D01*
X37309524Y-39095238D01*
X37404762Y-39000000D01*
X37547620Y-38952381D01*
X37642858Y-38952381D01*
X37785715Y-39000000D01*
X37833334Y-39047619D01*
X38785715Y-39952381D02*
X38214286Y-39952381D01*
X38500000Y-39952381D02*
X38500000Y-38952381D01*
X38404762Y-39095238D01*
X38309524Y-39190476D01*
X38214286Y-39238095D01*
X52833334Y-71857143D02*
X52785715Y-71904762D01*
X52642858Y-71952381D01*
X52547620Y-71952381D01*
X52404762Y-71904762D01*
X52309524Y-71809524D01*
X52261905Y-71714286D01*
X52214286Y-71523810D01*
X52214286Y-71380952D01*
X52261905Y-71190476D01*
X52309524Y-71095238D01*
X52404762Y-71000000D01*
X52547620Y-70952381D01*
X52642858Y-70952381D01*
X52785715Y-71000000D01*
X52833334Y-71047619D01*
X53214286Y-71047619D02*
X53261905Y-71000000D01*
X53357143Y-70952381D01*
X53595239Y-70952381D01*
X53690477Y-71000000D01*
X53738096Y-71047619D01*
X53785715Y-71142857D01*
X53785715Y-71238095D01*
X53738096Y-71380952D01*
X53166667Y-71952381D01*
X53785715Y-71952381D01*
X60857143Y-65666666D02*
X60904762Y-65714285D01*
X60952381Y-65857142D01*
X60952381Y-65952380D01*
X60904762Y-66095238D01*
X60809524Y-66190476D01*
X60714286Y-66238095D01*
X60523810Y-66285714D01*
X60380952Y-66285714D01*
X60190476Y-66238095D01*
X60095238Y-66190476D01*
X60000000Y-66095238D01*
X59952381Y-65952380D01*
X59952381Y-65857142D01*
X60000000Y-65714285D01*
X60047619Y-65666666D01*
X59952381Y-65333333D02*
X59952381Y-64714285D01*
X60333333Y-65047619D01*
X60333333Y-64904761D01*
X60380952Y-64809523D01*
X60428571Y-64761904D01*
X60523810Y-64714285D01*
X60761905Y-64714285D01*
X60857143Y-64761904D01*
X60904762Y-64809523D01*
X60952381Y-64904761D01*
X60952381Y-65190476D01*
X60904762Y-65285714D01*
X60857143Y-65333333D01*
X69833334Y-60857143D02*
X69785715Y-60904762D01*
X69642858Y-60952381D01*
X69547620Y-60952381D01*
X69404762Y-60904762D01*
X69309524Y-60809524D01*
X69261905Y-60714286D01*
X69214286Y-60523810D01*
X69214286Y-60380952D01*
X69261905Y-60190476D01*
X69309524Y-60095238D01*
X69404762Y-60000000D01*
X69547620Y-59952381D01*
X69642858Y-59952381D01*
X69785715Y-60000000D01*
X69833334Y-60047619D01*
X70690477Y-60285714D02*
X70690477Y-60952381D01*
X70452381Y-59904762D02*
X70214286Y-60619048D01*
X70833334Y-60619048D01*
X63833334Y-41452381D02*
X63500000Y-40976190D01*
X63261905Y-41452381D02*
X63261905Y-40452381D01*
X63642858Y-40452381D01*
X63738096Y-40500000D01*
X63785715Y-40547619D01*
X63833334Y-40642857D01*
X63833334Y-40785714D01*
X63785715Y-40880952D01*
X63738096Y-40928571D01*
X63642858Y-40976190D01*
X63261905Y-40976190D01*
X64785715Y-41452381D02*
X64214286Y-41452381D01*
X64500000Y-41452381D02*
X64500000Y-40452381D01*
X64404762Y-40595238D01*
X64309524Y-40690476D01*
X64214286Y-40738095D01*
X63333334Y-65952381D02*
X63000000Y-65476190D01*
X62761905Y-65952381D02*
X62761905Y-64952381D01*
X63142858Y-64952381D01*
X63238096Y-65000000D01*
X63285715Y-65047619D01*
X63333334Y-65142857D01*
X63333334Y-65285714D01*
X63285715Y-65380952D01*
X63238096Y-65428571D01*
X63142858Y-65476190D01*
X62761905Y-65476190D01*
X63714286Y-65047619D02*
X63761905Y-65000000D01*
X63857143Y-64952381D01*
X64095239Y-64952381D01*
X64190477Y-65000000D01*
X64238096Y-65047619D01*
X64285715Y-65142857D01*
X64285715Y-65238095D01*
X64238096Y-65380952D01*
X63666667Y-65952381D01*
X64285715Y-65952381D01*
X39952381Y-58166666D02*
X39476190Y-58500000D01*
X39952381Y-58738095D02*
X38952381Y-58738095D01*
X38952381Y-58357142D01*
X39000000Y-58261904D01*
X39047619Y-58214285D01*
X39142857Y-58166666D01*
X39285714Y-58166666D01*
X39380952Y-58214285D01*
X39428571Y-58261904D01*
X39476190Y-58357142D01*
X39476190Y-58738095D01*
X38952381Y-57833333D02*
X38952381Y-57214285D01*
X39333333Y-57547619D01*
X39333333Y-57404761D01*
X39380952Y-57309523D01*
X39428571Y-57261904D01*
X39523810Y-57214285D01*
X39761905Y-57214285D01*
X39857143Y-57261904D01*
X39904762Y-57309523D01*
X39952381Y-57404761D01*
X39952381Y-57690476D01*
X39904762Y-57785714D01*
X39857143Y-57833333D01*
X39952381Y-55166666D02*
X39476190Y-55500000D01*
X39952381Y-55738095D02*
X38952381Y-55738095D01*
X38952381Y-55357142D01*
X39000000Y-55261904D01*
X39047619Y-55214285D01*
X39142857Y-55166666D01*
X39285714Y-55166666D01*
X39380952Y-55214285D01*
X39428571Y-55261904D01*
X39476190Y-55357142D01*
X39476190Y-55738095D01*
X39285714Y-54309523D02*
X39952381Y-54309523D01*
X38904762Y-54547619D02*
X39619048Y-54785714D01*
X39619048Y-54166666D01*
X69952381Y-46618666D02*
X69476190Y-46952000D01*
X69952381Y-47190095D02*
X68952381Y-47190095D01*
X68952381Y-46809142D01*
X69000000Y-46713904D01*
X69047619Y-46666285D01*
X69142857Y-46618666D01*
X69285714Y-46618666D01*
X69380952Y-46666285D01*
X69428571Y-46713904D01*
X69476190Y-46809142D01*
X69476190Y-47190095D01*
X68952381Y-45713904D02*
X68952381Y-46190095D01*
X69428571Y-46237714D01*
X69380952Y-46190095D01*
X69333333Y-46094857D01*
X69333333Y-45856761D01*
X69380952Y-45761523D01*
X69428571Y-45713904D01*
X69523810Y-45666285D01*
X69761905Y-45666285D01*
X69857143Y-45713904D01*
X69904762Y-45761523D01*
X69952381Y-45856761D01*
X69952381Y-46094857D01*
X69904762Y-46190095D01*
X69857143Y-46237714D01*
X71952381Y-45118666D02*
X71476190Y-45452000D01*
X71952381Y-45690095D02*
X70952381Y-45690095D01*
X70952381Y-45309142D01*
X71000000Y-45213904D01*
X71047619Y-45166285D01*
X71142857Y-45118666D01*
X71285714Y-45118666D01*
X71380952Y-45166285D01*
X71428571Y-45213904D01*
X71476190Y-45309142D01*
X71476190Y-45690095D01*
X70952381Y-44261523D02*
X70952381Y-44452000D01*
X71000000Y-44547238D01*
X71047619Y-44594857D01*
X71190476Y-44690095D01*
X71380952Y-44737714D01*
X71761905Y-44737714D01*
X71857143Y-44690095D01*
X71904762Y-44642476D01*
X71952381Y-44547238D01*
X71952381Y-44356761D01*
X71904762Y-44261523D01*
X71857143Y-44213904D01*
X71761905Y-44166285D01*
X71523810Y-44166285D01*
X71428571Y-44213904D01*
X71380952Y-44261523D01*
X71333333Y-44356761D01*
X71333333Y-44547238D01*
X71380952Y-44642476D01*
X71428571Y-44690095D01*
X71523810Y-44737714D01*
X32714286Y-70452381D02*
X32714286Y-69452381D01*
X33095239Y-69452381D01*
X33190477Y-69500000D01*
X33238096Y-69547619D01*
X33285715Y-69642857D01*
X33285715Y-69785714D01*
X33238096Y-69880952D01*
X33190477Y-69928571D01*
X33095239Y-69976190D01*
X32714286Y-69976190D01*
X34285715Y-70452381D02*
X33952381Y-69976190D01*
X33714286Y-70452381D02*
X33714286Y-69452381D01*
X34095239Y-69452381D01*
X34190477Y-69500000D01*
X34238096Y-69547619D01*
X34285715Y-69642857D01*
X34285715Y-69785714D01*
X34238096Y-69880952D01*
X34190477Y-69928571D01*
X34095239Y-69976190D01*
X33714286Y-69976190D01*
X34904762Y-69452381D02*
X35095239Y-69452381D01*
X35190477Y-69500000D01*
X35285715Y-69595238D01*
X35333334Y-69785714D01*
X35333334Y-70119048D01*
X35285715Y-70309524D01*
X35190477Y-70404762D01*
X35095239Y-70452381D01*
X34904762Y-70452381D01*
X34809524Y-70404762D01*
X34714286Y-70309524D01*
X34666667Y-70119048D01*
X34666667Y-69785714D01*
X34714286Y-69595238D01*
X34809524Y-69500000D01*
X34904762Y-69452381D01*
X36285715Y-69500000D02*
X36190477Y-69452381D01*
X36047620Y-69452381D01*
X35904762Y-69500000D01*
X35809524Y-69595238D01*
X35761905Y-69690476D01*
X35714286Y-69880952D01*
X35714286Y-70023810D01*
X35761905Y-70214286D01*
X35809524Y-70309524D01*
X35904762Y-70404762D01*
X36047620Y-70452381D01*
X36142858Y-70452381D01*
X36285715Y-70404762D01*
X36333334Y-70357143D01*
X36333334Y-70023810D01*
X36142858Y-70023810D01*
X33047619Y-64452381D02*
X32714285Y-63976190D01*
X32476190Y-64452381D02*
X32476190Y-63452381D01*
X32857143Y-63452381D01*
X32952381Y-63500000D01*
X33000000Y-63547619D01*
X33047619Y-63642857D01*
X33047619Y-63785714D01*
X33000000Y-63880952D01*
X32952381Y-63928571D01*
X32857143Y-63976190D01*
X32476190Y-63976190D01*
X33476190Y-63928571D02*
X33809524Y-63928571D01*
X33952381Y-64452381D02*
X33476190Y-64452381D01*
X33476190Y-63452381D01*
X33952381Y-63452381D01*
X34333333Y-64404762D02*
X34476190Y-64452381D01*
X34714286Y-64452381D01*
X34809524Y-64404762D01*
X34857143Y-64357143D01*
X34904762Y-64261905D01*
X34904762Y-64166667D01*
X34857143Y-64071429D01*
X34809524Y-64023810D01*
X34714286Y-63976190D01*
X34523809Y-63928571D01*
X34428571Y-63880952D01*
X34380952Y-63833333D01*
X34333333Y-63738095D01*
X34333333Y-63642857D01*
X34380952Y-63547619D01*
X34428571Y-63500000D01*
X34523809Y-63452381D01*
X34761905Y-63452381D01*
X34904762Y-63500000D01*
X35333333Y-63928571D02*
X35666667Y-63928571D01*
X35809524Y-64452381D02*
X35333333Y-64452381D01*
X35333333Y-63452381D01*
X35809524Y-63452381D01*
X36095238Y-63452381D02*
X36666667Y-63452381D01*
X36380952Y-64452381D02*
X36380952Y-63452381D01*
X69952381Y-58261905D02*
X70761905Y-58261905D01*
X70857143Y-58214286D01*
X70904762Y-58166667D01*
X70952381Y-58071429D01*
X70952381Y-57880952D01*
X70904762Y-57785714D01*
X70857143Y-57738095D01*
X70761905Y-57690476D01*
X69952381Y-57690476D01*
X69952381Y-57309524D02*
X69952381Y-56690476D01*
X70333333Y-57023810D01*
X70333333Y-56880952D01*
X70380952Y-56785714D01*
X70428571Y-56738095D01*
X70523810Y-56690476D01*
X70761905Y-56690476D01*
X70857143Y-56738095D01*
X70904762Y-56785714D01*
X70952381Y-56880952D01*
X70952381Y-57166667D01*
X70904762Y-57261905D01*
X70857143Y-57309524D01*
X53833334Y-56952381D02*
X53500000Y-56476190D01*
X53261905Y-56952381D02*
X53261905Y-55952381D01*
X53642858Y-55952381D01*
X53738096Y-56000000D01*
X53785715Y-56047619D01*
X53833334Y-56142857D01*
X53833334Y-56285714D01*
X53785715Y-56380952D01*
X53738096Y-56428571D01*
X53642858Y-56476190D01*
X53261905Y-56476190D01*
X54166667Y-55952381D02*
X54833334Y-55952381D01*
X54404762Y-56952381D01*
X35333334Y-42952381D02*
X35000000Y-42476190D01*
X34761905Y-42952381D02*
X34761905Y-41952381D01*
X35142858Y-41952381D01*
X35238096Y-42000000D01*
X35285715Y-42047619D01*
X35333334Y-42142857D01*
X35333334Y-42285714D01*
X35285715Y-42380952D01*
X35238096Y-42428571D01*
X35142858Y-42476190D01*
X34761905Y-42476190D01*
X35904762Y-42380952D02*
X35809524Y-42333333D01*
X35761905Y-42285714D01*
X35714286Y-42190476D01*
X35714286Y-42142857D01*
X35761905Y-42047619D01*
X35809524Y-42000000D01*
X35904762Y-41952381D01*
X36095239Y-41952381D01*
X36190477Y-42000000D01*
X36238096Y-42047619D01*
X36285715Y-42142857D01*
X36285715Y-42190476D01*
X36238096Y-42285714D01*
X36190477Y-42333333D01*
X36095239Y-42380952D01*
X35904762Y-42380952D01*
X35809524Y-42428571D01*
X35761905Y-42476190D01*
X35714286Y-42571429D01*
X35714286Y-42761905D01*
X35761905Y-42857143D01*
X35809524Y-42904762D01*
X35904762Y-42952381D01*
X36095239Y-42952381D01*
X36190477Y-42904762D01*
X36238096Y-42857143D01*
X36285715Y-42761905D01*
X36285715Y-42571429D01*
X36238096Y-42476190D01*
X36190477Y-42428571D01*
X36095239Y-42380952D01*
X53452381Y-65261905D02*
X54261905Y-65261905D01*
X54357143Y-65214286D01*
X54404762Y-65166667D01*
X54452381Y-65071429D01*
X54452381Y-64880952D01*
X54404762Y-64785714D01*
X54357143Y-64738095D01*
X54261905Y-64690476D01*
X53452381Y-64690476D01*
X54452381Y-63690476D02*
X54452381Y-64261905D01*
X54452381Y-63976191D02*
X53452381Y-63976191D01*
X53595238Y-64071429D01*
X53690476Y-64166667D01*
X53738095Y-64261905D01*
X48357143Y-66864666D02*
X48404762Y-66912285D01*
X48452381Y-67055142D01*
X48452381Y-67150380D01*
X48404762Y-67293238D01*
X48309524Y-67388476D01*
X48214286Y-67436095D01*
X48023810Y-67483714D01*
X47880952Y-67483714D01*
X47690476Y-67436095D01*
X47595238Y-67388476D01*
X47500000Y-67293238D01*
X47452381Y-67150380D01*
X47452381Y-67055142D01*
X47500000Y-66912285D01*
X47547619Y-66864666D01*
X47452381Y-65959904D02*
X47452381Y-66436095D01*
X47928571Y-66483714D01*
X47880952Y-66436095D01*
X47833333Y-66340857D01*
X47833333Y-66102761D01*
X47880952Y-66007523D01*
X47928571Y-65959904D01*
X48023810Y-65912285D01*
X48261905Y-65912285D01*
X48357143Y-65959904D01*
X48404762Y-66007523D01*
X48452381Y-66102761D01*
X48452381Y-66340857D01*
X48404762Y-66436095D01*
X48357143Y-66483714D01*
X46052381Y-68142857D02*
X45576190Y-68476191D01*
X46052381Y-68714286D02*
X45052381Y-68714286D01*
X45052381Y-68333333D01*
X45100000Y-68238095D01*
X45147619Y-68190476D01*
X45242857Y-68142857D01*
X45385714Y-68142857D01*
X45480952Y-68190476D01*
X45528571Y-68238095D01*
X45576190Y-68333333D01*
X45576190Y-68714286D01*
X46052381Y-67190476D02*
X46052381Y-67761905D01*
X46052381Y-67476191D02*
X45052381Y-67476191D01*
X45195238Y-67571429D01*
X45290476Y-67666667D01*
X45338095Y-67761905D01*
X45052381Y-66571429D02*
X45052381Y-66476190D01*
X45100000Y-66380952D01*
X45147619Y-66333333D01*
X45242857Y-66285714D01*
X45433333Y-66238095D01*
X45671429Y-66238095D01*
X45861905Y-66285714D01*
X45957143Y-66333333D01*
X46004762Y-66380952D01*
X46052381Y-66476190D01*
X46052381Y-66571429D01*
X46004762Y-66666667D01*
X45957143Y-66714286D01*
X45861905Y-66761905D01*
X45671429Y-66809524D01*
X45433333Y-66809524D01*
X45242857Y-66761905D01*
X45147619Y-66714286D01*
X45100000Y-66666667D01*
X45052381Y-66571429D01*
X63357143Y-37952381D02*
X63023809Y-37476190D01*
X62785714Y-37952381D02*
X62785714Y-36952381D01*
X63166667Y-36952381D01*
X63261905Y-37000000D01*
X63309524Y-37047619D01*
X63357143Y-37142857D01*
X63357143Y-37285714D01*
X63309524Y-37380952D01*
X63261905Y-37428571D01*
X63166667Y-37476190D01*
X62785714Y-37476190D01*
X64309524Y-37952381D02*
X63738095Y-37952381D01*
X64023809Y-37952381D02*
X64023809Y-36952381D01*
X63928571Y-37095238D01*
X63833333Y-37190476D01*
X63738095Y-37238095D01*
X65261905Y-37952381D02*
X64690476Y-37952381D01*
X64976190Y-37952381D02*
X64976190Y-36952381D01*
X64880952Y-37095238D01*
X64785714Y-37190476D01*
X64690476Y-37238095D01*
X41738095Y-71452381D02*
X41738095Y-72261905D01*
X41785714Y-72357143D01*
X41833333Y-72404762D01*
X41928571Y-72452381D01*
X42119048Y-72452381D01*
X42214286Y-72404762D01*
X42261905Y-72357143D01*
X42309524Y-72261905D01*
X42309524Y-71452381D01*
X43214286Y-71785714D02*
X43214286Y-72452381D01*
X42976190Y-71404762D02*
X42738095Y-72119048D01*
X43357143Y-72119048D01*
X61547619Y-71095238D02*
X61500000Y-71190476D01*
X61404762Y-71285714D01*
X61261905Y-71428571D01*
X61214286Y-71523810D01*
X61214286Y-71619048D01*
X61452381Y-71571429D02*
X61404762Y-71666667D01*
X61309524Y-71761905D01*
X61119048Y-71809524D01*
X60785714Y-71809524D01*
X60595238Y-71761905D01*
X60500000Y-71666667D01*
X60452381Y-71571429D01*
X60452381Y-71380952D01*
X60500000Y-71285714D01*
X60595238Y-71190476D01*
X60785714Y-71142857D01*
X61119048Y-71142857D01*
X61309524Y-71190476D01*
X61404762Y-71285714D01*
X61452381Y-71380952D01*
X61452381Y-71571429D01*
X60547619Y-70761905D02*
X60500000Y-70714286D01*
X60452381Y-70619048D01*
X60452381Y-70380952D01*
X60500000Y-70285714D01*
X60547619Y-70238095D01*
X60642857Y-70190476D01*
X60738095Y-70190476D01*
X60880952Y-70238095D01*
X61452381Y-70809524D01*
X61452381Y-70190476D01*
X56214286Y-77928571D02*
X56357143Y-77976190D01*
X56404762Y-78023810D01*
X56452381Y-78119048D01*
X56452381Y-78261905D01*
X56404762Y-78357143D01*
X56357143Y-78404762D01*
X56261905Y-78452381D01*
X55880952Y-78452381D01*
X55880952Y-77452381D01*
X56214286Y-77452381D01*
X56309524Y-77500000D01*
X56357143Y-77547619D01*
X56404762Y-77642857D01*
X56404762Y-77738095D01*
X56357143Y-77833333D01*
X56309524Y-77880952D01*
X56214286Y-77928571D01*
X55880952Y-77928571D01*
X56738095Y-77452381D02*
X57309524Y-77452381D01*
X57023809Y-78452381D02*
X57023809Y-77452381D01*
X58166667Y-78452381D02*
X57595238Y-78452381D01*
X57880952Y-78452381D02*
X57880952Y-77452381D01*
X57785714Y-77595238D01*
X57690476Y-77690476D01*
X57595238Y-77738095D01*
X76666667Y-59122381D02*
X76666667Y-59836667D01*
X76619047Y-59979524D01*
X76523809Y-60074762D01*
X76380952Y-60122381D01*
X76285714Y-60122381D01*
X77047619Y-59122381D02*
X77666667Y-59122381D01*
X77333333Y-59503333D01*
X77476191Y-59503333D01*
X77571429Y-59550952D01*
X77619048Y-59598571D01*
X77666667Y-59693810D01*
X77666667Y-59931905D01*
X77619048Y-60027143D01*
X77571429Y-60074762D01*
X77476191Y-60122381D01*
X77190476Y-60122381D01*
X77095238Y-60074762D01*
X77047619Y-60027143D01*
X76666667Y-42042381D02*
X76666667Y-42756667D01*
X76619047Y-42899524D01*
X76523809Y-42994762D01*
X76380952Y-43042381D01*
X76285714Y-43042381D01*
X77571429Y-42375714D02*
X77571429Y-43042381D01*
X77333333Y-41994762D02*
X77095238Y-42709048D01*
X77714286Y-42709048D01*
X65690477Y-46582381D02*
X65690477Y-47296667D01*
X65642857Y-47439524D01*
X65547619Y-47534762D01*
X65404762Y-47582381D01*
X65309524Y-47582381D01*
X66690477Y-47582381D02*
X66119048Y-47582381D01*
X66404762Y-47582381D02*
X66404762Y-46582381D01*
X66309524Y-46725238D01*
X66214286Y-46820476D01*
X66119048Y-46868095D01*
X67309524Y-46582381D02*
X67404763Y-46582381D01*
X67500001Y-46630000D01*
X67547620Y-46677619D01*
X67595239Y-46772857D01*
X67642858Y-46963333D01*
X67642858Y-47201429D01*
X67595239Y-47391905D01*
X67547620Y-47487143D01*
X67500001Y-47534762D01*
X67404763Y-47582381D01*
X67309524Y-47582381D01*
X67214286Y-47534762D01*
X67166667Y-47487143D01*
X67119048Y-47391905D01*
X67071429Y-47201429D01*
X67071429Y-46963333D01*
X67119048Y-46772857D01*
X67166667Y-46677619D01*
X67214286Y-46630000D01*
X67309524Y-46582381D01*
X55666667Y-72952381D02*
X55666667Y-73666667D01*
X55619047Y-73809524D01*
X55523809Y-73904762D01*
X55380952Y-73952381D01*
X55285714Y-73952381D01*
X56142857Y-73952381D02*
X56142857Y-72952381D01*
X56523810Y-72952381D01*
X56619048Y-73000000D01*
X56666667Y-73047619D01*
X56714286Y-73142857D01*
X56714286Y-73285714D01*
X56666667Y-73380952D01*
X56619048Y-73428571D01*
X56523810Y-73476190D01*
X56142857Y-73476190D01*
X57666667Y-73952381D02*
X57095238Y-73952381D01*
X57380952Y-73952381D02*
X57380952Y-72952381D01*
X57285714Y-73095238D01*
X57190476Y-73190476D01*
X57095238Y-73238095D01*
X65082381Y-72833333D02*
X65796667Y-72833333D01*
X65939524Y-72880953D01*
X66034762Y-72976191D01*
X66082381Y-73119048D01*
X66082381Y-73214286D01*
X66082381Y-72357143D02*
X65082381Y-72357143D01*
X65082381Y-71976190D01*
X65130000Y-71880952D01*
X65177619Y-71833333D01*
X65272857Y-71785714D01*
X65415714Y-71785714D01*
X65510952Y-71833333D01*
X65558571Y-71880952D01*
X65606190Y-71976190D01*
X65606190Y-72357143D01*
X65177619Y-71404762D02*
X65130000Y-71357143D01*
X65082381Y-71261905D01*
X65082381Y-71023809D01*
X65130000Y-70928571D01*
X65177619Y-70880952D01*
X65272857Y-70833333D01*
X65368095Y-70833333D01*
X65510952Y-70880952D01*
X66082381Y-71452381D01*
X66082381Y-70833333D01*
X46190476Y-78452381D02*
X46190476Y-77452381D01*
X46523810Y-78166667D01*
X46857143Y-77452381D01*
X46857143Y-78452381D01*
X47857143Y-78452381D02*
X47285714Y-78452381D01*
X47571428Y-78452381D02*
X47571428Y-77452381D01*
X47476190Y-77595238D01*
X47380952Y-77690476D01*
X47285714Y-77738095D01*
X60166667Y-74952381D02*
X60166667Y-75666667D01*
X60119047Y-75809524D01*
X60023809Y-75904762D01*
X59880952Y-75952381D01*
X59785714Y-75952381D01*
X61166667Y-75952381D02*
X60595238Y-75952381D01*
X60880952Y-75952381D02*
X60880952Y-74952381D01*
X60785714Y-75095238D01*
X60690476Y-75190476D01*
X60595238Y-75238095D01*
X32166667Y-37952381D02*
X32166667Y-38666667D01*
X32119047Y-38809524D01*
X32023809Y-38904762D01*
X31880952Y-38952381D01*
X31785714Y-38952381D01*
X32595238Y-38047619D02*
X32642857Y-38000000D01*
X32738095Y-37952381D01*
X32976191Y-37952381D01*
X33071429Y-38000000D01*
X33119048Y-38047619D01*
X33166667Y-38142857D01*
X33166667Y-38238095D01*
X33119048Y-38380952D01*
X32547619Y-38952381D01*
X33166667Y-38952381D01*
M02*
