G04 #@! TF.FileFunction,Legend,Bot*
%FSLAX46Y46*%
G04 Gerber Fmt 4.6, Leading zero omitted, Abs format (unit mm)*
G04 Created by KiCad (PCBNEW 4.0.7) date 2017 November 25, Saturday 16:53:06*
%MOMM*%
%LPD*%
G01*
G04 APERTURE LIST*
%ADD10C,0.100000*%
%ADD11C,0.150000*%
%ADD12C,0.120000*%
%ADD13C,0.010000*%
G04 APERTURE END LIST*
D10*
D11*
X74945905Y-53204381D02*
X74945905Y-52204381D01*
X74279239Y-52204381D02*
X74088762Y-52204381D01*
X73993524Y-52252000D01*
X73898286Y-52347238D01*
X73850667Y-52537714D01*
X73850667Y-52871048D01*
X73898286Y-53061524D01*
X73993524Y-53156762D01*
X74088762Y-53204381D01*
X74279239Y-53204381D01*
X74374477Y-53156762D01*
X74469715Y-53061524D01*
X74517334Y-52871048D01*
X74517334Y-52537714D01*
X74469715Y-52347238D01*
X74374477Y-52252000D01*
X74279239Y-52204381D01*
X73231620Y-52204381D02*
X73136381Y-52204381D01*
X73041143Y-52252000D01*
X72993524Y-52299619D01*
X72945905Y-52394857D01*
X72898286Y-52585333D01*
X72898286Y-52823429D01*
X72945905Y-53013905D01*
X72993524Y-53109143D01*
X73041143Y-53156762D01*
X73136381Y-53204381D01*
X73231620Y-53204381D01*
X73326858Y-53156762D01*
X73374477Y-53109143D01*
X73422096Y-53013905D01*
X73469715Y-52823429D01*
X73469715Y-52585333D01*
X73422096Y-52394857D01*
X73374477Y-52299619D01*
X73326858Y-52252000D01*
X73231620Y-52204381D01*
X74422095Y-54792000D02*
X74517333Y-54744381D01*
X74660190Y-54744381D01*
X74803048Y-54792000D01*
X74898286Y-54887238D01*
X74945905Y-54982476D01*
X74993524Y-55172952D01*
X74993524Y-55315810D01*
X74945905Y-55506286D01*
X74898286Y-55601524D01*
X74803048Y-55696762D01*
X74660190Y-55744381D01*
X74564952Y-55744381D01*
X74422095Y-55696762D01*
X74374476Y-55649143D01*
X74374476Y-55315810D01*
X74564952Y-55315810D01*
X73945905Y-55744381D02*
X73945905Y-54744381D01*
X73374476Y-55744381D01*
X73374476Y-54744381D01*
X72898286Y-55744381D02*
X72898286Y-54744381D01*
X72660191Y-54744381D01*
X72517333Y-54792000D01*
X72422095Y-54887238D01*
X72374476Y-54982476D01*
X72326857Y-55172952D01*
X72326857Y-55315810D01*
X72374476Y-55506286D01*
X72422095Y-55601524D01*
X72517333Y-55696762D01*
X72660191Y-55744381D01*
X72898286Y-55744381D01*
X74993524Y-50616762D02*
X74850667Y-50664381D01*
X74612571Y-50664381D01*
X74517333Y-50616762D01*
X74469714Y-50569143D01*
X74422095Y-50473905D01*
X74422095Y-50378667D01*
X74469714Y-50283429D01*
X74517333Y-50235810D01*
X74612571Y-50188190D01*
X74803048Y-50140571D01*
X74898286Y-50092952D01*
X74945905Y-50045333D01*
X74993524Y-49950095D01*
X74993524Y-49854857D01*
X74945905Y-49759619D01*
X74898286Y-49712000D01*
X74803048Y-49664381D01*
X74564952Y-49664381D01*
X74422095Y-49712000D01*
X73993524Y-50664381D02*
X73993524Y-49664381D01*
X73755429Y-49664381D01*
X73612571Y-49712000D01*
X73517333Y-49807238D01*
X73469714Y-49902476D01*
X73422095Y-50092952D01*
X73422095Y-50235810D01*
X73469714Y-50426286D01*
X73517333Y-50521524D01*
X73612571Y-50616762D01*
X73755429Y-50664381D01*
X73993524Y-50664381D01*
X73041143Y-50378667D02*
X72564952Y-50378667D01*
X73136381Y-50664381D02*
X72803048Y-49664381D01*
X72469714Y-50664381D01*
X74993524Y-48076762D02*
X74850667Y-48124381D01*
X74612571Y-48124381D01*
X74517333Y-48076762D01*
X74469714Y-48029143D01*
X74422095Y-47933905D01*
X74422095Y-47838667D01*
X74469714Y-47743429D01*
X74517333Y-47695810D01*
X74612571Y-47648190D01*
X74803048Y-47600571D01*
X74898286Y-47552952D01*
X74945905Y-47505333D01*
X74993524Y-47410095D01*
X74993524Y-47314857D01*
X74945905Y-47219619D01*
X74898286Y-47172000D01*
X74803048Y-47124381D01*
X74564952Y-47124381D01*
X74422095Y-47172000D01*
X73422095Y-48029143D02*
X73469714Y-48076762D01*
X73612571Y-48124381D01*
X73707809Y-48124381D01*
X73850667Y-48076762D01*
X73945905Y-47981524D01*
X73993524Y-47886286D01*
X74041143Y-47695810D01*
X74041143Y-47552952D01*
X73993524Y-47362476D01*
X73945905Y-47267238D01*
X73850667Y-47172000D01*
X73707809Y-47124381D01*
X73612571Y-47124381D01*
X73469714Y-47172000D01*
X73422095Y-47219619D01*
X72517333Y-48124381D02*
X72993524Y-48124381D01*
X72993524Y-47124381D01*
X75041143Y-44584381D02*
X74422095Y-44584381D01*
X74755429Y-44965333D01*
X74612571Y-44965333D01*
X74517333Y-45012952D01*
X74469714Y-45060571D01*
X74422095Y-45155810D01*
X74422095Y-45393905D01*
X74469714Y-45489143D01*
X74517333Y-45536762D01*
X74612571Y-45584381D01*
X74898286Y-45584381D01*
X74993524Y-45536762D01*
X75041143Y-45489143D01*
X73993524Y-45489143D02*
X73945905Y-45536762D01*
X73993524Y-45584381D01*
X74041143Y-45536762D01*
X73993524Y-45489143D01*
X73993524Y-45584381D01*
X73612572Y-44584381D02*
X72993524Y-44584381D01*
X73326858Y-44965333D01*
X73184000Y-44965333D01*
X73088762Y-45012952D01*
X73041143Y-45060571D01*
X72993524Y-45155810D01*
X72993524Y-45393905D01*
X73041143Y-45489143D01*
X73088762Y-45536762D01*
X73184000Y-45584381D01*
X73469715Y-45584381D01*
X73564953Y-45536762D01*
X73612572Y-45489143D01*
X72707810Y-44584381D02*
X72374477Y-45584381D01*
X72041143Y-44584381D01*
X74422095Y-66604000D02*
X74517333Y-66556381D01*
X74660190Y-66556381D01*
X74803048Y-66604000D01*
X74898286Y-66699238D01*
X74945905Y-66794476D01*
X74993524Y-66984952D01*
X74993524Y-67127810D01*
X74945905Y-67318286D01*
X74898286Y-67413524D01*
X74803048Y-67508762D01*
X74660190Y-67556381D01*
X74564952Y-67556381D01*
X74422095Y-67508762D01*
X74374476Y-67461143D01*
X74374476Y-67127810D01*
X74564952Y-67127810D01*
X73945905Y-67556381D02*
X73945905Y-66556381D01*
X73374476Y-67556381D01*
X73374476Y-66556381D01*
X72898286Y-67556381D02*
X72898286Y-66556381D01*
X72660191Y-66556381D01*
X72517333Y-66604000D01*
X72422095Y-66699238D01*
X72374476Y-66794476D01*
X72326857Y-66984952D01*
X72326857Y-67127810D01*
X72374476Y-67318286D01*
X72422095Y-67413524D01*
X72517333Y-67508762D01*
X72660191Y-67556381D01*
X72898286Y-67556381D01*
X74945905Y-65016381D02*
X74945905Y-64016381D01*
X74945905Y-64492571D02*
X74374476Y-64492571D01*
X74374476Y-65016381D02*
X74374476Y-64016381D01*
X73898286Y-64016381D02*
X73898286Y-64825905D01*
X73850667Y-64921143D01*
X73803048Y-64968762D01*
X73707810Y-65016381D01*
X73517333Y-65016381D01*
X73422095Y-64968762D01*
X73374476Y-64921143D01*
X73326857Y-64825905D01*
X73326857Y-64016381D01*
X72850667Y-65016381D02*
X72850667Y-64016381D01*
X72517333Y-64730667D01*
X72184000Y-64016381D01*
X72184000Y-65016381D01*
X75041143Y-61476381D02*
X74422095Y-61476381D01*
X74755429Y-61857333D01*
X74612571Y-61857333D01*
X74517333Y-61904952D01*
X74469714Y-61952571D01*
X74422095Y-62047810D01*
X74422095Y-62285905D01*
X74469714Y-62381143D01*
X74517333Y-62428762D01*
X74612571Y-62476381D01*
X74898286Y-62476381D01*
X74993524Y-62428762D01*
X75041143Y-62381143D01*
X73993524Y-62381143D02*
X73945905Y-62428762D01*
X73993524Y-62476381D01*
X74041143Y-62428762D01*
X73993524Y-62381143D01*
X73993524Y-62476381D01*
X73612572Y-61476381D02*
X72993524Y-61476381D01*
X73326858Y-61857333D01*
X73184000Y-61857333D01*
X73088762Y-61904952D01*
X73041143Y-61952571D01*
X72993524Y-62047810D01*
X72993524Y-62285905D01*
X73041143Y-62381143D01*
X73088762Y-62428762D01*
X73184000Y-62476381D01*
X73469715Y-62476381D01*
X73564953Y-62428762D01*
X73612572Y-62381143D01*
X72707810Y-61476381D02*
X72374477Y-62476381D01*
X72041143Y-61476381D01*
X72761905Y-69952381D02*
X72761905Y-68952381D01*
X72523810Y-70047619D02*
X71761905Y-70047619D01*
X71571429Y-69904762D02*
X71428572Y-69952381D01*
X71190476Y-69952381D01*
X71095238Y-69904762D01*
X71047619Y-69857143D01*
X71000000Y-69761905D01*
X71000000Y-69666667D01*
X71047619Y-69571429D01*
X71095238Y-69523810D01*
X71190476Y-69476190D01*
X71380953Y-69428571D01*
X71476191Y-69380952D01*
X71523810Y-69333333D01*
X71571429Y-69238095D01*
X71571429Y-69142857D01*
X71523810Y-69047619D01*
X71476191Y-69000000D01*
X71380953Y-68952381D01*
X71142857Y-68952381D01*
X71000000Y-69000000D01*
X70571429Y-69428571D02*
X70238095Y-69428571D01*
X70095238Y-69952381D02*
X70571429Y-69952381D01*
X70571429Y-68952381D01*
X70095238Y-68952381D01*
X69666667Y-69952381D02*
X69666667Y-68952381D01*
X69095238Y-69952381D01*
X69095238Y-68952381D01*
X68666667Y-69904762D02*
X68523810Y-69952381D01*
X68285714Y-69952381D01*
X68190476Y-69904762D01*
X68142857Y-69857143D01*
X68095238Y-69761905D01*
X68095238Y-69666667D01*
X68142857Y-69571429D01*
X68190476Y-69523810D01*
X68285714Y-69476190D01*
X68476191Y-69428571D01*
X68571429Y-69380952D01*
X68619048Y-69333333D01*
X68666667Y-69238095D01*
X68666667Y-69142857D01*
X68619048Y-69047619D01*
X68571429Y-69000000D01*
X68476191Y-68952381D01*
X68238095Y-68952381D01*
X68095238Y-69000000D01*
X67476191Y-68952381D02*
X67285714Y-68952381D01*
X67190476Y-69000000D01*
X67095238Y-69095238D01*
X67047619Y-69285714D01*
X67047619Y-69619048D01*
X67095238Y-69809524D01*
X67190476Y-69904762D01*
X67285714Y-69952381D01*
X67476191Y-69952381D01*
X67571429Y-69904762D01*
X67666667Y-69809524D01*
X67714286Y-69619048D01*
X67714286Y-69285714D01*
X67666667Y-69095238D01*
X67571429Y-69000000D01*
X67476191Y-68952381D01*
X66047619Y-69952381D02*
X66380953Y-69476190D01*
X66619048Y-69952381D02*
X66619048Y-68952381D01*
X66238095Y-68952381D01*
X66142857Y-69000000D01*
X66095238Y-69047619D01*
X66047619Y-69142857D01*
X66047619Y-69285714D01*
X66095238Y-69380952D01*
X66142857Y-69428571D01*
X66238095Y-69476190D01*
X66619048Y-69476190D01*
X68928571Y-77928571D02*
X68785714Y-77976190D01*
X68738095Y-78023810D01*
X68690476Y-78119048D01*
X68690476Y-78261905D01*
X68738095Y-78357143D01*
X68785714Y-78404762D01*
X68880952Y-78452381D01*
X69261905Y-78452381D01*
X69261905Y-77452381D01*
X68928571Y-77452381D01*
X68833333Y-77500000D01*
X68785714Y-77547619D01*
X68738095Y-77642857D01*
X68738095Y-77738095D01*
X68785714Y-77833333D01*
X68833333Y-77880952D01*
X68928571Y-77928571D01*
X69261905Y-77928571D01*
X68309524Y-78166667D02*
X67833333Y-78166667D01*
X68404762Y-78452381D02*
X68071429Y-77452381D01*
X67738095Y-78452381D01*
X67547619Y-77452381D02*
X66976190Y-77452381D01*
X67261905Y-78452381D02*
X67261905Y-77452381D01*
X66880952Y-78547619D02*
X66119047Y-78547619D01*
X65928571Y-78404762D02*
X65785714Y-78452381D01*
X65547618Y-78452381D01*
X65452380Y-78404762D01*
X65404761Y-78357143D01*
X65357142Y-78261905D01*
X65357142Y-78166667D01*
X65404761Y-78071429D01*
X65452380Y-78023810D01*
X65547618Y-77976190D01*
X65738095Y-77928571D01*
X65833333Y-77880952D01*
X65880952Y-77833333D01*
X65928571Y-77738095D01*
X65928571Y-77642857D01*
X65880952Y-77547619D01*
X65833333Y-77500000D01*
X65738095Y-77452381D01*
X65499999Y-77452381D01*
X65357142Y-77500000D01*
X64928571Y-77928571D02*
X64595237Y-77928571D01*
X64452380Y-78452381D02*
X64928571Y-78452381D01*
X64928571Y-77452381D01*
X64452380Y-77452381D01*
X64023809Y-78452381D02*
X64023809Y-77452381D01*
X63452380Y-78452381D01*
X63452380Y-77452381D01*
X63023809Y-78404762D02*
X62880952Y-78452381D01*
X62642856Y-78452381D01*
X62547618Y-78404762D01*
X62499999Y-78357143D01*
X62452380Y-78261905D01*
X62452380Y-78166667D01*
X62499999Y-78071429D01*
X62547618Y-78023810D01*
X62642856Y-77976190D01*
X62833333Y-77928571D01*
X62928571Y-77880952D01*
X62976190Y-77833333D01*
X63023809Y-77738095D01*
X63023809Y-77642857D01*
X62976190Y-77547619D01*
X62928571Y-77500000D01*
X62833333Y-77452381D01*
X62595237Y-77452381D01*
X62452380Y-77500000D01*
X55133905Y-71572381D02*
X55133905Y-70572381D01*
X54895810Y-71667619D02*
X54133905Y-71667619D01*
X53943429Y-71524762D02*
X53800572Y-71572381D01*
X53562476Y-71572381D01*
X53467238Y-71524762D01*
X53419619Y-71477143D01*
X53372000Y-71381905D01*
X53372000Y-71286667D01*
X53419619Y-71191429D01*
X53467238Y-71143810D01*
X53562476Y-71096190D01*
X53752953Y-71048571D01*
X53848191Y-71000952D01*
X53895810Y-70953333D01*
X53943429Y-70858095D01*
X53943429Y-70762857D01*
X53895810Y-70667619D01*
X53848191Y-70620000D01*
X53752953Y-70572381D01*
X53514857Y-70572381D01*
X53372000Y-70620000D01*
X52943429Y-71048571D02*
X52610095Y-71048571D01*
X52467238Y-71572381D02*
X52943429Y-71572381D01*
X52943429Y-70572381D01*
X52467238Y-70572381D01*
X52038667Y-71572381D02*
X52038667Y-70572381D01*
X51467238Y-71572381D01*
X51467238Y-70572381D01*
X51038667Y-71524762D02*
X50895810Y-71572381D01*
X50657714Y-71572381D01*
X50562476Y-71524762D01*
X50514857Y-71477143D01*
X50467238Y-71381905D01*
X50467238Y-71286667D01*
X50514857Y-71191429D01*
X50562476Y-71143810D01*
X50657714Y-71096190D01*
X50848191Y-71048571D01*
X50943429Y-71000952D01*
X50991048Y-70953333D01*
X51038667Y-70858095D01*
X51038667Y-70762857D01*
X50991048Y-70667619D01*
X50943429Y-70620000D01*
X50848191Y-70572381D01*
X50610095Y-70572381D01*
X50467238Y-70620000D01*
X50038667Y-71048571D02*
X49705333Y-71048571D01*
X49562476Y-71572381D02*
X50038667Y-71572381D01*
X50038667Y-70572381D01*
X49562476Y-70572381D01*
X57428571Y-75620571D02*
X57285714Y-75668190D01*
X57238095Y-75715810D01*
X57190476Y-75811048D01*
X57190476Y-75953905D01*
X57238095Y-76049143D01*
X57285714Y-76096762D01*
X57380952Y-76144381D01*
X57761905Y-76144381D01*
X57761905Y-75144381D01*
X57428571Y-75144381D01*
X57333333Y-75192000D01*
X57285714Y-75239619D01*
X57238095Y-75334857D01*
X57238095Y-75430095D01*
X57285714Y-75525333D01*
X57333333Y-75572952D01*
X57428571Y-75620571D01*
X57761905Y-75620571D01*
X56809524Y-75858667D02*
X56333333Y-75858667D01*
X56904762Y-76144381D02*
X56571429Y-75144381D01*
X56238095Y-76144381D01*
X56047619Y-75144381D02*
X55476190Y-75144381D01*
X55761905Y-76144381D02*
X55761905Y-75144381D01*
X54380952Y-75763429D02*
X53619047Y-75763429D01*
X53999999Y-76144381D02*
X53999999Y-75382476D01*
X51619047Y-75763429D02*
X50857142Y-75763429D01*
X44973905Y-76144381D02*
X44973905Y-75144381D01*
X44592952Y-75144381D01*
X44497714Y-75192000D01*
X44450095Y-75239619D01*
X44402476Y-75334857D01*
X44402476Y-75477714D01*
X44450095Y-75572952D01*
X44497714Y-75620571D01*
X44592952Y-75668190D01*
X44973905Y-75668190D01*
X43973905Y-75144381D02*
X43973905Y-75953905D01*
X43926286Y-76049143D01*
X43878667Y-76096762D01*
X43783429Y-76144381D01*
X43592952Y-76144381D01*
X43497714Y-76096762D01*
X43450095Y-76049143D01*
X43402476Y-75953905D01*
X43402476Y-75144381D01*
X42926286Y-76144381D02*
X42926286Y-75144381D01*
X42592952Y-75858667D01*
X42259619Y-75144381D01*
X42259619Y-76144381D01*
X41783429Y-76144381D02*
X41783429Y-75144381D01*
X41402476Y-75144381D01*
X41307238Y-75192000D01*
X41259619Y-75239619D01*
X41212000Y-75334857D01*
X41212000Y-75477714D01*
X41259619Y-75572952D01*
X41307238Y-75620571D01*
X41402476Y-75668190D01*
X41783429Y-75668190D01*
X38973143Y-41108381D02*
X38354095Y-41108381D01*
X38687429Y-41489333D01*
X38544571Y-41489333D01*
X38449333Y-41536952D01*
X38401714Y-41584571D01*
X38354095Y-41679810D01*
X38354095Y-41917905D01*
X38401714Y-42013143D01*
X38449333Y-42060762D01*
X38544571Y-42108381D01*
X38830286Y-42108381D01*
X38925524Y-42060762D01*
X38973143Y-42013143D01*
X37925524Y-42013143D02*
X37877905Y-42060762D01*
X37925524Y-42108381D01*
X37973143Y-42060762D01*
X37925524Y-42013143D01*
X37925524Y-42108381D01*
X37544572Y-41108381D02*
X36925524Y-41108381D01*
X37258858Y-41489333D01*
X37116000Y-41489333D01*
X37020762Y-41536952D01*
X36973143Y-41584571D01*
X36925524Y-41679810D01*
X36925524Y-41917905D01*
X36973143Y-42013143D01*
X37020762Y-42060762D01*
X37116000Y-42108381D01*
X37401715Y-42108381D01*
X37496953Y-42060762D01*
X37544572Y-42013143D01*
X36639810Y-41108381D02*
X36306477Y-42108381D01*
X35973143Y-41108381D01*
X38306476Y-44648381D02*
X38639810Y-44172190D01*
X38877905Y-44648381D02*
X38877905Y-43648381D01*
X38496952Y-43648381D01*
X38401714Y-43696000D01*
X38354095Y-43743619D01*
X38306476Y-43838857D01*
X38306476Y-43981714D01*
X38354095Y-44076952D01*
X38401714Y-44124571D01*
X38496952Y-44172190D01*
X38877905Y-44172190D01*
X37973143Y-43648381D02*
X37306476Y-44648381D01*
X37306476Y-43648381D02*
X37973143Y-44648381D01*
X36925524Y-44648381D02*
X36925524Y-43648381D01*
X36687429Y-43648381D01*
X36544571Y-43696000D01*
X36449333Y-43791238D01*
X36401714Y-43886476D01*
X36354095Y-44076952D01*
X36354095Y-44219810D01*
X36401714Y-44410286D01*
X36449333Y-44505524D01*
X36544571Y-44600762D01*
X36687429Y-44648381D01*
X36925524Y-44648381D01*
X39020762Y-46188381D02*
X38449333Y-46188381D01*
X38735048Y-47188381D02*
X38735048Y-46188381D01*
X38211238Y-46188381D02*
X37544571Y-47188381D01*
X37544571Y-46188381D02*
X38211238Y-47188381D01*
X37163619Y-47188381D02*
X37163619Y-46188381D01*
X36925524Y-46188381D01*
X36782666Y-46236000D01*
X36687428Y-46331238D01*
X36639809Y-46426476D01*
X36592190Y-46616952D01*
X36592190Y-46759810D01*
X36639809Y-46950286D01*
X36687428Y-47045524D01*
X36782666Y-47140762D01*
X36925524Y-47188381D01*
X37163619Y-47188381D01*
X38306476Y-49728381D02*
X38639810Y-49252190D01*
X38877905Y-49728381D02*
X38877905Y-48728381D01*
X38496952Y-48728381D01*
X38401714Y-48776000D01*
X38354095Y-48823619D01*
X38306476Y-48918857D01*
X38306476Y-49061714D01*
X38354095Y-49156952D01*
X38401714Y-49204571D01*
X38496952Y-49252190D01*
X38877905Y-49252190D01*
X37877905Y-49204571D02*
X37544571Y-49204571D01*
X37401714Y-49728381D02*
X37877905Y-49728381D01*
X37877905Y-48728381D01*
X37401714Y-48728381D01*
X37020762Y-49680762D02*
X36877905Y-49728381D01*
X36639809Y-49728381D01*
X36544571Y-49680762D01*
X36496952Y-49633143D01*
X36449333Y-49537905D01*
X36449333Y-49442667D01*
X36496952Y-49347429D01*
X36544571Y-49299810D01*
X36639809Y-49252190D01*
X36830286Y-49204571D01*
X36925524Y-49156952D01*
X36973143Y-49109333D01*
X37020762Y-49014095D01*
X37020762Y-48918857D01*
X36973143Y-48823619D01*
X36925524Y-48776000D01*
X36830286Y-48728381D01*
X36592190Y-48728381D01*
X36449333Y-48776000D01*
X36020762Y-49204571D02*
X35687428Y-49204571D01*
X35544571Y-49728381D02*
X36020762Y-49728381D01*
X36020762Y-48728381D01*
X35544571Y-48728381D01*
X35258857Y-48728381D02*
X34687428Y-48728381D01*
X34973143Y-49728381D02*
X34973143Y-48728381D01*
X38354095Y-51316000D02*
X38449333Y-51268381D01*
X38592190Y-51268381D01*
X38735048Y-51316000D01*
X38830286Y-51411238D01*
X38877905Y-51506476D01*
X38925524Y-51696952D01*
X38925524Y-51839810D01*
X38877905Y-52030286D01*
X38830286Y-52125524D01*
X38735048Y-52220762D01*
X38592190Y-52268381D01*
X38496952Y-52268381D01*
X38354095Y-52220762D01*
X38306476Y-52173143D01*
X38306476Y-51839810D01*
X38496952Y-51839810D01*
X37877905Y-52268381D02*
X37877905Y-51268381D01*
X37496952Y-51268381D01*
X37401714Y-51316000D01*
X37354095Y-51363619D01*
X37306476Y-51458857D01*
X37306476Y-51601714D01*
X37354095Y-51696952D01*
X37401714Y-51744571D01*
X37496952Y-51792190D01*
X37877905Y-51792190D01*
X36877905Y-52268381D02*
X36877905Y-51268381D01*
X36211239Y-51268381D02*
X36020762Y-51268381D01*
X35925524Y-51316000D01*
X35830286Y-51411238D01*
X35782667Y-51601714D01*
X35782667Y-51935048D01*
X35830286Y-52125524D01*
X35925524Y-52220762D01*
X36020762Y-52268381D01*
X36211239Y-52268381D01*
X36306477Y-52220762D01*
X36401715Y-52125524D01*
X36449334Y-51935048D01*
X36449334Y-51601714D01*
X36401715Y-51411238D01*
X36306477Y-51316000D01*
X36211239Y-51268381D01*
X35163620Y-51268381D02*
X35068381Y-51268381D01*
X34973143Y-51316000D01*
X34925524Y-51363619D01*
X34877905Y-51458857D01*
X34830286Y-51649333D01*
X34830286Y-51887429D01*
X34877905Y-52077905D01*
X34925524Y-52173143D01*
X34973143Y-52220762D01*
X35068381Y-52268381D01*
X35163620Y-52268381D01*
X35258858Y-52220762D01*
X35306477Y-52173143D01*
X35354096Y-52077905D01*
X35401715Y-51887429D01*
X35401715Y-51649333D01*
X35354096Y-51458857D01*
X35306477Y-51363619D01*
X35258858Y-51316000D01*
X35163620Y-51268381D01*
X38354095Y-53856000D02*
X38449333Y-53808381D01*
X38592190Y-53808381D01*
X38735048Y-53856000D01*
X38830286Y-53951238D01*
X38877905Y-54046476D01*
X38925524Y-54236952D01*
X38925524Y-54379810D01*
X38877905Y-54570286D01*
X38830286Y-54665524D01*
X38735048Y-54760762D01*
X38592190Y-54808381D01*
X38496952Y-54808381D01*
X38354095Y-54760762D01*
X38306476Y-54713143D01*
X38306476Y-54379810D01*
X38496952Y-54379810D01*
X37877905Y-54808381D02*
X37877905Y-53808381D01*
X37306476Y-54808381D01*
X37306476Y-53808381D01*
X36830286Y-54808381D02*
X36830286Y-53808381D01*
X36592191Y-53808381D01*
X36449333Y-53856000D01*
X36354095Y-53951238D01*
X36306476Y-54046476D01*
X36258857Y-54236952D01*
X36258857Y-54379810D01*
X36306476Y-54570286D01*
X36354095Y-54665524D01*
X36449333Y-54760762D01*
X36592191Y-54808381D01*
X36830286Y-54808381D01*
X62500000Y-45325000D02*
X61500000Y-45325000D01*
X61500000Y-46675000D02*
X62500000Y-46675000D01*
D12*
X67212185Y-38919173D02*
G75*
G02X72560000Y-38455170I2787815J-1080827D01*
G01*
X67212185Y-41080827D02*
G75*
G03X72560000Y-41544830I2787815J1080827D01*
G01*
X67745521Y-38919571D02*
G75*
G02X72254684Y-38920000I2254479J-1080429D01*
G01*
X67745521Y-41080429D02*
G75*
G03X72254684Y-41080000I2254479J1080429D01*
G01*
X72560000Y-38455000D02*
X72560000Y-38920000D01*
X72560000Y-41080000D02*
X72560000Y-41545000D01*
D11*
X60650000Y-58500000D02*
X60650000Y-57500000D01*
X62350000Y-57500000D02*
X62350000Y-58500000D01*
X58900000Y-57650000D02*
X58900000Y-58350000D01*
X60100000Y-58350000D02*
X60100000Y-57650000D01*
X52425000Y-52925000D02*
X52475000Y-52925000D01*
X52425000Y-57075000D02*
X52570000Y-57075000D01*
X57575000Y-57075000D02*
X57430000Y-57075000D01*
X57575000Y-52925000D02*
X57430000Y-52925000D01*
X52425000Y-52925000D02*
X52425000Y-57075000D01*
X57575000Y-52925000D02*
X57575000Y-57075000D01*
X52475000Y-52925000D02*
X52475000Y-51525000D01*
X62750714Y-40000000D02*
G75*
G03X62750714Y-40000000I-1750714J0D01*
G01*
X57775000Y-43225000D02*
X57800000Y-43225000D01*
X64225000Y-43225000D02*
X64200000Y-43225000D01*
X64225000Y-36775000D02*
X64200000Y-36775000D01*
X57800000Y-36775000D02*
X57775000Y-36775000D01*
X59700000Y-43225000D02*
X62300000Y-43225000D01*
X57775000Y-36775000D02*
X57775000Y-43225000D01*
X59700000Y-36775000D02*
X62300000Y-36775000D01*
X64225000Y-36775000D02*
X64225000Y-43225000D01*
D13*
G36*
X41831011Y-67714774D02*
X41218816Y-67714867D01*
X40664433Y-67715059D01*
X40165016Y-67715381D01*
X39717723Y-67715863D01*
X39319708Y-67716536D01*
X38968127Y-67717430D01*
X38660137Y-67718577D01*
X38392893Y-67720006D01*
X38163550Y-67721747D01*
X37969265Y-67723833D01*
X37807193Y-67726292D01*
X37674490Y-67729157D01*
X37568311Y-67732456D01*
X37485813Y-67736221D01*
X37424150Y-67740482D01*
X37380480Y-67745270D01*
X37351957Y-67750615D01*
X37335738Y-67756548D01*
X37328977Y-67763100D01*
X37328832Y-67770300D01*
X37328835Y-67770312D01*
X37338115Y-67808044D01*
X37360600Y-67902339D01*
X37395056Y-68047927D01*
X37440248Y-68239534D01*
X37494941Y-68471890D01*
X37557901Y-68739720D01*
X37627893Y-69037754D01*
X37703683Y-69360720D01*
X37784035Y-69703344D01*
X37867715Y-70060355D01*
X37953488Y-70426481D01*
X38040119Y-70796449D01*
X38126374Y-71164988D01*
X38211019Y-71526825D01*
X38292817Y-71876688D01*
X38370536Y-72209304D01*
X38442939Y-72519403D01*
X38508793Y-72801711D01*
X38566862Y-73050957D01*
X38615912Y-73261867D01*
X38654708Y-73429171D01*
X38682016Y-73547596D01*
X38689551Y-73580562D01*
X38756378Y-73874250D01*
X46295793Y-73874250D01*
X46379011Y-73517062D01*
X46398873Y-73431913D01*
X46431965Y-73290177D01*
X46477060Y-73097101D01*
X46532934Y-72857931D01*
X46598359Y-72577913D01*
X46672109Y-72262294D01*
X46752961Y-71916319D01*
X46839686Y-71545236D01*
X46931059Y-71154290D01*
X47025855Y-70748727D01*
X47093083Y-70461125D01*
X47187105Y-70057953D01*
X47276565Y-69672478D01*
X47360451Y-69309179D01*
X47437747Y-68972536D01*
X47507438Y-68667030D01*
X47568511Y-68397140D01*
X47619951Y-68167346D01*
X47660744Y-67982129D01*
X47689874Y-67845968D01*
X47706327Y-67763343D01*
X47709595Y-67738562D01*
X47676808Y-67735952D01*
X47583857Y-67733421D01*
X47434080Y-67730986D01*
X47230811Y-67728661D01*
X46977389Y-67726463D01*
X46677150Y-67724405D01*
X46333429Y-67722504D01*
X45949564Y-67720774D01*
X45528891Y-67719231D01*
X45074746Y-67717890D01*
X44590466Y-67716767D01*
X44079388Y-67715876D01*
X43544848Y-67715233D01*
X42990182Y-67714854D01*
X42503862Y-67714750D01*
X41831011Y-67714774D01*
X41831011Y-67714774D01*
G37*
X41831011Y-67714774D02*
X41218816Y-67714867D01*
X40664433Y-67715059D01*
X40165016Y-67715381D01*
X39717723Y-67715863D01*
X39319708Y-67716536D01*
X38968127Y-67717430D01*
X38660137Y-67718577D01*
X38392893Y-67720006D01*
X38163550Y-67721747D01*
X37969265Y-67723833D01*
X37807193Y-67726292D01*
X37674490Y-67729157D01*
X37568311Y-67732456D01*
X37485813Y-67736221D01*
X37424150Y-67740482D01*
X37380480Y-67745270D01*
X37351957Y-67750615D01*
X37335738Y-67756548D01*
X37328977Y-67763100D01*
X37328832Y-67770300D01*
X37328835Y-67770312D01*
X37338115Y-67808044D01*
X37360600Y-67902339D01*
X37395056Y-68047927D01*
X37440248Y-68239534D01*
X37494941Y-68471890D01*
X37557901Y-68739720D01*
X37627893Y-69037754D01*
X37703683Y-69360720D01*
X37784035Y-69703344D01*
X37867715Y-70060355D01*
X37953488Y-70426481D01*
X38040119Y-70796449D01*
X38126374Y-71164988D01*
X38211019Y-71526825D01*
X38292817Y-71876688D01*
X38370536Y-72209304D01*
X38442939Y-72519403D01*
X38508793Y-72801711D01*
X38566862Y-73050957D01*
X38615912Y-73261867D01*
X38654708Y-73429171D01*
X38682016Y-73547596D01*
X38689551Y-73580562D01*
X38756378Y-73874250D01*
X46295793Y-73874250D01*
X46379011Y-73517062D01*
X46398873Y-73431913D01*
X46431965Y-73290177D01*
X46477060Y-73097101D01*
X46532934Y-72857931D01*
X46598359Y-72577913D01*
X46672109Y-72262294D01*
X46752961Y-71916319D01*
X46839686Y-71545236D01*
X46931059Y-71154290D01*
X47025855Y-70748727D01*
X47093083Y-70461125D01*
X47187105Y-70057953D01*
X47276565Y-69672478D01*
X47360451Y-69309179D01*
X47437747Y-68972536D01*
X47507438Y-68667030D01*
X47568511Y-68397140D01*
X47619951Y-68167346D01*
X47660744Y-67982129D01*
X47689874Y-67845968D01*
X47706327Y-67763343D01*
X47709595Y-67738562D01*
X47676808Y-67735952D01*
X47583857Y-67733421D01*
X47434080Y-67730986D01*
X47230811Y-67728661D01*
X46977389Y-67726463D01*
X46677150Y-67724405D01*
X46333429Y-67722504D01*
X45949564Y-67720774D01*
X45528891Y-67719231D01*
X45074746Y-67717890D01*
X44590466Y-67716767D01*
X44079388Y-67715876D01*
X43544848Y-67715233D01*
X42990182Y-67714854D01*
X42503862Y-67714750D01*
X41831011Y-67714774D01*
G36*
X39198021Y-64766436D02*
X38818294Y-64766829D01*
X38482547Y-64767530D01*
X38187992Y-64768562D01*
X37931840Y-64769945D01*
X37711303Y-64771699D01*
X37523592Y-64773845D01*
X37365918Y-64776403D01*
X37235494Y-64779396D01*
X37129531Y-64782842D01*
X37045240Y-64786764D01*
X36979832Y-64791181D01*
X36930520Y-64796115D01*
X36894514Y-64801586D01*
X36869027Y-64807615D01*
X36857001Y-64811754D01*
X36660668Y-64917710D01*
X36507081Y-65065976D01*
X36427551Y-65184682D01*
X36333096Y-65349375D01*
X36332798Y-66151408D01*
X36333005Y-66399942D01*
X36334244Y-66593677D01*
X36337130Y-66741313D01*
X36342282Y-66851549D01*
X36350316Y-66933087D01*
X36361848Y-66994625D01*
X36377496Y-67044864D01*
X36397875Y-67092503D01*
X36399801Y-67096618D01*
X36488993Y-67235926D01*
X36613517Y-67365662D01*
X36753577Y-67467907D01*
X36866118Y-67518661D01*
X36899140Y-67523654D01*
X36964802Y-67528225D01*
X37065141Y-67532388D01*
X37202197Y-67536155D01*
X37378009Y-67539541D01*
X37594614Y-67542557D01*
X37854052Y-67545218D01*
X38158361Y-67547536D01*
X38509579Y-67549524D01*
X38909746Y-67551196D01*
X39360901Y-67552564D01*
X39865080Y-67553642D01*
X40424324Y-67554443D01*
X41040672Y-67554980D01*
X41716160Y-67555265D01*
X42452829Y-67555313D01*
X42559184Y-67555302D01*
X43257353Y-67555194D01*
X43894849Y-67555033D01*
X44474497Y-67554790D01*
X44999126Y-67554435D01*
X45471561Y-67553940D01*
X45894629Y-67553276D01*
X46271157Y-67552413D01*
X46603971Y-67551322D01*
X46895898Y-67549974D01*
X47149764Y-67548340D01*
X47368396Y-67546391D01*
X47554621Y-67544098D01*
X47711266Y-67541431D01*
X47841156Y-67538361D01*
X47947119Y-67534860D01*
X48031981Y-67530898D01*
X48098568Y-67526446D01*
X48149708Y-67521474D01*
X48188227Y-67515955D01*
X48216951Y-67509858D01*
X48238708Y-67503154D01*
X48254625Y-67496597D01*
X48410626Y-67397423D01*
X48552815Y-67256207D01*
X48655135Y-67103196D01*
X48674109Y-67061738D01*
X48688756Y-67014554D01*
X48699630Y-66953271D01*
X48707285Y-66869518D01*
X48712272Y-66754925D01*
X48715146Y-66601119D01*
X48716460Y-66399730D01*
X48716765Y-66170584D01*
X48716502Y-65920188D01*
X48715244Y-65724729D01*
X48712393Y-65575642D01*
X48707350Y-65464365D01*
X48706981Y-65460500D01*
X45889250Y-65460500D01*
X45889250Y-66635250D01*
X45571750Y-66635250D01*
X45571750Y-66325954D01*
X45347645Y-66303872D01*
X45169294Y-66272855D01*
X45043876Y-66216300D01*
X44963728Y-66127646D01*
X44958272Y-66111316D01*
X44795526Y-66111316D01*
X44791944Y-66272896D01*
X44736314Y-66412376D01*
X44638056Y-66523606D01*
X44506587Y-66600435D01*
X44351326Y-66636712D01*
X44181689Y-66626285D01*
X44063301Y-66589535D01*
X43938237Y-66507085D01*
X43861439Y-66384047D01*
X43832548Y-66219726D01*
X43834046Y-66146461D01*
X43845598Y-66033842D01*
X43869567Y-65959015D01*
X43916971Y-65896288D01*
X43958492Y-65856291D01*
X44097186Y-65765732D01*
X44250071Y-65725303D01*
X44404916Y-65731277D01*
X44549490Y-65779928D01*
X44671562Y-65867530D01*
X44758903Y-65990356D01*
X44795526Y-66111316D01*
X44958272Y-66111316D01*
X44921187Y-66000334D01*
X44912492Y-65931401D01*
X44912966Y-65772437D01*
X44947596Y-65650855D01*
X45021671Y-65562766D01*
X45140480Y-65504279D01*
X45309314Y-65471504D01*
X45533460Y-65460550D01*
X45552736Y-65460500D01*
X45889250Y-65460500D01*
X48706981Y-65460500D01*
X48700916Y-65397000D01*
X43670932Y-65397000D01*
X43660904Y-65934281D01*
X43656846Y-66131280D01*
X43652179Y-66275121D01*
X43645451Y-66376140D01*
X43635209Y-66444674D01*
X43620001Y-66491060D01*
X43598373Y-66525633D01*
X43573904Y-66553406D01*
X43508753Y-66607026D01*
X43429872Y-66630928D01*
X43343716Y-66635250D01*
X43190500Y-66635250D01*
X43190500Y-66508250D01*
X43195024Y-66426236D01*
X43215594Y-66389800D01*
X43262707Y-66381261D01*
X43265907Y-66381250D01*
X43306823Y-66373560D01*
X43336952Y-66345136D01*
X43357858Y-66287947D01*
X43371104Y-66193961D01*
X43378252Y-66055149D01*
X43380866Y-65863477D01*
X43381000Y-65789906D01*
X43381000Y-65746250D01*
X43095250Y-65746250D01*
X43095250Y-66017701D01*
X43085979Y-66212622D01*
X43056328Y-66354840D01*
X43003537Y-66452657D01*
X42931389Y-66510985D01*
X42822304Y-66541342D01*
X42692048Y-66539781D01*
X42573324Y-66508002D01*
X42541587Y-66490740D01*
X42484807Y-66456965D01*
X42463494Y-66465898D01*
X42460251Y-66525059D01*
X42460250Y-66525910D01*
X42485575Y-66632621D01*
X42556766Y-66701454D01*
X42666653Y-66729449D01*
X42808063Y-66713642D01*
X42869883Y-66695079D01*
X42946992Y-66672330D01*
X42987002Y-66683033D01*
X43009051Y-66738895D01*
X43019113Y-66786376D01*
X43027025Y-66845743D01*
X43011375Y-66881832D01*
X42958656Y-66909485D01*
X42884506Y-66934305D01*
X42706958Y-66967339D01*
X42531839Y-66958585D01*
X42381762Y-66909497D01*
X42366686Y-66901070D01*
X42301158Y-66855497D01*
X42252307Y-66800457D01*
X42217028Y-66725729D01*
X42192216Y-66621092D01*
X42174766Y-66476325D01*
X42161574Y-66281209D01*
X42158142Y-66214562D01*
X42135074Y-65746250D01*
X42460250Y-65746250D01*
X42460250Y-65966232D01*
X42469657Y-66120582D01*
X42500361Y-66220199D01*
X42556088Y-66271370D01*
X42640564Y-66280382D01*
X42646069Y-66279786D01*
X42727801Y-66242844D01*
X42780906Y-66153172D01*
X42806352Y-66008681D01*
X42809032Y-65928812D01*
X42809500Y-65746250D01*
X43095250Y-65746250D01*
X43381000Y-65746250D01*
X43381000Y-65460500D01*
X41920500Y-65460500D01*
X41920500Y-66635250D01*
X41634750Y-66635250D01*
X41634750Y-66326519D01*
X41422888Y-66304813D01*
X41298067Y-66285441D01*
X41186265Y-66256864D01*
X41121278Y-66230091D01*
X41057316Y-66168042D01*
X40840882Y-66168042D01*
X40816922Y-66341179D01*
X40748256Y-66479134D01*
X40639303Y-66573860D01*
X40610188Y-66588177D01*
X40470162Y-66625742D01*
X40314108Y-66631962D01*
X40168894Y-66607612D01*
X40088663Y-66573147D01*
X39962261Y-66461888D01*
X39885351Y-66319619D01*
X39862317Y-66159795D01*
X39897546Y-65995871D01*
X39899197Y-65991872D01*
X39982518Y-65867797D01*
X40104250Y-65781237D01*
X40250380Y-65733871D01*
X40406895Y-65727381D01*
X40559783Y-65763447D01*
X40695030Y-65843750D01*
X40742850Y-65890672D01*
X40804512Y-65972370D01*
X40833471Y-66052325D01*
X40840877Y-66162080D01*
X40840882Y-66168042D01*
X41057316Y-66168042D01*
X41039012Y-66150286D01*
X40976993Y-66032581D01*
X40945269Y-65901754D01*
X40948500Y-65804064D01*
X40988110Y-65676364D01*
X41053811Y-65582513D01*
X41144738Y-65524000D01*
X39739623Y-65524000D01*
X39719878Y-66005006D01*
X39711483Y-66192034D01*
X39702928Y-66326553D01*
X39692438Y-66419532D01*
X39678239Y-66481942D01*
X39658558Y-66524752D01*
X39631620Y-66558931D01*
X39630032Y-66560631D01*
X39562274Y-66612042D01*
X39472344Y-66632913D01*
X39414654Y-66634763D01*
X39317131Y-66628774D01*
X39243062Y-66614277D01*
X39226294Y-66606980D01*
X39197503Y-66552352D01*
X39203518Y-66487232D01*
X39230366Y-66419582D01*
X39283039Y-66396784D01*
X39310100Y-66395953D01*
X39355912Y-66393566D01*
X39382526Y-66375503D01*
X39396229Y-66327754D01*
X39403310Y-66236311D01*
X39405764Y-66182812D01*
X39415152Y-65968500D01*
X39302576Y-65968500D01*
X39227281Y-65963364D01*
X39196141Y-65937150D01*
X39190001Y-65873650D01*
X39190000Y-65873250D01*
X39196195Y-65809255D01*
X39227617Y-65783007D01*
X39301125Y-65778000D01*
X39372275Y-65774155D01*
X39403894Y-65750415D01*
X39412002Y-65688474D01*
X39412250Y-65651000D01*
X39412250Y-65524000D01*
X39739623Y-65524000D01*
X41144738Y-65524000D01*
X41153522Y-65518348D01*
X41295158Y-65479707D01*
X41486636Y-65462429D01*
X41601981Y-65460500D01*
X41920500Y-65460500D01*
X43381000Y-65460500D01*
X43381000Y-65397000D01*
X43670932Y-65397000D01*
X48700916Y-65397000D01*
X48699515Y-65382334D01*
X48688291Y-65320986D01*
X48673078Y-65271759D01*
X48653277Y-65226088D01*
X48650276Y-65219845D01*
X48544894Y-65062803D01*
X48397297Y-64924100D01*
X48241060Y-64829465D01*
X48222773Y-64822962D01*
X48195904Y-64817008D01*
X48157669Y-64811574D01*
X48105284Y-64806630D01*
X48035964Y-64802147D01*
X47946925Y-64798096D01*
X47835382Y-64794447D01*
X47698552Y-64791170D01*
X47533651Y-64788237D01*
X47337893Y-64785617D01*
X47108495Y-64783282D01*
X46842673Y-64781202D01*
X46537641Y-64779348D01*
X46190617Y-64777690D01*
X45798816Y-64776199D01*
X45359453Y-64774845D01*
X44869744Y-64773599D01*
X44326905Y-64772432D01*
X43728152Y-64771314D01*
X43070700Y-64770215D01*
X42556126Y-64769415D01*
X41853958Y-64768387D01*
X41212502Y-64767544D01*
X40628969Y-64766907D01*
X40100570Y-64766496D01*
X39624517Y-64766332D01*
X39198021Y-64766436D01*
X39198021Y-64766436D01*
G37*
X39198021Y-64766436D02*
X38818294Y-64766829D01*
X38482547Y-64767530D01*
X38187992Y-64768562D01*
X37931840Y-64769945D01*
X37711303Y-64771699D01*
X37523592Y-64773845D01*
X37365918Y-64776403D01*
X37235494Y-64779396D01*
X37129531Y-64782842D01*
X37045240Y-64786764D01*
X36979832Y-64791181D01*
X36930520Y-64796115D01*
X36894514Y-64801586D01*
X36869027Y-64807615D01*
X36857001Y-64811754D01*
X36660668Y-64917710D01*
X36507081Y-65065976D01*
X36427551Y-65184682D01*
X36333096Y-65349375D01*
X36332798Y-66151408D01*
X36333005Y-66399942D01*
X36334244Y-66593677D01*
X36337130Y-66741313D01*
X36342282Y-66851549D01*
X36350316Y-66933087D01*
X36361848Y-66994625D01*
X36377496Y-67044864D01*
X36397875Y-67092503D01*
X36399801Y-67096618D01*
X36488993Y-67235926D01*
X36613517Y-67365662D01*
X36753577Y-67467907D01*
X36866118Y-67518661D01*
X36899140Y-67523654D01*
X36964802Y-67528225D01*
X37065141Y-67532388D01*
X37202197Y-67536155D01*
X37378009Y-67539541D01*
X37594614Y-67542557D01*
X37854052Y-67545218D01*
X38158361Y-67547536D01*
X38509579Y-67549524D01*
X38909746Y-67551196D01*
X39360901Y-67552564D01*
X39865080Y-67553642D01*
X40424324Y-67554443D01*
X41040672Y-67554980D01*
X41716160Y-67555265D01*
X42452829Y-67555313D01*
X42559184Y-67555302D01*
X43257353Y-67555194D01*
X43894849Y-67555033D01*
X44474497Y-67554790D01*
X44999126Y-67554435D01*
X45471561Y-67553940D01*
X45894629Y-67553276D01*
X46271157Y-67552413D01*
X46603971Y-67551322D01*
X46895898Y-67549974D01*
X47149764Y-67548340D01*
X47368396Y-67546391D01*
X47554621Y-67544098D01*
X47711266Y-67541431D01*
X47841156Y-67538361D01*
X47947119Y-67534860D01*
X48031981Y-67530898D01*
X48098568Y-67526446D01*
X48149708Y-67521474D01*
X48188227Y-67515955D01*
X48216951Y-67509858D01*
X48238708Y-67503154D01*
X48254625Y-67496597D01*
X48410626Y-67397423D01*
X48552815Y-67256207D01*
X48655135Y-67103196D01*
X48674109Y-67061738D01*
X48688756Y-67014554D01*
X48699630Y-66953271D01*
X48707285Y-66869518D01*
X48712272Y-66754925D01*
X48715146Y-66601119D01*
X48716460Y-66399730D01*
X48716765Y-66170584D01*
X48716502Y-65920188D01*
X48715244Y-65724729D01*
X48712393Y-65575642D01*
X48707350Y-65464365D01*
X48706981Y-65460500D01*
X45889250Y-65460500D01*
X45889250Y-66635250D01*
X45571750Y-66635250D01*
X45571750Y-66325954D01*
X45347645Y-66303872D01*
X45169294Y-66272855D01*
X45043876Y-66216300D01*
X44963728Y-66127646D01*
X44958272Y-66111316D01*
X44795526Y-66111316D01*
X44791944Y-66272896D01*
X44736314Y-66412376D01*
X44638056Y-66523606D01*
X44506587Y-66600435D01*
X44351326Y-66636712D01*
X44181689Y-66626285D01*
X44063301Y-66589535D01*
X43938237Y-66507085D01*
X43861439Y-66384047D01*
X43832548Y-66219726D01*
X43834046Y-66146461D01*
X43845598Y-66033842D01*
X43869567Y-65959015D01*
X43916971Y-65896288D01*
X43958492Y-65856291D01*
X44097186Y-65765732D01*
X44250071Y-65725303D01*
X44404916Y-65731277D01*
X44549490Y-65779928D01*
X44671562Y-65867530D01*
X44758903Y-65990356D01*
X44795526Y-66111316D01*
X44958272Y-66111316D01*
X44921187Y-66000334D01*
X44912492Y-65931401D01*
X44912966Y-65772437D01*
X44947596Y-65650855D01*
X45021671Y-65562766D01*
X45140480Y-65504279D01*
X45309314Y-65471504D01*
X45533460Y-65460550D01*
X45552736Y-65460500D01*
X45889250Y-65460500D01*
X48706981Y-65460500D01*
X48700916Y-65397000D01*
X43670932Y-65397000D01*
X43660904Y-65934281D01*
X43656846Y-66131280D01*
X43652179Y-66275121D01*
X43645451Y-66376140D01*
X43635209Y-66444674D01*
X43620001Y-66491060D01*
X43598373Y-66525633D01*
X43573904Y-66553406D01*
X43508753Y-66607026D01*
X43429872Y-66630928D01*
X43343716Y-66635250D01*
X43190500Y-66635250D01*
X43190500Y-66508250D01*
X43195024Y-66426236D01*
X43215594Y-66389800D01*
X43262707Y-66381261D01*
X43265907Y-66381250D01*
X43306823Y-66373560D01*
X43336952Y-66345136D01*
X43357858Y-66287947D01*
X43371104Y-66193961D01*
X43378252Y-66055149D01*
X43380866Y-65863477D01*
X43381000Y-65789906D01*
X43381000Y-65746250D01*
X43095250Y-65746250D01*
X43095250Y-66017701D01*
X43085979Y-66212622D01*
X43056328Y-66354840D01*
X43003537Y-66452657D01*
X42931389Y-66510985D01*
X42822304Y-66541342D01*
X42692048Y-66539781D01*
X42573324Y-66508002D01*
X42541587Y-66490740D01*
X42484807Y-66456965D01*
X42463494Y-66465898D01*
X42460251Y-66525059D01*
X42460250Y-66525910D01*
X42485575Y-66632621D01*
X42556766Y-66701454D01*
X42666653Y-66729449D01*
X42808063Y-66713642D01*
X42869883Y-66695079D01*
X42946992Y-66672330D01*
X42987002Y-66683033D01*
X43009051Y-66738895D01*
X43019113Y-66786376D01*
X43027025Y-66845743D01*
X43011375Y-66881832D01*
X42958656Y-66909485D01*
X42884506Y-66934305D01*
X42706958Y-66967339D01*
X42531839Y-66958585D01*
X42381762Y-66909497D01*
X42366686Y-66901070D01*
X42301158Y-66855497D01*
X42252307Y-66800457D01*
X42217028Y-66725729D01*
X42192216Y-66621092D01*
X42174766Y-66476325D01*
X42161574Y-66281209D01*
X42158142Y-66214562D01*
X42135074Y-65746250D01*
X42460250Y-65746250D01*
X42460250Y-65966232D01*
X42469657Y-66120582D01*
X42500361Y-66220199D01*
X42556088Y-66271370D01*
X42640564Y-66280382D01*
X42646069Y-66279786D01*
X42727801Y-66242844D01*
X42780906Y-66153172D01*
X42806352Y-66008681D01*
X42809032Y-65928812D01*
X42809500Y-65746250D01*
X43095250Y-65746250D01*
X43381000Y-65746250D01*
X43381000Y-65460500D01*
X41920500Y-65460500D01*
X41920500Y-66635250D01*
X41634750Y-66635250D01*
X41634750Y-66326519D01*
X41422888Y-66304813D01*
X41298067Y-66285441D01*
X41186265Y-66256864D01*
X41121278Y-66230091D01*
X41057316Y-66168042D01*
X40840882Y-66168042D01*
X40816922Y-66341179D01*
X40748256Y-66479134D01*
X40639303Y-66573860D01*
X40610188Y-66588177D01*
X40470162Y-66625742D01*
X40314108Y-66631962D01*
X40168894Y-66607612D01*
X40088663Y-66573147D01*
X39962261Y-66461888D01*
X39885351Y-66319619D01*
X39862317Y-66159795D01*
X39897546Y-65995871D01*
X39899197Y-65991872D01*
X39982518Y-65867797D01*
X40104250Y-65781237D01*
X40250380Y-65733871D01*
X40406895Y-65727381D01*
X40559783Y-65763447D01*
X40695030Y-65843750D01*
X40742850Y-65890672D01*
X40804512Y-65972370D01*
X40833471Y-66052325D01*
X40840877Y-66162080D01*
X40840882Y-66168042D01*
X41057316Y-66168042D01*
X41039012Y-66150286D01*
X40976993Y-66032581D01*
X40945269Y-65901754D01*
X40948500Y-65804064D01*
X40988110Y-65676364D01*
X41053811Y-65582513D01*
X41144738Y-65524000D01*
X39739623Y-65524000D01*
X39719878Y-66005006D01*
X39711483Y-66192034D01*
X39702928Y-66326553D01*
X39692438Y-66419532D01*
X39678239Y-66481942D01*
X39658558Y-66524752D01*
X39631620Y-66558931D01*
X39630032Y-66560631D01*
X39562274Y-66612042D01*
X39472344Y-66632913D01*
X39414654Y-66634763D01*
X39317131Y-66628774D01*
X39243062Y-66614277D01*
X39226294Y-66606980D01*
X39197503Y-66552352D01*
X39203518Y-66487232D01*
X39230366Y-66419582D01*
X39283039Y-66396784D01*
X39310100Y-66395953D01*
X39355912Y-66393566D01*
X39382526Y-66375503D01*
X39396229Y-66327754D01*
X39403310Y-66236311D01*
X39405764Y-66182812D01*
X39415152Y-65968500D01*
X39302576Y-65968500D01*
X39227281Y-65963364D01*
X39196141Y-65937150D01*
X39190001Y-65873650D01*
X39190000Y-65873250D01*
X39196195Y-65809255D01*
X39227617Y-65783007D01*
X39301125Y-65778000D01*
X39372275Y-65774155D01*
X39403894Y-65750415D01*
X39412002Y-65688474D01*
X39412250Y-65651000D01*
X39412250Y-65524000D01*
X39739623Y-65524000D01*
X41144738Y-65524000D01*
X41153522Y-65518348D01*
X41295158Y-65479707D01*
X41486636Y-65462429D01*
X41601981Y-65460500D01*
X41920500Y-65460500D01*
X43381000Y-65460500D01*
X43381000Y-65397000D01*
X43670932Y-65397000D01*
X48700916Y-65397000D01*
X48699515Y-65382334D01*
X48688291Y-65320986D01*
X48673078Y-65271759D01*
X48653277Y-65226088D01*
X48650276Y-65219845D01*
X48544894Y-65062803D01*
X48397297Y-64924100D01*
X48241060Y-64829465D01*
X48222773Y-64822962D01*
X48195904Y-64817008D01*
X48157669Y-64811574D01*
X48105284Y-64806630D01*
X48035964Y-64802147D01*
X47946925Y-64798096D01*
X47835382Y-64794447D01*
X47698552Y-64791170D01*
X47533651Y-64788237D01*
X47337893Y-64785617D01*
X47108495Y-64783282D01*
X46842673Y-64781202D01*
X46537641Y-64779348D01*
X46190617Y-64777690D01*
X45798816Y-64776199D01*
X45359453Y-64774845D01*
X44869744Y-64773599D01*
X44326905Y-64772432D01*
X43728152Y-64771314D01*
X43070700Y-64770215D01*
X42556126Y-64769415D01*
X41853958Y-64768387D01*
X41212502Y-64767544D01*
X40628969Y-64766907D01*
X40100570Y-64766496D01*
X39624517Y-64766332D01*
X39198021Y-64766436D01*
G36*
X43066842Y-63532835D02*
X42956312Y-63633929D01*
X42838787Y-63731898D01*
X42741421Y-63804320D01*
X42657694Y-63873859D01*
X42548938Y-63984103D01*
X42426064Y-64123405D01*
X42320815Y-64253214D01*
X42047662Y-64603250D01*
X43419634Y-64603250D01*
X43401551Y-64531201D01*
X43381539Y-64434967D01*
X43357184Y-64293357D01*
X43331082Y-64124116D01*
X43305832Y-63944987D01*
X43284029Y-63773715D01*
X43268273Y-63628044D01*
X43266518Y-63608667D01*
X43244808Y-63360209D01*
X43066842Y-63532835D01*
X43066842Y-63532835D01*
G37*
X43066842Y-63532835D02*
X42956312Y-63633929D01*
X42838787Y-63731898D01*
X42741421Y-63804320D01*
X42657694Y-63873859D01*
X42548938Y-63984103D01*
X42426064Y-64123405D01*
X42320815Y-64253214D01*
X42047662Y-64603250D01*
X43419634Y-64603250D01*
X43401551Y-64531201D01*
X43381539Y-64434967D01*
X43357184Y-64293357D01*
X43331082Y-64124116D01*
X43305832Y-63944987D01*
X43284029Y-63773715D01*
X43268273Y-63628044D01*
X43266518Y-63608667D01*
X43244808Y-63360209D01*
X43066842Y-63532835D01*
G36*
X49266128Y-56034855D02*
X49232139Y-56095317D01*
X49197210Y-56180026D01*
X49068130Y-56450320D01*
X48884243Y-56714576D01*
X48654220Y-56965117D01*
X48386731Y-57194266D01*
X48090450Y-57394347D01*
X47774045Y-57557682D01*
X47538921Y-57648130D01*
X47405090Y-57689806D01*
X47275357Y-57724117D01*
X47141595Y-57751832D01*
X46995678Y-57773720D01*
X46829479Y-57790550D01*
X46634870Y-57803091D01*
X46403724Y-57812111D01*
X46127915Y-57818380D01*
X45799315Y-57822667D01*
X45682875Y-57823735D01*
X45333704Y-57827533D01*
X45039664Y-57833414D01*
X44792392Y-57842777D01*
X44583525Y-57857024D01*
X44404698Y-57877554D01*
X44247547Y-57905768D01*
X44103708Y-57943065D01*
X43964817Y-57990847D01*
X43822510Y-58050513D01*
X43668422Y-58123464D01*
X43555625Y-58179864D01*
X43455736Y-58234615D01*
X43339256Y-58304764D01*
X43218459Y-58382066D01*
X43105622Y-58458278D01*
X43013018Y-58525154D01*
X42952923Y-58574452D01*
X42936500Y-58595692D01*
X42956260Y-58623512D01*
X43008655Y-58685897D01*
X43083363Y-58770649D01*
X43103188Y-58792655D01*
X43263511Y-58993867D01*
X43421646Y-59235823D01*
X43564390Y-59496727D01*
X43664864Y-59719865D01*
X43766464Y-60002613D01*
X43838068Y-60275876D01*
X43884182Y-60562012D01*
X43909314Y-60883382D01*
X43911908Y-60945362D01*
X43919353Y-61105908D01*
X43928373Y-61240191D01*
X43938012Y-61337273D01*
X43947313Y-61386220D01*
X43950750Y-61389862D01*
X43979538Y-61363540D01*
X44040256Y-61299581D01*
X44123259Y-61208345D01*
X44195762Y-61126625D01*
X44397243Y-60904478D01*
X44591495Y-60707541D01*
X44786271Y-60530698D01*
X44989328Y-60368829D01*
X45208421Y-60216817D01*
X45451304Y-60069544D01*
X45725733Y-59921893D01*
X46039463Y-59768745D01*
X46400248Y-59604983D01*
X46696414Y-59476384D01*
X47065863Y-59315850D01*
X47381579Y-59172501D01*
X47649618Y-59042143D01*
X47876038Y-58920578D01*
X48066898Y-58803611D01*
X48228255Y-58687045D01*
X48366166Y-58566684D01*
X48486690Y-58438333D01*
X48595885Y-58297794D01*
X48699807Y-58140872D01*
X48753906Y-58051180D01*
X48826599Y-57949844D01*
X48890285Y-57906182D01*
X48942003Y-57921850D01*
X48955057Y-57938874D01*
X48952494Y-57986257D01*
X48920348Y-58074196D01*
X48864846Y-58190807D01*
X48792212Y-58324205D01*
X48708673Y-58462505D01*
X48620454Y-58593824D01*
X48590571Y-58634675D01*
X48430519Y-58827386D01*
X48231866Y-59034740D01*
X48011644Y-59240766D01*
X47786888Y-59429495D01*
X47582835Y-59579465D01*
X47471065Y-59651219D01*
X47315750Y-59746124D01*
X47129111Y-59856965D01*
X46923374Y-59976527D01*
X46710759Y-60097595D01*
X46600071Y-60159567D01*
X46384514Y-60280125D01*
X46165193Y-60403950D01*
X45955365Y-60523474D01*
X45768286Y-60631128D01*
X45617213Y-60719345D01*
X45561412Y-60752543D01*
X45191266Y-60989058D01*
X44849780Y-61235649D01*
X44542020Y-61487482D01*
X44273054Y-61739722D01*
X44047948Y-61987535D01*
X43871768Y-62226087D01*
X43749580Y-62450545D01*
X43729291Y-62500613D01*
X43696119Y-62600685D01*
X43676935Y-62697187D01*
X43669360Y-62810955D01*
X43671016Y-62962826D01*
X43672270Y-63000273D01*
X43680686Y-63161256D01*
X43695120Y-63279511D01*
X43719717Y-63375780D01*
X43758620Y-63470806D01*
X43771734Y-63498164D01*
X43905073Y-63702469D01*
X44083382Y-63861970D01*
X44236637Y-63947826D01*
X44372698Y-63989496D01*
X44552852Y-64016017D01*
X44759447Y-64027069D01*
X44974833Y-64022331D01*
X45181358Y-64001484D01*
X45347691Y-63967981D01*
X45475190Y-63927172D01*
X45636248Y-63866158D01*
X45808054Y-63793963D01*
X45935066Y-63735590D01*
X46109916Y-63643905D01*
X46321164Y-63521136D01*
X46555666Y-63375922D01*
X46800277Y-63216900D01*
X47041851Y-63052705D01*
X47267244Y-62891976D01*
X47463311Y-62743350D01*
X47542271Y-62679570D01*
X47964734Y-62288590D01*
X48345127Y-61853990D01*
X48681508Y-61381361D01*
X48971937Y-60876296D01*
X49214471Y-60344388D01*
X49407170Y-59791229D01*
X49548091Y-59222412D01*
X49635293Y-58643529D01*
X49666834Y-58060173D01*
X49640773Y-57477937D01*
X49555168Y-56902412D01*
X49552480Y-56889286D01*
X49523681Y-56764264D01*
X49485133Y-56617115D01*
X49440971Y-56461418D01*
X49395331Y-56310755D01*
X49352348Y-56178705D01*
X49316158Y-56078849D01*
X49290896Y-56024768D01*
X49288151Y-56021276D01*
X49266128Y-56034855D01*
X49266128Y-56034855D01*
G37*
X49266128Y-56034855D02*
X49232139Y-56095317D01*
X49197210Y-56180026D01*
X49068130Y-56450320D01*
X48884243Y-56714576D01*
X48654220Y-56965117D01*
X48386731Y-57194266D01*
X48090450Y-57394347D01*
X47774045Y-57557682D01*
X47538921Y-57648130D01*
X47405090Y-57689806D01*
X47275357Y-57724117D01*
X47141595Y-57751832D01*
X46995678Y-57773720D01*
X46829479Y-57790550D01*
X46634870Y-57803091D01*
X46403724Y-57812111D01*
X46127915Y-57818380D01*
X45799315Y-57822667D01*
X45682875Y-57823735D01*
X45333704Y-57827533D01*
X45039664Y-57833414D01*
X44792392Y-57842777D01*
X44583525Y-57857024D01*
X44404698Y-57877554D01*
X44247547Y-57905768D01*
X44103708Y-57943065D01*
X43964817Y-57990847D01*
X43822510Y-58050513D01*
X43668422Y-58123464D01*
X43555625Y-58179864D01*
X43455736Y-58234615D01*
X43339256Y-58304764D01*
X43218459Y-58382066D01*
X43105622Y-58458278D01*
X43013018Y-58525154D01*
X42952923Y-58574452D01*
X42936500Y-58595692D01*
X42956260Y-58623512D01*
X43008655Y-58685897D01*
X43083363Y-58770649D01*
X43103188Y-58792655D01*
X43263511Y-58993867D01*
X43421646Y-59235823D01*
X43564390Y-59496727D01*
X43664864Y-59719865D01*
X43766464Y-60002613D01*
X43838068Y-60275876D01*
X43884182Y-60562012D01*
X43909314Y-60883382D01*
X43911908Y-60945362D01*
X43919353Y-61105908D01*
X43928373Y-61240191D01*
X43938012Y-61337273D01*
X43947313Y-61386220D01*
X43950750Y-61389862D01*
X43979538Y-61363540D01*
X44040256Y-61299581D01*
X44123259Y-61208345D01*
X44195762Y-61126625D01*
X44397243Y-60904478D01*
X44591495Y-60707541D01*
X44786271Y-60530698D01*
X44989328Y-60368829D01*
X45208421Y-60216817D01*
X45451304Y-60069544D01*
X45725733Y-59921893D01*
X46039463Y-59768745D01*
X46400248Y-59604983D01*
X46696414Y-59476384D01*
X47065863Y-59315850D01*
X47381579Y-59172501D01*
X47649618Y-59042143D01*
X47876038Y-58920578D01*
X48066898Y-58803611D01*
X48228255Y-58687045D01*
X48366166Y-58566684D01*
X48486690Y-58438333D01*
X48595885Y-58297794D01*
X48699807Y-58140872D01*
X48753906Y-58051180D01*
X48826599Y-57949844D01*
X48890285Y-57906182D01*
X48942003Y-57921850D01*
X48955057Y-57938874D01*
X48952494Y-57986257D01*
X48920348Y-58074196D01*
X48864846Y-58190807D01*
X48792212Y-58324205D01*
X48708673Y-58462505D01*
X48620454Y-58593824D01*
X48590571Y-58634675D01*
X48430519Y-58827386D01*
X48231866Y-59034740D01*
X48011644Y-59240766D01*
X47786888Y-59429495D01*
X47582835Y-59579465D01*
X47471065Y-59651219D01*
X47315750Y-59746124D01*
X47129111Y-59856965D01*
X46923374Y-59976527D01*
X46710759Y-60097595D01*
X46600071Y-60159567D01*
X46384514Y-60280125D01*
X46165193Y-60403950D01*
X45955365Y-60523474D01*
X45768286Y-60631128D01*
X45617213Y-60719345D01*
X45561412Y-60752543D01*
X45191266Y-60989058D01*
X44849780Y-61235649D01*
X44542020Y-61487482D01*
X44273054Y-61739722D01*
X44047948Y-61987535D01*
X43871768Y-62226087D01*
X43749580Y-62450545D01*
X43729291Y-62500613D01*
X43696119Y-62600685D01*
X43676935Y-62697187D01*
X43669360Y-62810955D01*
X43671016Y-62962826D01*
X43672270Y-63000273D01*
X43680686Y-63161256D01*
X43695120Y-63279511D01*
X43719717Y-63375780D01*
X43758620Y-63470806D01*
X43771734Y-63498164D01*
X43905073Y-63702469D01*
X44083382Y-63861970D01*
X44236637Y-63947826D01*
X44372698Y-63989496D01*
X44552852Y-64016017D01*
X44759447Y-64027069D01*
X44974833Y-64022331D01*
X45181358Y-64001484D01*
X45347691Y-63967981D01*
X45475190Y-63927172D01*
X45636248Y-63866158D01*
X45808054Y-63793963D01*
X45935066Y-63735590D01*
X46109916Y-63643905D01*
X46321164Y-63521136D01*
X46555666Y-63375922D01*
X46800277Y-63216900D01*
X47041851Y-63052705D01*
X47267244Y-62891976D01*
X47463311Y-62743350D01*
X47542271Y-62679570D01*
X47964734Y-62288590D01*
X48345127Y-61853990D01*
X48681508Y-61381361D01*
X48971937Y-60876296D01*
X49214471Y-60344388D01*
X49407170Y-59791229D01*
X49548091Y-59222412D01*
X49635293Y-58643529D01*
X49666834Y-58060173D01*
X49640773Y-57477937D01*
X49555168Y-56902412D01*
X49552480Y-56889286D01*
X49523681Y-56764264D01*
X49485133Y-56617115D01*
X49440971Y-56461418D01*
X49395331Y-56310755D01*
X49352348Y-56178705D01*
X49316158Y-56078849D01*
X49290896Y-56024768D01*
X49288151Y-56021276D01*
X49266128Y-56034855D01*
G36*
X39993610Y-54428615D02*
X39925648Y-54473971D01*
X39832992Y-54538583D01*
X39810357Y-54554678D01*
X39370670Y-54906552D01*
X38964233Y-55308908D01*
X38594960Y-55755913D01*
X38266767Y-56241732D01*
X37983567Y-56760532D01*
X37749274Y-57306477D01*
X37567802Y-57873735D01*
X37557551Y-57912656D01*
X37444106Y-58461075D01*
X37381877Y-59027585D01*
X37370945Y-59599323D01*
X37411389Y-60163424D01*
X37503288Y-60707026D01*
X37539295Y-60857902D01*
X37609511Y-61104257D01*
X37700107Y-61378232D01*
X37806027Y-61667702D01*
X37922217Y-61960545D01*
X38043622Y-62244637D01*
X38165188Y-62507854D01*
X38281860Y-62738074D01*
X38388584Y-62923171D01*
X38420946Y-62972561D01*
X38571420Y-63166404D01*
X38749335Y-63352777D01*
X38942269Y-63521497D01*
X39137797Y-63662382D01*
X39323497Y-63765250D01*
X39442113Y-63809501D01*
X39577853Y-63832280D01*
X39733079Y-63836690D01*
X39874468Y-63822588D01*
X39920250Y-63811559D01*
X40142919Y-63711668D01*
X40348813Y-63556478D01*
X40529685Y-63353614D01*
X40676463Y-63112374D01*
X40725686Y-63010720D01*
X40758550Y-62930994D01*
X40778178Y-62856013D01*
X40787689Y-62768593D01*
X40790206Y-62651550D01*
X40788915Y-62493249D01*
X40782260Y-62290252D01*
X40765918Y-62091193D01*
X40738084Y-61890683D01*
X40696956Y-61683338D01*
X40640730Y-61463769D01*
X40567602Y-61226590D01*
X40475769Y-60966416D01*
X40363427Y-60677858D01*
X40228772Y-60355530D01*
X40070001Y-59994046D01*
X39885310Y-59588019D01*
X39672896Y-59132062D01*
X39640343Y-59062875D01*
X39475715Y-58701638D01*
X39343379Y-58382405D01*
X39240432Y-58094326D01*
X39163970Y-57826551D01*
X39111090Y-57568228D01*
X39078890Y-57308509D01*
X39064466Y-57036542D01*
X39063000Y-56905009D01*
X39067691Y-56645284D01*
X39082030Y-56446137D01*
X39106423Y-56305323D01*
X39141273Y-56220597D01*
X39186984Y-56189715D01*
X39191721Y-56189500D01*
X39215100Y-56194200D01*
X39230986Y-56214927D01*
X39240649Y-56261617D01*
X39245355Y-56344207D01*
X39246376Y-56472635D01*
X39245436Y-56610187D01*
X39244971Y-56790050D01*
X39248927Y-56923895D01*
X39259431Y-57029163D01*
X39278612Y-57123296D01*
X39308596Y-57223735D01*
X39326826Y-57277503D01*
X39389694Y-57444827D01*
X39466941Y-57622445D01*
X39562556Y-57817979D01*
X39680527Y-58039053D01*
X39824843Y-58293289D01*
X39999492Y-58588311D01*
X40096838Y-58749226D01*
X40312117Y-59107656D01*
X40495663Y-59426227D01*
X40650465Y-59714563D01*
X40779513Y-59982286D01*
X40885795Y-60239018D01*
X40972302Y-60494380D01*
X41042023Y-60757996D01*
X41097946Y-61039487D01*
X41143062Y-61348477D01*
X41180359Y-61694586D01*
X41212827Y-62087437D01*
X41235546Y-62414574D01*
X41250793Y-62638292D01*
X41264236Y-62808970D01*
X41277481Y-62936975D01*
X41292138Y-63032677D01*
X41309811Y-63106441D01*
X41332110Y-63168638D01*
X41360641Y-63229634D01*
X41362457Y-63233227D01*
X41499573Y-63441108D01*
X41675543Y-63608621D01*
X41880526Y-63728893D01*
X42104679Y-63795049D01*
X42179171Y-63803690D01*
X42375762Y-63789747D01*
X42572832Y-63718103D01*
X42774371Y-63586933D01*
X42909023Y-63469490D01*
X43081150Y-63280974D01*
X43230074Y-63062592D01*
X43362467Y-62803054D01*
X43481575Y-62500819D01*
X43582246Y-62201852D01*
X43657306Y-61944171D01*
X43709797Y-61712393D01*
X43742758Y-61491134D01*
X43759230Y-61265013D01*
X43762591Y-61079000D01*
X43733749Y-60600712D01*
X43648086Y-60149435D01*
X43505936Y-59726119D01*
X43307633Y-59331714D01*
X43053511Y-58967169D01*
X42994783Y-58896481D01*
X42899561Y-58789545D01*
X42801962Y-58690817D01*
X42692600Y-58592488D01*
X42562088Y-58486747D01*
X42401040Y-58365785D01*
X42200068Y-58221792D01*
X42096323Y-58148951D01*
X41742857Y-57898406D01*
X41439118Y-57674826D01*
X41179934Y-57473261D01*
X40960137Y-57288762D01*
X40774555Y-57116378D01*
X40618019Y-56951159D01*
X40485359Y-56788155D01*
X40371403Y-56622415D01*
X40270983Y-56448991D01*
X40223024Y-56355401D01*
X40102694Y-56067253D01*
X40011964Y-55757699D01*
X39952959Y-55441450D01*
X39927803Y-55133219D01*
X39938619Y-54847717D01*
X39975610Y-54641687D01*
X40002922Y-54531763D01*
X40020228Y-54450398D01*
X40024418Y-54412541D01*
X40023503Y-54411500D01*
X39993610Y-54428615D01*
X39993610Y-54428615D01*
G37*
X39993610Y-54428615D02*
X39925648Y-54473971D01*
X39832992Y-54538583D01*
X39810357Y-54554678D01*
X39370670Y-54906552D01*
X38964233Y-55308908D01*
X38594960Y-55755913D01*
X38266767Y-56241732D01*
X37983567Y-56760532D01*
X37749274Y-57306477D01*
X37567802Y-57873735D01*
X37557551Y-57912656D01*
X37444106Y-58461075D01*
X37381877Y-59027585D01*
X37370945Y-59599323D01*
X37411389Y-60163424D01*
X37503288Y-60707026D01*
X37539295Y-60857902D01*
X37609511Y-61104257D01*
X37700107Y-61378232D01*
X37806027Y-61667702D01*
X37922217Y-61960545D01*
X38043622Y-62244637D01*
X38165188Y-62507854D01*
X38281860Y-62738074D01*
X38388584Y-62923171D01*
X38420946Y-62972561D01*
X38571420Y-63166404D01*
X38749335Y-63352777D01*
X38942269Y-63521497D01*
X39137797Y-63662382D01*
X39323497Y-63765250D01*
X39442113Y-63809501D01*
X39577853Y-63832280D01*
X39733079Y-63836690D01*
X39874468Y-63822588D01*
X39920250Y-63811559D01*
X40142919Y-63711668D01*
X40348813Y-63556478D01*
X40529685Y-63353614D01*
X40676463Y-63112374D01*
X40725686Y-63010720D01*
X40758550Y-62930994D01*
X40778178Y-62856013D01*
X40787689Y-62768593D01*
X40790206Y-62651550D01*
X40788915Y-62493249D01*
X40782260Y-62290252D01*
X40765918Y-62091193D01*
X40738084Y-61890683D01*
X40696956Y-61683338D01*
X40640730Y-61463769D01*
X40567602Y-61226590D01*
X40475769Y-60966416D01*
X40363427Y-60677858D01*
X40228772Y-60355530D01*
X40070001Y-59994046D01*
X39885310Y-59588019D01*
X39672896Y-59132062D01*
X39640343Y-59062875D01*
X39475715Y-58701638D01*
X39343379Y-58382405D01*
X39240432Y-58094326D01*
X39163970Y-57826551D01*
X39111090Y-57568228D01*
X39078890Y-57308509D01*
X39064466Y-57036542D01*
X39063000Y-56905009D01*
X39067691Y-56645284D01*
X39082030Y-56446137D01*
X39106423Y-56305323D01*
X39141273Y-56220597D01*
X39186984Y-56189715D01*
X39191721Y-56189500D01*
X39215100Y-56194200D01*
X39230986Y-56214927D01*
X39240649Y-56261617D01*
X39245355Y-56344207D01*
X39246376Y-56472635D01*
X39245436Y-56610187D01*
X39244971Y-56790050D01*
X39248927Y-56923895D01*
X39259431Y-57029163D01*
X39278612Y-57123296D01*
X39308596Y-57223735D01*
X39326826Y-57277503D01*
X39389694Y-57444827D01*
X39466941Y-57622445D01*
X39562556Y-57817979D01*
X39680527Y-58039053D01*
X39824843Y-58293289D01*
X39999492Y-58588311D01*
X40096838Y-58749226D01*
X40312117Y-59107656D01*
X40495663Y-59426227D01*
X40650465Y-59714563D01*
X40779513Y-59982286D01*
X40885795Y-60239018D01*
X40972302Y-60494380D01*
X41042023Y-60757996D01*
X41097946Y-61039487D01*
X41143062Y-61348477D01*
X41180359Y-61694586D01*
X41212827Y-62087437D01*
X41235546Y-62414574D01*
X41250793Y-62638292D01*
X41264236Y-62808970D01*
X41277481Y-62936975D01*
X41292138Y-63032677D01*
X41309811Y-63106441D01*
X41332110Y-63168638D01*
X41360641Y-63229634D01*
X41362457Y-63233227D01*
X41499573Y-63441108D01*
X41675543Y-63608621D01*
X41880526Y-63728893D01*
X42104679Y-63795049D01*
X42179171Y-63803690D01*
X42375762Y-63789747D01*
X42572832Y-63718103D01*
X42774371Y-63586933D01*
X42909023Y-63469490D01*
X43081150Y-63280974D01*
X43230074Y-63062592D01*
X43362467Y-62803054D01*
X43481575Y-62500819D01*
X43582246Y-62201852D01*
X43657306Y-61944171D01*
X43709797Y-61712393D01*
X43742758Y-61491134D01*
X43759230Y-61265013D01*
X43762591Y-61079000D01*
X43733749Y-60600712D01*
X43648086Y-60149435D01*
X43505936Y-59726119D01*
X43307633Y-59331714D01*
X43053511Y-58967169D01*
X42994783Y-58896481D01*
X42899561Y-58789545D01*
X42801962Y-58690817D01*
X42692600Y-58592488D01*
X42562088Y-58486747D01*
X42401040Y-58365785D01*
X42200068Y-58221792D01*
X42096323Y-58148951D01*
X41742857Y-57898406D01*
X41439118Y-57674826D01*
X41179934Y-57473261D01*
X40960137Y-57288762D01*
X40774555Y-57116378D01*
X40618019Y-56951159D01*
X40485359Y-56788155D01*
X40371403Y-56622415D01*
X40270983Y-56448991D01*
X40223024Y-56355401D01*
X40102694Y-56067253D01*
X40011964Y-55757699D01*
X39952959Y-55441450D01*
X39927803Y-55133219D01*
X39938619Y-54847717D01*
X39975610Y-54641687D01*
X40002922Y-54531763D01*
X40020228Y-54450398D01*
X40024418Y-54412541D01*
X40023503Y-54411500D01*
X39993610Y-54428615D01*
G36*
X44024643Y-54159397D02*
X44032138Y-54177618D01*
X44057672Y-54278203D01*
X44070829Y-54420269D01*
X44071537Y-54583004D01*
X44059726Y-54745593D01*
X44035327Y-54887222D01*
X44034544Y-54890358D01*
X43972929Y-55093968D01*
X43892576Y-55279024D01*
X43787436Y-55452732D01*
X43651457Y-55622294D01*
X43478591Y-55794917D01*
X43262786Y-55977805D01*
X42997992Y-56178162D01*
X42885222Y-56258993D01*
X42720267Y-56379034D01*
X42562919Y-56499343D01*
X42425008Y-56610447D01*
X42318362Y-56702871D01*
X42263687Y-56756793D01*
X42162892Y-56883939D01*
X42066328Y-57032677D01*
X41978696Y-57192114D01*
X41904696Y-57351360D01*
X41849029Y-57499521D01*
X41816396Y-57625706D01*
X41811496Y-57719024D01*
X41829910Y-57761948D01*
X41864186Y-57789040D01*
X41938595Y-57844508D01*
X42043438Y-57921370D01*
X42169016Y-58012645D01*
X42305628Y-58111350D01*
X42443575Y-58210504D01*
X42573159Y-58303123D01*
X42684678Y-58382227D01*
X42768435Y-58440832D01*
X42814729Y-58471957D01*
X42820688Y-58475154D01*
X42846796Y-58457898D01*
X42913385Y-58411678D01*
X43009197Y-58344347D01*
X43082363Y-58292592D01*
X43339351Y-58110375D01*
X43392662Y-57891233D01*
X43451344Y-57697149D01*
X43539833Y-57478884D01*
X43661116Y-57230259D01*
X43818180Y-56945094D01*
X43988224Y-56659251D01*
X44137000Y-56411676D01*
X44253151Y-56207006D01*
X44340429Y-56036098D01*
X44402583Y-55889807D01*
X44443365Y-55758989D01*
X44466525Y-55634501D01*
X44475814Y-55507199D01*
X44476445Y-55468972D01*
X44479739Y-55345889D01*
X44487037Y-55248272D01*
X44496946Y-55192695D01*
X44500160Y-55186756D01*
X44527079Y-55189447D01*
X44551773Y-55244395D01*
X44571706Y-55340356D01*
X44584340Y-55466089D01*
X44587500Y-55573780D01*
X44583324Y-55728781D01*
X44569121Y-55878682D01*
X44542383Y-56031137D01*
X44500598Y-56193802D01*
X44441258Y-56374329D01*
X44361852Y-56580374D01*
X44259871Y-56819590D01*
X44132805Y-57099632D01*
X43982343Y-57419340D01*
X43913010Y-57568644D01*
X43856675Y-57697170D01*
X43817694Y-57794387D01*
X43800423Y-57849761D01*
X43800820Y-57858153D01*
X43838238Y-57859096D01*
X43919313Y-57844144D01*
X44027138Y-57816480D01*
X44036772Y-57813709D01*
X44226744Y-57761690D01*
X44392166Y-57725048D01*
X44552505Y-57701279D01*
X44727231Y-57687881D01*
X44935814Y-57682348D01*
X45063029Y-57681750D01*
X45535431Y-57681750D01*
X45557629Y-57504081D01*
X45572019Y-57295743D01*
X45570883Y-57047966D01*
X45555749Y-56782481D01*
X45528146Y-56521017D01*
X45489602Y-56285303D01*
X45464062Y-56173625D01*
X45368748Y-55877604D01*
X45236610Y-55565935D01*
X45078487Y-55260253D01*
X44905218Y-54982195D01*
X44788655Y-54825343D01*
X44671206Y-54689646D01*
X44534263Y-54546747D01*
X44390549Y-54408528D01*
X44252785Y-54286876D01*
X44133692Y-54193675D01*
X44066749Y-54150914D01*
X44024216Y-54133664D01*
X44024643Y-54159397D01*
X44024643Y-54159397D01*
G37*
X44024643Y-54159397D02*
X44032138Y-54177618D01*
X44057672Y-54278203D01*
X44070829Y-54420269D01*
X44071537Y-54583004D01*
X44059726Y-54745593D01*
X44035327Y-54887222D01*
X44034544Y-54890358D01*
X43972929Y-55093968D01*
X43892576Y-55279024D01*
X43787436Y-55452732D01*
X43651457Y-55622294D01*
X43478591Y-55794917D01*
X43262786Y-55977805D01*
X42997992Y-56178162D01*
X42885222Y-56258993D01*
X42720267Y-56379034D01*
X42562919Y-56499343D01*
X42425008Y-56610447D01*
X42318362Y-56702871D01*
X42263687Y-56756793D01*
X42162892Y-56883939D01*
X42066328Y-57032677D01*
X41978696Y-57192114D01*
X41904696Y-57351360D01*
X41849029Y-57499521D01*
X41816396Y-57625706D01*
X41811496Y-57719024D01*
X41829910Y-57761948D01*
X41864186Y-57789040D01*
X41938595Y-57844508D01*
X42043438Y-57921370D01*
X42169016Y-58012645D01*
X42305628Y-58111350D01*
X42443575Y-58210504D01*
X42573159Y-58303123D01*
X42684678Y-58382227D01*
X42768435Y-58440832D01*
X42814729Y-58471957D01*
X42820688Y-58475154D01*
X42846796Y-58457898D01*
X42913385Y-58411678D01*
X43009197Y-58344347D01*
X43082363Y-58292592D01*
X43339351Y-58110375D01*
X43392662Y-57891233D01*
X43451344Y-57697149D01*
X43539833Y-57478884D01*
X43661116Y-57230259D01*
X43818180Y-56945094D01*
X43988224Y-56659251D01*
X44137000Y-56411676D01*
X44253151Y-56207006D01*
X44340429Y-56036098D01*
X44402583Y-55889807D01*
X44443365Y-55758989D01*
X44466525Y-55634501D01*
X44475814Y-55507199D01*
X44476445Y-55468972D01*
X44479739Y-55345889D01*
X44487037Y-55248272D01*
X44496946Y-55192695D01*
X44500160Y-55186756D01*
X44527079Y-55189447D01*
X44551773Y-55244395D01*
X44571706Y-55340356D01*
X44584340Y-55466089D01*
X44587500Y-55573780D01*
X44583324Y-55728781D01*
X44569121Y-55878682D01*
X44542383Y-56031137D01*
X44500598Y-56193802D01*
X44441258Y-56374329D01*
X44361852Y-56580374D01*
X44259871Y-56819590D01*
X44132805Y-57099632D01*
X43982343Y-57419340D01*
X43913010Y-57568644D01*
X43856675Y-57697170D01*
X43817694Y-57794387D01*
X43800423Y-57849761D01*
X43800820Y-57858153D01*
X43838238Y-57859096D01*
X43919313Y-57844144D01*
X44027138Y-57816480D01*
X44036772Y-57813709D01*
X44226744Y-57761690D01*
X44392166Y-57725048D01*
X44552505Y-57701279D01*
X44727231Y-57687881D01*
X44935814Y-57682348D01*
X45063029Y-57681750D01*
X45535431Y-57681750D01*
X45557629Y-57504081D01*
X45572019Y-57295743D01*
X45570883Y-57047966D01*
X45555749Y-56782481D01*
X45528146Y-56521017D01*
X45489602Y-56285303D01*
X45464062Y-56173625D01*
X45368748Y-55877604D01*
X45236610Y-55565935D01*
X45078487Y-55260253D01*
X44905218Y-54982195D01*
X44788655Y-54825343D01*
X44671206Y-54689646D01*
X44534263Y-54546747D01*
X44390549Y-54408528D01*
X44252785Y-54286876D01*
X44133692Y-54193675D01*
X44066749Y-54150914D01*
X44024216Y-54133664D01*
X44024643Y-54159397D01*
G36*
X45420938Y-65709740D02*
X45299093Y-65727052D01*
X45228218Y-65762090D01*
X45196318Y-65824346D01*
X45190750Y-65891895D01*
X45208283Y-65981820D01*
X45266052Y-66036440D01*
X45371814Y-66061046D01*
X45442663Y-66063750D01*
X45571750Y-66063750D01*
X45571750Y-65698167D01*
X45420938Y-65709740D01*
X45420938Y-65709740D01*
G37*
X45420938Y-65709740D02*
X45299093Y-65727052D01*
X45228218Y-65762090D01*
X45196318Y-65824346D01*
X45190750Y-65891895D01*
X45208283Y-65981820D01*
X45266052Y-66036440D01*
X45371814Y-66061046D01*
X45442663Y-66063750D01*
X45571750Y-66063750D01*
X45571750Y-65698167D01*
X45420938Y-65709740D01*
G36*
X44262558Y-65974556D02*
X44179435Y-66017420D01*
X44160676Y-66039064D01*
X44119090Y-66137164D01*
X44121052Y-66234492D01*
X44157153Y-66320396D01*
X44217983Y-66384225D01*
X44294135Y-66415329D01*
X44376200Y-66403055D01*
X44439705Y-66354937D01*
X44479102Y-66274276D01*
X44490405Y-66169799D01*
X44473384Y-66070853D01*
X44442358Y-66018392D01*
X44359301Y-65974212D01*
X44262558Y-65974556D01*
X44262558Y-65974556D01*
G37*
X44262558Y-65974556D02*
X44179435Y-66017420D01*
X44160676Y-66039064D01*
X44119090Y-66137164D01*
X44121052Y-66234492D01*
X44157153Y-66320396D01*
X44217983Y-66384225D01*
X44294135Y-66415329D01*
X44376200Y-66403055D01*
X44439705Y-66354937D01*
X44479102Y-66274276D01*
X44490405Y-66169799D01*
X44473384Y-66070853D01*
X44442358Y-66018392D01*
X44359301Y-65974212D01*
X44262558Y-65974556D01*
G36*
X41400600Y-65700525D02*
X41296916Y-65749309D01*
X41239449Y-65822287D01*
X41234459Y-65912644D01*
X41266857Y-65984606D01*
X41309578Y-66033715D01*
X41367965Y-66057243D01*
X41464615Y-66063713D01*
X41476732Y-66063750D01*
X41634750Y-66063750D01*
X41634750Y-65873250D01*
X41633386Y-65767793D01*
X41624552Y-65710872D01*
X41601140Y-65687523D01*
X41556040Y-65682782D01*
X41544238Y-65682750D01*
X41400600Y-65700525D01*
X41400600Y-65700525D01*
G37*
X41400600Y-65700525D02*
X41296916Y-65749309D01*
X41239449Y-65822287D01*
X41234459Y-65912644D01*
X41266857Y-65984606D01*
X41309578Y-66033715D01*
X41367965Y-66057243D01*
X41464615Y-66063713D01*
X41476732Y-66063750D01*
X41634750Y-66063750D01*
X41634750Y-65873250D01*
X41633386Y-65767793D01*
X41624552Y-65710872D01*
X41601140Y-65687523D01*
X41556040Y-65682782D01*
X41544238Y-65682750D01*
X41400600Y-65700525D01*
G36*
X40271215Y-65984134D02*
X40208862Y-66038000D01*
X40177127Y-66103807D01*
X40160663Y-66212859D01*
X40189418Y-66306304D01*
X40251006Y-66374471D01*
X40333044Y-66407689D01*
X40423145Y-66396285D01*
X40491750Y-66349500D01*
X40543536Y-66262124D01*
X40552131Y-66162487D01*
X40523221Y-66068490D01*
X40462494Y-65998036D01*
X40375635Y-65969028D01*
X40370888Y-65968986D01*
X40271215Y-65984134D01*
X40271215Y-65984134D01*
G37*
X40271215Y-65984134D02*
X40208862Y-66038000D01*
X40177127Y-66103807D01*
X40160663Y-66212859D01*
X40189418Y-66306304D01*
X40251006Y-66374471D01*
X40333044Y-66407689D01*
X40423145Y-66396285D01*
X40491750Y-66349500D01*
X40543536Y-66262124D01*
X40552131Y-66162487D01*
X40523221Y-66068490D01*
X40462494Y-65998036D01*
X40375635Y-65969028D01*
X40370888Y-65968986D01*
X40271215Y-65984134D01*
D11*
X65452381Y-45833334D02*
X64976190Y-45500000D01*
X65452381Y-45261905D02*
X64452381Y-45261905D01*
X64452381Y-45642858D01*
X64500000Y-45738096D01*
X64547619Y-45785715D01*
X64642857Y-45833334D01*
X64785714Y-45833334D01*
X64880952Y-45785715D01*
X64928571Y-45738096D01*
X64976190Y-45642858D01*
X64976190Y-45261905D01*
X65452381Y-46309524D02*
X65452381Y-46500000D01*
X65404762Y-46595239D01*
X65357143Y-46642858D01*
X65214286Y-46738096D01*
X65023810Y-46785715D01*
X64642857Y-46785715D01*
X64547619Y-46738096D01*
X64500000Y-46690477D01*
X64452381Y-46595239D01*
X64452381Y-46404762D01*
X64500000Y-46309524D01*
X64547619Y-46261905D01*
X64642857Y-46214286D01*
X64880952Y-46214286D01*
X64976190Y-46261905D01*
X65023810Y-46309524D01*
X65071429Y-46404762D01*
X65071429Y-46595239D01*
X65023810Y-46690477D01*
X64976190Y-46738096D01*
X64880952Y-46785715D01*
X70738095Y-42452381D02*
X70738095Y-41452381D01*
X70500000Y-41452381D01*
X70357142Y-41500000D01*
X70261904Y-41595238D01*
X70214285Y-41690476D01*
X70166666Y-41880952D01*
X70166666Y-42023810D01*
X70214285Y-42214286D01*
X70261904Y-42309524D01*
X70357142Y-42404762D01*
X70500000Y-42452381D01*
X70738095Y-42452381D01*
X69214285Y-42452381D02*
X69785714Y-42452381D01*
X69500000Y-42452381D02*
X69500000Y-41452381D01*
X69595238Y-41595238D01*
X69690476Y-41690476D01*
X69785714Y-41738095D01*
X61857143Y-61333334D02*
X61904762Y-61285715D01*
X61952381Y-61142858D01*
X61952381Y-61047620D01*
X61904762Y-60904762D01*
X61809524Y-60809524D01*
X61714286Y-60761905D01*
X61523810Y-60714286D01*
X61380952Y-60714286D01*
X61190476Y-60761905D01*
X61095238Y-60809524D01*
X61000000Y-60904762D01*
X60952381Y-61047620D01*
X60952381Y-61142858D01*
X61000000Y-61285715D01*
X61047619Y-61333334D01*
X60952381Y-62190477D02*
X60952381Y-62000000D01*
X61000000Y-61904762D01*
X61047619Y-61857143D01*
X61190476Y-61761905D01*
X61380952Y-61714286D01*
X61761905Y-61714286D01*
X61857143Y-61761905D01*
X61904762Y-61809524D01*
X61952381Y-61904762D01*
X61952381Y-62095239D01*
X61904762Y-62190477D01*
X61857143Y-62238096D01*
X61761905Y-62285715D01*
X61523810Y-62285715D01*
X61428571Y-62238096D01*
X61380952Y-62190477D01*
X61333333Y-62095239D01*
X61333333Y-61904762D01*
X61380952Y-61809524D01*
X61428571Y-61761905D01*
X61523810Y-61714286D01*
X59857143Y-61333334D02*
X59904762Y-61285715D01*
X59952381Y-61142858D01*
X59952381Y-61047620D01*
X59904762Y-60904762D01*
X59809524Y-60809524D01*
X59714286Y-60761905D01*
X59523810Y-60714286D01*
X59380952Y-60714286D01*
X59190476Y-60761905D01*
X59095238Y-60809524D01*
X59000000Y-60904762D01*
X58952381Y-61047620D01*
X58952381Y-61142858D01*
X59000000Y-61285715D01*
X59047619Y-61333334D01*
X58952381Y-61666667D02*
X58952381Y-62333334D01*
X59952381Y-61904762D01*
X50952381Y-54238095D02*
X51761905Y-54238095D01*
X51857143Y-54285714D01*
X51904762Y-54333333D01*
X51952381Y-54428571D01*
X51952381Y-54619048D01*
X51904762Y-54714286D01*
X51857143Y-54761905D01*
X51761905Y-54809524D01*
X50952381Y-54809524D01*
X50952381Y-55761905D02*
X50952381Y-55285714D01*
X51428571Y-55238095D01*
X51380952Y-55285714D01*
X51333333Y-55380952D01*
X51333333Y-55619048D01*
X51380952Y-55714286D01*
X51428571Y-55761905D01*
X51523810Y-55809524D01*
X51761905Y-55809524D01*
X51857143Y-55761905D01*
X51904762Y-55714286D01*
X51952381Y-55619048D01*
X51952381Y-55380952D01*
X51904762Y-55285714D01*
X51857143Y-55238095D01*
X57354762Y-38666667D02*
X57402381Y-38809524D01*
X57402381Y-39047620D01*
X57354762Y-39142858D01*
X57307143Y-39190477D01*
X57211905Y-39238096D01*
X57116667Y-39238096D01*
X57021429Y-39190477D01*
X56973810Y-39142858D01*
X56926190Y-39047620D01*
X56878571Y-38857143D01*
X56830952Y-38761905D01*
X56783333Y-38714286D01*
X56688095Y-38666667D01*
X56592857Y-38666667D01*
X56497619Y-38714286D01*
X56450000Y-38761905D01*
X56402381Y-38857143D01*
X56402381Y-39095239D01*
X56450000Y-39238096D01*
X56402381Y-39571429D02*
X57402381Y-39809524D01*
X56688095Y-40000001D01*
X57402381Y-40190477D01*
X56402381Y-40428572D01*
X56402381Y-40714286D02*
X56402381Y-41333334D01*
X56783333Y-41000000D01*
X56783333Y-41142858D01*
X56830952Y-41238096D01*
X56878571Y-41285715D01*
X56973810Y-41333334D01*
X57211905Y-41333334D01*
X57307143Y-41285715D01*
X57354762Y-41238096D01*
X57402381Y-41142858D01*
X57402381Y-40857143D01*
X57354762Y-40761905D01*
X57307143Y-40714286D01*
M02*
