G04 #@! TF.FileFunction,Copper,L2,Bot,Signal*
%FSLAX46Y46*%
G04 Gerber Fmt 4.6, Leading zero omitted, Abs format (unit mm)*
G04 Created by KiCad (PCBNEW 4.0.7) date 2017 November 25, Saturday 16:53:06*
%MOMM*%
%LPD*%
G01*
G04 APERTURE LIST*
%ADD10C,0.100000*%
%ADD11R,1.200000X0.900000*%
%ADD12R,1.800000X1.800000*%
%ADD13C,1.800000*%
%ADD14R,1.700000X1.700000*%
%ADD15O,1.700000X1.700000*%
%ADD16R,1.250000X1.500000*%
%ADD17R,0.750000X1.200000*%
%ADD18R,0.600000X1.550000*%
%ADD19R,1.300000X1.550000*%
%ADD20C,1.000000*%
%ADD21C,0.600000*%
%ADD22C,0.250000*%
%ADD23C,0.600000*%
G04 APERTURE END LIST*
D10*
D11*
X60900000Y-46000000D03*
X63100000Y-46000000D03*
D12*
X72540000Y-40000000D03*
D13*
X70000000Y-40000000D03*
X67460000Y-40000000D03*
D14*
X53500000Y-78000000D03*
D15*
X50960000Y-78000000D03*
D14*
X77000000Y-62000000D03*
D15*
X77000000Y-64540000D03*
X77000000Y-67080000D03*
D14*
X77000000Y-44920000D03*
D15*
X77000000Y-47460000D03*
X77000000Y-50000000D03*
X77000000Y-52540000D03*
X77000000Y-55080000D03*
D14*
X66500000Y-49460000D03*
D15*
X66500000Y-52000000D03*
D14*
X53500000Y-73500000D03*
D15*
X50960000Y-73500000D03*
D14*
X67960000Y-72000000D03*
D15*
X70500000Y-72000000D03*
D14*
X44000000Y-78000000D03*
D15*
X41460000Y-78000000D03*
D14*
X60500000Y-78000000D03*
X32500000Y-41500000D03*
D15*
X32500000Y-44040000D03*
X32500000Y-46580000D03*
X32500000Y-49120000D03*
X32500000Y-51660000D03*
X32500000Y-54200000D03*
D16*
X61500000Y-56750000D03*
X61500000Y-59250000D03*
D17*
X59500000Y-57050000D03*
X59500000Y-58950000D03*
D18*
X53095000Y-52300000D03*
X54365000Y-52300000D03*
X55635000Y-52300000D03*
X56905000Y-52300000D03*
X56905000Y-57700000D03*
X55635000Y-57700000D03*
X54365000Y-57700000D03*
X53095000Y-57700000D03*
D19*
X63250000Y-36025000D03*
X58750000Y-36025000D03*
X58750000Y-43975000D03*
X63250000Y-43975000D03*
D20*
X39000000Y-57000000D03*
X56000000Y-44000000D03*
X67000000Y-45000000D03*
X63000000Y-49109999D03*
X63000000Y-53000000D03*
X69000000Y-67000000D03*
X71000000Y-61000000D03*
X68000000Y-76000000D03*
X70000000Y-78000000D03*
X72000000Y-67000000D03*
X37000000Y-36000000D03*
X71000000Y-36000000D03*
X66000000Y-36000000D03*
X61000000Y-36000000D03*
X44000000Y-50500000D03*
X31500000Y-64500000D03*
X44000000Y-57000000D03*
X32000000Y-37500000D03*
X52000000Y-36000000D03*
X48000000Y-36000000D03*
X44000000Y-36000000D03*
X56000000Y-36000000D03*
X40000000Y-68500000D03*
X38000000Y-74000000D03*
X50000000Y-69000000D03*
X49500000Y-46000000D03*
X51500000Y-44000000D03*
X47500000Y-44000000D03*
X49500000Y-42000000D03*
X49500000Y-44000000D03*
X51500000Y-46000000D03*
X47500000Y-46000000D03*
X47500000Y-42000000D03*
X51500000Y-42000000D03*
D21*
X38500000Y-46500000D03*
D20*
X60500000Y-67500000D03*
X37000000Y-38000000D03*
D21*
X57000000Y-41000000D03*
X46000000Y-56500000D03*
X64500000Y-52500000D03*
X42974694Y-45525306D03*
X42987347Y-44512653D03*
X42962041Y-46537959D03*
X38000000Y-39500000D03*
X56000000Y-40000000D03*
X62500000Y-37500000D03*
X61000000Y-49000000D03*
D22*
X44000000Y-57000000D02*
X39000000Y-57000000D01*
X71000000Y-61000000D02*
X71000000Y-57500000D01*
X77000000Y-55080000D02*
X73420000Y-55080000D01*
X73420000Y-55080000D02*
X71000000Y-57500000D01*
X51500000Y-44000000D02*
X56000000Y-44000000D01*
X63000000Y-53000000D02*
X63000000Y-49109999D01*
X61500000Y-59250000D02*
X61500000Y-59375000D01*
X61500000Y-59375000D02*
X69000000Y-66875000D01*
X69000000Y-66875000D02*
X69000000Y-67000000D01*
D23*
X53095000Y-52300000D02*
X53095000Y-53675000D01*
X53095000Y-53675000D02*
X55744999Y-56324999D01*
X58524999Y-57164997D02*
X58525000Y-58950000D01*
X55744999Y-56324999D02*
X57685001Y-56324999D01*
X57685001Y-56324999D02*
X58524999Y-57164997D01*
X58525000Y-58950000D02*
X59500000Y-58950000D01*
D22*
X58750000Y-36025000D02*
X56025000Y-36025000D01*
X56025000Y-36025000D02*
X56000000Y-36000000D01*
X52000000Y-36000000D02*
X56000000Y-36000000D01*
X48000000Y-36000000D02*
X52000000Y-36000000D01*
X44000000Y-36000000D02*
X48000000Y-36000000D01*
D23*
X60500000Y-67500000D02*
X58500000Y-67500000D01*
X58500000Y-67500000D02*
X40000000Y-49000000D01*
X40000000Y-49000000D02*
X40000000Y-45500000D01*
X40000000Y-45500000D02*
X39500000Y-45000000D01*
D22*
X60900000Y-46000000D02*
X60900000Y-43934998D01*
X60900000Y-43934998D02*
X58690003Y-41725001D01*
X58690003Y-41725001D02*
X56225001Y-41725001D01*
X56225001Y-41725001D02*
X52675019Y-38175019D01*
X52675019Y-38175019D02*
X40397983Y-38175019D01*
X38073002Y-40500000D02*
X37000000Y-40500000D01*
X40397983Y-38175019D02*
X38073002Y-40500000D01*
D23*
X37000000Y-42500000D02*
X39500000Y-45000000D01*
D22*
X38500000Y-46500000D02*
X39500000Y-45500000D01*
X39500000Y-45500000D02*
X39500000Y-45000000D01*
D23*
X37000000Y-40500000D02*
X37000000Y-42500000D01*
X37000000Y-38000000D02*
X37000000Y-40500000D01*
X55635000Y-52300000D02*
X55635000Y-53675000D01*
X55635000Y-53675000D02*
X56460000Y-54500000D01*
X56460000Y-54500000D02*
X58500000Y-54500000D01*
X58500000Y-54500000D02*
X59500000Y-55500000D01*
X59500000Y-55500000D02*
X59500000Y-57050000D01*
X61500000Y-56750000D02*
X59800000Y-56750000D01*
X59800000Y-56750000D02*
X59500000Y-57050000D01*
X70500000Y-72000000D02*
X70500000Y-64525000D01*
X70500000Y-64525000D02*
X62725000Y-56750000D01*
X62725000Y-56750000D02*
X61500000Y-56750000D01*
D22*
X57000000Y-41000000D02*
X57000000Y-39926998D01*
X57000000Y-39926998D02*
X54123001Y-37049999D01*
X35950001Y-37049999D02*
X33775001Y-39224999D01*
X33775001Y-39224999D02*
X33775001Y-42764999D01*
X54123001Y-37049999D02*
X35950001Y-37049999D01*
X33775001Y-42764999D02*
X32500000Y-44040000D01*
X41160000Y-51660000D02*
X46000000Y-56500000D01*
X32500000Y-51660000D02*
X41160000Y-51660000D01*
X64500000Y-52500000D02*
X64500000Y-50360000D01*
X64500000Y-50360000D02*
X65400000Y-49460000D01*
X65400000Y-49460000D02*
X66500000Y-49460000D01*
X42974694Y-45525306D02*
X47449388Y-50000000D01*
X68000000Y-78000000D02*
X60500000Y-78000000D01*
X75000000Y-71000000D02*
X68000000Y-78000000D01*
X75000000Y-67500000D02*
X75000000Y-71000000D01*
X57500000Y-50000000D02*
X75000000Y-67500000D01*
X47449388Y-50000000D02*
X57500000Y-50000000D01*
X77000000Y-64540000D02*
X72817830Y-64540000D01*
X72817830Y-64540000D02*
X57727821Y-49449990D01*
X57727821Y-49449990D02*
X47924684Y-49449990D01*
X45000000Y-46525306D02*
X42987347Y-44512653D01*
X47924684Y-49449990D02*
X45000000Y-46525306D01*
X53090010Y-50550010D02*
X46974092Y-50550010D01*
X46974092Y-50550010D02*
X42962041Y-46537959D01*
X54365000Y-52300000D02*
X54365000Y-51825000D01*
X54365000Y-51825000D02*
X53090010Y-50550010D01*
X56000000Y-40000000D02*
X53625009Y-37625009D01*
X53625009Y-37625009D02*
X39874991Y-37625009D01*
X39874991Y-37625009D02*
X38000000Y-39500000D01*
X63250000Y-43975000D02*
X63250000Y-38250000D01*
X63250000Y-38250000D02*
X62500000Y-37500000D01*
X63250000Y-36750000D02*
X62500000Y-37500000D01*
X63250000Y-36025000D02*
X63250000Y-36750000D01*
X63100000Y-46000000D02*
X63100000Y-44125000D01*
X63100000Y-44125000D02*
X63250000Y-43975000D01*
X77000000Y-52540000D02*
X73460000Y-49000000D01*
X61000000Y-49000000D02*
X62000000Y-48000000D01*
X62000000Y-48000000D02*
X72460000Y-48000000D01*
X72460000Y-48000000D02*
X73460000Y-49000000D01*
G36*
X32351432Y-35215710D02*
X33095435Y-35524648D01*
X33901030Y-35525351D01*
X34645572Y-35217712D01*
X34738446Y-35125000D01*
X57467000Y-35125000D01*
X57467000Y-35737750D01*
X57625250Y-35896000D01*
X58621000Y-35896000D01*
X58621000Y-35876000D01*
X58879000Y-35876000D01*
X58879000Y-35896000D01*
X59874750Y-35896000D01*
X60033000Y-35737750D01*
X60033000Y-35125000D01*
X62191987Y-35125000D01*
X62166674Y-35250000D01*
X62166674Y-36800000D01*
X62175975Y-36849433D01*
X62089857Y-36885016D01*
X61885733Y-37088784D01*
X61775126Y-37355156D01*
X61774874Y-37643579D01*
X61885016Y-37910143D01*
X62088784Y-38114267D01*
X62355156Y-38224874D01*
X62447136Y-38224954D01*
X62700000Y-38477818D01*
X62700000Y-42766674D01*
X62600000Y-42766674D01*
X62442504Y-42796309D01*
X62297854Y-42889389D01*
X62200814Y-43031412D01*
X62166674Y-43200000D01*
X62166674Y-44750000D01*
X62196309Y-44907496D01*
X62289389Y-45052146D01*
X62408913Y-45133813D01*
X62342504Y-45146309D01*
X62197854Y-45239389D01*
X62100814Y-45381412D01*
X62066674Y-45550000D01*
X62066674Y-46450000D01*
X62096309Y-46607496D01*
X62189389Y-46752146D01*
X62331412Y-46849186D01*
X62500000Y-46883326D01*
X63700000Y-46883326D01*
X63857496Y-46853691D01*
X64002146Y-46760611D01*
X64099186Y-46618588D01*
X64133326Y-46450000D01*
X64133326Y-45550000D01*
X64103691Y-45392504D01*
X64010611Y-45247854D01*
X63912679Y-45180940D01*
X64057496Y-45153691D01*
X64202146Y-45060611D01*
X64299186Y-44918588D01*
X64333326Y-44750000D01*
X64333326Y-43200000D01*
X64303691Y-43042504D01*
X64210611Y-42897854D01*
X64068588Y-42800814D01*
X63900000Y-42766674D01*
X63800000Y-42766674D01*
X63800000Y-40262402D01*
X66134771Y-40262402D01*
X66336065Y-40749572D01*
X66708468Y-41122625D01*
X67195285Y-41324769D01*
X67722402Y-41325229D01*
X68209572Y-41123935D01*
X68253232Y-41080351D01*
X69102083Y-41080351D01*
X69188770Y-41336031D01*
X69761798Y-41544776D01*
X70371090Y-41518343D01*
X70811230Y-41336031D01*
X70897917Y-41080351D01*
X70000000Y-40182434D01*
X69102083Y-41080351D01*
X68253232Y-41080351D01*
X68582625Y-40751532D01*
X68610968Y-40683274D01*
X68663969Y-40811230D01*
X68919649Y-40897917D01*
X69817566Y-40000000D01*
X70182434Y-40000000D01*
X71080351Y-40897917D01*
X71206674Y-40855088D01*
X71206674Y-40900000D01*
X71236309Y-41057496D01*
X71329389Y-41202146D01*
X71471412Y-41299186D01*
X71640000Y-41333326D01*
X73440000Y-41333326D01*
X73597496Y-41303691D01*
X73742146Y-41210611D01*
X73839186Y-41068588D01*
X73873326Y-40900000D01*
X73873326Y-39100000D01*
X73843691Y-38942504D01*
X73750611Y-38797854D01*
X73608588Y-38700814D01*
X73440000Y-38666674D01*
X71640000Y-38666674D01*
X71482504Y-38696309D01*
X71337854Y-38789389D01*
X71240814Y-38931412D01*
X71206674Y-39100000D01*
X71206674Y-39144912D01*
X71080351Y-39102083D01*
X70182434Y-40000000D01*
X69817566Y-40000000D01*
X68919649Y-39102083D01*
X68663969Y-39188770D01*
X68614532Y-39324479D01*
X68583935Y-39250428D01*
X68253733Y-38919649D01*
X69102083Y-38919649D01*
X70000000Y-39817566D01*
X70897917Y-38919649D01*
X70811230Y-38663969D01*
X70238202Y-38455224D01*
X69628910Y-38481657D01*
X69188770Y-38663969D01*
X69102083Y-38919649D01*
X68253733Y-38919649D01*
X68211532Y-38877375D01*
X67724715Y-38675231D01*
X67197598Y-38674771D01*
X66710428Y-38876065D01*
X66337375Y-39248468D01*
X66135231Y-39735285D01*
X66134771Y-40262402D01*
X63800000Y-40262402D01*
X63800000Y-38250000D01*
X63758134Y-38039524D01*
X63638909Y-37861091D01*
X63277818Y-37500000D01*
X63544492Y-37233326D01*
X63900000Y-37233326D01*
X64057496Y-37203691D01*
X64202146Y-37110611D01*
X64299186Y-36968588D01*
X64333326Y-36800000D01*
X64333326Y-35250000D01*
X64309806Y-35125000D01*
X75260880Y-35125000D01*
X75351432Y-35215710D01*
X76095435Y-35524648D01*
X76901030Y-35525351D01*
X77645572Y-35217712D01*
X77738446Y-35125000D01*
X79500000Y-35125000D01*
X79500000Y-76450753D01*
X79262588Y-77644302D01*
X78614394Y-78614394D01*
X77644303Y-79262588D01*
X76450753Y-79500000D01*
X33549247Y-79500000D01*
X32355698Y-79262588D01*
X31385606Y-78614394D01*
X30737412Y-77644303D01*
X30589566Y-76901030D01*
X31474649Y-76901030D01*
X31782288Y-77645572D01*
X32351432Y-78215710D01*
X33095435Y-78524648D01*
X33901030Y-78525351D01*
X34645572Y-78217712D01*
X34888686Y-77975021D01*
X40185000Y-77975021D01*
X40185000Y-78024979D01*
X40282054Y-78512900D01*
X40558439Y-78926540D01*
X40972079Y-79202925D01*
X41460000Y-79299979D01*
X41947921Y-79202925D01*
X42361561Y-78926540D01*
X42637946Y-78512900D01*
X42716674Y-78117110D01*
X42716674Y-78850000D01*
X42746309Y-79007496D01*
X42839389Y-79152146D01*
X42981412Y-79249186D01*
X43150000Y-79283326D01*
X44850000Y-79283326D01*
X45007496Y-79253691D01*
X45152146Y-79160611D01*
X45249186Y-79018588D01*
X45283326Y-78850000D01*
X45283326Y-78358526D01*
X49520980Y-78358526D01*
X49767721Y-78881924D01*
X50195976Y-79271057D01*
X50601475Y-79439010D01*
X50831000Y-79318454D01*
X50831000Y-78129000D01*
X49640861Y-78129000D01*
X49520980Y-78358526D01*
X45283326Y-78358526D01*
X45283326Y-77641474D01*
X49520980Y-77641474D01*
X49640861Y-77871000D01*
X50831000Y-77871000D01*
X50831000Y-76681546D01*
X51089000Y-76681546D01*
X51089000Y-77871000D01*
X51109000Y-77871000D01*
X51109000Y-78129000D01*
X51089000Y-78129000D01*
X51089000Y-79318454D01*
X51318525Y-79439010D01*
X51724024Y-79271057D01*
X52152279Y-78881924D01*
X52216674Y-78745326D01*
X52216674Y-78850000D01*
X52246309Y-79007496D01*
X52339389Y-79152146D01*
X52481412Y-79249186D01*
X52650000Y-79283326D01*
X54350000Y-79283326D01*
X54507496Y-79253691D01*
X54652146Y-79160611D01*
X54749186Y-79018588D01*
X54783326Y-78850000D01*
X54783326Y-77150000D01*
X54753691Y-76992504D01*
X54660611Y-76847854D01*
X54518588Y-76750814D01*
X54350000Y-76716674D01*
X52650000Y-76716674D01*
X52492504Y-76746309D01*
X52347854Y-76839389D01*
X52250814Y-76981412D01*
X52216674Y-77150000D01*
X52216674Y-77254674D01*
X52152279Y-77118076D01*
X51724024Y-76728943D01*
X51318525Y-76560990D01*
X51089000Y-76681546D01*
X50831000Y-76681546D01*
X50601475Y-76560990D01*
X50195976Y-76728943D01*
X49767721Y-77118076D01*
X49520980Y-77641474D01*
X45283326Y-77641474D01*
X45283326Y-77150000D01*
X45253691Y-76992504D01*
X45160611Y-76847854D01*
X45018588Y-76750814D01*
X44850000Y-76716674D01*
X43150000Y-76716674D01*
X42992504Y-76746309D01*
X42847854Y-76839389D01*
X42750814Y-76981412D01*
X42716674Y-77150000D01*
X42716674Y-77882890D01*
X42637946Y-77487100D01*
X42361561Y-77073460D01*
X41947921Y-76797075D01*
X41460000Y-76700021D01*
X40972079Y-76797075D01*
X40558439Y-77073460D01*
X40282054Y-77487100D01*
X40185000Y-77975021D01*
X34888686Y-77975021D01*
X35215710Y-77648568D01*
X35524648Y-76904565D01*
X35525351Y-76098970D01*
X35217712Y-75354428D01*
X34648568Y-74784290D01*
X33904565Y-74475352D01*
X33098970Y-74474649D01*
X32354428Y-74782288D01*
X31784290Y-75351432D01*
X31475352Y-76095435D01*
X31474649Y-76901030D01*
X30589566Y-76901030D01*
X30500000Y-76450753D01*
X30500000Y-73475021D01*
X49685000Y-73475021D01*
X49685000Y-73524979D01*
X49782054Y-74012900D01*
X50058439Y-74426540D01*
X50472079Y-74702925D01*
X50960000Y-74799979D01*
X51447921Y-74702925D01*
X51861561Y-74426540D01*
X52137946Y-74012900D01*
X52216674Y-73617110D01*
X52216674Y-74350000D01*
X52246309Y-74507496D01*
X52339389Y-74652146D01*
X52481412Y-74749186D01*
X52650000Y-74783326D01*
X54350000Y-74783326D01*
X54507496Y-74753691D01*
X54652146Y-74660611D01*
X54749186Y-74518588D01*
X54783326Y-74350000D01*
X54783326Y-72650000D01*
X54753691Y-72492504D01*
X54660611Y-72347854D01*
X54518588Y-72250814D01*
X54350000Y-72216674D01*
X52650000Y-72216674D01*
X52492504Y-72246309D01*
X52347854Y-72339389D01*
X52250814Y-72481412D01*
X52216674Y-72650000D01*
X52216674Y-73382890D01*
X52137946Y-72987100D01*
X51861561Y-72573460D01*
X51447921Y-72297075D01*
X50960000Y-72200021D01*
X50472079Y-72297075D01*
X50058439Y-72573460D01*
X49782054Y-72987100D01*
X49685000Y-73475021D01*
X30500000Y-73475021D01*
X30500000Y-54558525D01*
X31060990Y-54558525D01*
X31228943Y-54964024D01*
X31618076Y-55392279D01*
X32141474Y-55639020D01*
X32371000Y-55519139D01*
X32371000Y-54329000D01*
X32629000Y-54329000D01*
X32629000Y-55519139D01*
X32858526Y-55639020D01*
X33381924Y-55392279D01*
X33771057Y-54964024D01*
X33939010Y-54558525D01*
X33818454Y-54329000D01*
X32629000Y-54329000D01*
X32371000Y-54329000D01*
X31181546Y-54329000D01*
X31060990Y-54558525D01*
X30500000Y-54558525D01*
X30500000Y-53841475D01*
X31060990Y-53841475D01*
X31181546Y-54071000D01*
X32371000Y-54071000D01*
X32371000Y-54051000D01*
X32629000Y-54051000D01*
X32629000Y-54071000D01*
X33818454Y-54071000D01*
X33939010Y-53841475D01*
X33771057Y-53435976D01*
X33381924Y-53007721D01*
X33016577Y-52835489D01*
X33426540Y-52561561D01*
X33661445Y-52210000D01*
X40932182Y-52210000D01*
X45274953Y-56552770D01*
X45274874Y-56643579D01*
X45385016Y-56910143D01*
X45588784Y-57114267D01*
X45855156Y-57224874D01*
X46143579Y-57225126D01*
X46410143Y-57114984D01*
X46614267Y-56911216D01*
X46693969Y-56719273D01*
X57987348Y-68012652D01*
X58222554Y-68169813D01*
X58268585Y-68178969D01*
X58500000Y-68225000D01*
X59916728Y-68225000D01*
X59975345Y-68283720D01*
X60315199Y-68424839D01*
X60683187Y-68425160D01*
X61023286Y-68284634D01*
X61283720Y-68024655D01*
X61424839Y-67684801D01*
X61425160Y-67316813D01*
X61284634Y-66976714D01*
X61024655Y-66716280D01*
X60684801Y-66575161D01*
X60316813Y-66574840D01*
X59976714Y-66715366D01*
X59916976Y-66775000D01*
X58800304Y-66775000D01*
X51262554Y-59237250D01*
X58492000Y-59237250D01*
X58492000Y-59675911D01*
X58588368Y-59908565D01*
X58766434Y-60086631D01*
X58999088Y-60183000D01*
X59212750Y-60183000D01*
X59371000Y-60024750D01*
X59371000Y-59079000D01*
X58650250Y-59079000D01*
X58492000Y-59237250D01*
X51262554Y-59237250D01*
X48950304Y-56925000D01*
X52361674Y-56925000D01*
X52361674Y-58475000D01*
X52391309Y-58632496D01*
X52484389Y-58777146D01*
X52626412Y-58874186D01*
X52795000Y-58908326D01*
X53395000Y-58908326D01*
X53552496Y-58878691D01*
X53697146Y-58785611D01*
X53729431Y-58738360D01*
X53754389Y-58777146D01*
X53896412Y-58874186D01*
X54065000Y-58908326D01*
X54665000Y-58908326D01*
X54822496Y-58878691D01*
X54967146Y-58785611D01*
X54999431Y-58738360D01*
X55024389Y-58777146D01*
X55166412Y-58874186D01*
X55335000Y-58908326D01*
X55935000Y-58908326D01*
X56092496Y-58878691D01*
X56237146Y-58785611D01*
X56269431Y-58738360D01*
X56294389Y-58777146D01*
X56436412Y-58874186D01*
X56605000Y-58908326D01*
X57205000Y-58908326D01*
X57362496Y-58878691D01*
X57507146Y-58785611D01*
X57604186Y-58643588D01*
X57638326Y-58475000D01*
X57638326Y-56925000D01*
X57608691Y-56767504D01*
X57515611Y-56622854D01*
X57373588Y-56525814D01*
X57205000Y-56491674D01*
X56605000Y-56491674D01*
X56447504Y-56521309D01*
X56302854Y-56614389D01*
X56270569Y-56661640D01*
X56245611Y-56622854D01*
X56103588Y-56525814D01*
X55935000Y-56491674D01*
X55335000Y-56491674D01*
X55177504Y-56521309D01*
X55032854Y-56614389D01*
X55000569Y-56661640D01*
X54975611Y-56622854D01*
X54833588Y-56525814D01*
X54665000Y-56491674D01*
X54065000Y-56491674D01*
X53907504Y-56521309D01*
X53762854Y-56614389D01*
X53730569Y-56661640D01*
X53705611Y-56622854D01*
X53563588Y-56525814D01*
X53395000Y-56491674D01*
X52795000Y-56491674D01*
X52637504Y-56521309D01*
X52492854Y-56614389D01*
X52395814Y-56756412D01*
X52361674Y-56925000D01*
X48950304Y-56925000D01*
X44612554Y-52587250D01*
X52162000Y-52587250D01*
X52162000Y-53200911D01*
X52258368Y-53433565D01*
X52436434Y-53611631D01*
X52669088Y-53708000D01*
X52807750Y-53708000D01*
X52966000Y-53549750D01*
X52966000Y-52429000D01*
X52320250Y-52429000D01*
X52162000Y-52587250D01*
X44612554Y-52587250D01*
X40725000Y-48699696D01*
X40725000Y-46681538D01*
X42236915Y-46681538D01*
X42347057Y-46948102D01*
X42550825Y-47152226D01*
X42817197Y-47262833D01*
X42909177Y-47262913D01*
X46585183Y-50938919D01*
X46763616Y-51058144D01*
X46974092Y-51100010D01*
X52324793Y-51100010D01*
X52258368Y-51166435D01*
X52162000Y-51399089D01*
X52162000Y-52012750D01*
X52320250Y-52171000D01*
X52966000Y-52171000D01*
X52966000Y-52151000D01*
X53224000Y-52151000D01*
X53224000Y-52171000D01*
X53244000Y-52171000D01*
X53244000Y-52429000D01*
X53224000Y-52429000D01*
X53224000Y-53549750D01*
X53382250Y-53708000D01*
X53520912Y-53708000D01*
X53753566Y-53611631D01*
X53893203Y-53471994D01*
X53896412Y-53474186D01*
X54065000Y-53508326D01*
X54665000Y-53508326D01*
X54822496Y-53478691D01*
X54910000Y-53422384D01*
X54910000Y-53675000D01*
X54943114Y-53841475D01*
X54965187Y-53952446D01*
X55122348Y-54187652D01*
X55947347Y-55012652D01*
X56104508Y-55117663D01*
X56182555Y-55169813D01*
X56460000Y-55225000D01*
X58199696Y-55225000D01*
X58775000Y-55800305D01*
X58775000Y-56209426D01*
X58725814Y-56281412D01*
X58691674Y-56450000D01*
X58691674Y-57650000D01*
X58721309Y-57807496D01*
X58741277Y-57838526D01*
X58588368Y-57991435D01*
X58492000Y-58224089D01*
X58492000Y-58662750D01*
X58650250Y-58821000D01*
X59371000Y-58821000D01*
X59371000Y-58801000D01*
X59629000Y-58801000D01*
X59629000Y-58821000D01*
X59649000Y-58821000D01*
X59649000Y-59079000D01*
X59629000Y-59079000D01*
X59629000Y-60024750D01*
X59787250Y-60183000D01*
X60000912Y-60183000D01*
X60233566Y-60086631D01*
X60242000Y-60078197D01*
X60242000Y-60125911D01*
X60338368Y-60358565D01*
X60516434Y-60536631D01*
X60749088Y-60633000D01*
X61212750Y-60633000D01*
X61371000Y-60474750D01*
X61371000Y-59379000D01*
X61629000Y-59379000D01*
X61629000Y-60474750D01*
X61787250Y-60633000D01*
X62250912Y-60633000D01*
X62483566Y-60536631D01*
X62661632Y-60358565D01*
X62758000Y-60125911D01*
X62758000Y-59537250D01*
X62599750Y-59379000D01*
X61629000Y-59379000D01*
X61371000Y-59379000D01*
X61351000Y-59379000D01*
X61351000Y-59121000D01*
X61371000Y-59121000D01*
X61371000Y-59101000D01*
X61629000Y-59101000D01*
X61629000Y-59121000D01*
X62599750Y-59121000D01*
X62758000Y-58962750D01*
X62758000Y-58374089D01*
X62661632Y-58141435D01*
X62483566Y-57963369D01*
X62304817Y-57889328D01*
X62427146Y-57810611D01*
X62524186Y-57668588D01*
X62540032Y-57590336D01*
X69775000Y-64825305D01*
X69775000Y-70955486D01*
X69598439Y-71073460D01*
X69322054Y-71487100D01*
X69243326Y-71882890D01*
X69243326Y-71150000D01*
X69213691Y-70992504D01*
X69120611Y-70847854D01*
X68978588Y-70750814D01*
X68810000Y-70716674D01*
X67110000Y-70716674D01*
X66952504Y-70746309D01*
X66807854Y-70839389D01*
X66710814Y-70981412D01*
X66676674Y-71150000D01*
X66676674Y-72850000D01*
X66706309Y-73007496D01*
X66799389Y-73152146D01*
X66941412Y-73249186D01*
X67110000Y-73283326D01*
X68810000Y-73283326D01*
X68967496Y-73253691D01*
X69112146Y-73160611D01*
X69209186Y-73018588D01*
X69243326Y-72850000D01*
X69243326Y-72117110D01*
X69322054Y-72512900D01*
X69598439Y-72926540D01*
X70012079Y-73202925D01*
X70500000Y-73299979D01*
X70987921Y-73202925D01*
X71401561Y-72926540D01*
X71677946Y-72512900D01*
X71775000Y-72024979D01*
X71775000Y-71975021D01*
X71677946Y-71487100D01*
X71401561Y-71073460D01*
X71225000Y-70955486D01*
X71225000Y-64525000D01*
X71219492Y-64497309D01*
X74450000Y-67727817D01*
X74450000Y-70772182D01*
X67772182Y-77450000D01*
X61783326Y-77450000D01*
X61783326Y-77150000D01*
X61753691Y-76992504D01*
X61660611Y-76847854D01*
X61518588Y-76750814D01*
X61350000Y-76716674D01*
X59650000Y-76716674D01*
X59492504Y-76746309D01*
X59347854Y-76839389D01*
X59250814Y-76981412D01*
X59216674Y-77150000D01*
X59216674Y-78850000D01*
X59246309Y-79007496D01*
X59339389Y-79152146D01*
X59481412Y-79249186D01*
X59650000Y-79283326D01*
X61350000Y-79283326D01*
X61507496Y-79253691D01*
X61652146Y-79160611D01*
X61749186Y-79018588D01*
X61783326Y-78850000D01*
X61783326Y-78550000D01*
X68000000Y-78550000D01*
X68210476Y-78508134D01*
X68388909Y-78388909D01*
X69876788Y-76901030D01*
X74474649Y-76901030D01*
X74782288Y-77645572D01*
X75351432Y-78215710D01*
X76095435Y-78524648D01*
X76901030Y-78525351D01*
X77645572Y-78217712D01*
X78215710Y-77648568D01*
X78524648Y-76904565D01*
X78525351Y-76098970D01*
X78217712Y-75354428D01*
X77648568Y-74784290D01*
X76904565Y-74475352D01*
X76098970Y-74474649D01*
X75354428Y-74782288D01*
X74784290Y-75351432D01*
X74475352Y-76095435D01*
X74474649Y-76901030D01*
X69876788Y-76901030D01*
X75388909Y-71388909D01*
X75508134Y-71210476D01*
X75550000Y-71000000D01*
X75550000Y-67500000D01*
X75537772Y-67438525D01*
X75560990Y-67438525D01*
X75728943Y-67844024D01*
X76118076Y-68272279D01*
X76641474Y-68519020D01*
X76871000Y-68399139D01*
X76871000Y-67209000D01*
X77129000Y-67209000D01*
X77129000Y-68399139D01*
X77358526Y-68519020D01*
X77881924Y-68272279D01*
X78271057Y-67844024D01*
X78439010Y-67438525D01*
X78318454Y-67209000D01*
X77129000Y-67209000D01*
X76871000Y-67209000D01*
X75681546Y-67209000D01*
X75560990Y-67438525D01*
X75537772Y-67438525D01*
X75508134Y-67289524D01*
X75388909Y-67111091D01*
X75388906Y-67111089D01*
X73367817Y-65090000D01*
X75838555Y-65090000D01*
X76073460Y-65441561D01*
X76483423Y-65715489D01*
X76118076Y-65887721D01*
X75728943Y-66315976D01*
X75560990Y-66721475D01*
X75681546Y-66951000D01*
X76871000Y-66951000D01*
X76871000Y-66931000D01*
X77129000Y-66931000D01*
X77129000Y-66951000D01*
X78318454Y-66951000D01*
X78439010Y-66721475D01*
X78271057Y-66315976D01*
X77881924Y-65887721D01*
X77516577Y-65715489D01*
X77926540Y-65441561D01*
X78202925Y-65027921D01*
X78299979Y-64540000D01*
X78202925Y-64052079D01*
X77926540Y-63638439D01*
X77512900Y-63362054D01*
X77117110Y-63283326D01*
X77850000Y-63283326D01*
X78007496Y-63253691D01*
X78152146Y-63160611D01*
X78249186Y-63018588D01*
X78283326Y-62850000D01*
X78283326Y-61150000D01*
X78253691Y-60992504D01*
X78160611Y-60847854D01*
X78018588Y-60750814D01*
X77850000Y-60716674D01*
X76150000Y-60716674D01*
X75992504Y-60746309D01*
X75847854Y-60839389D01*
X75750814Y-60981412D01*
X75716674Y-61150000D01*
X75716674Y-62850000D01*
X75746309Y-63007496D01*
X75839389Y-63152146D01*
X75981412Y-63249186D01*
X76150000Y-63283326D01*
X76882890Y-63283326D01*
X76487100Y-63362054D01*
X76073460Y-63638439D01*
X75838555Y-63990000D01*
X73045648Y-63990000D01*
X64494174Y-55438525D01*
X75560990Y-55438525D01*
X75728943Y-55844024D01*
X76118076Y-56272279D01*
X76641474Y-56519020D01*
X76871000Y-56399139D01*
X76871000Y-55209000D01*
X77129000Y-55209000D01*
X77129000Y-56399139D01*
X77358526Y-56519020D01*
X77881924Y-56272279D01*
X78271057Y-55844024D01*
X78439010Y-55438525D01*
X78318454Y-55209000D01*
X77129000Y-55209000D01*
X76871000Y-55209000D01*
X75681546Y-55209000D01*
X75560990Y-55438525D01*
X64494174Y-55438525D01*
X58199228Y-49143579D01*
X60274874Y-49143579D01*
X60385016Y-49410143D01*
X60588784Y-49614267D01*
X60855156Y-49724874D01*
X61143579Y-49725126D01*
X61410143Y-49614984D01*
X61614267Y-49411216D01*
X61724874Y-49144844D01*
X61724954Y-49052863D01*
X62227817Y-48550000D01*
X65228824Y-48550000D01*
X65216674Y-48610000D01*
X65216674Y-48946466D01*
X65189524Y-48951866D01*
X65011091Y-49071091D01*
X64111091Y-49971091D01*
X63991866Y-50149524D01*
X63950000Y-50360000D01*
X63950000Y-52024629D01*
X63885733Y-52088784D01*
X63775126Y-52355156D01*
X63774874Y-52643579D01*
X63885016Y-52910143D01*
X64088784Y-53114267D01*
X64355156Y-53224874D01*
X64643579Y-53225126D01*
X64910143Y-53114984D01*
X65114267Y-52911216D01*
X65224874Y-52644844D01*
X65225126Y-52356421D01*
X65114984Y-52089857D01*
X65050000Y-52024759D01*
X65050000Y-50587818D01*
X65234275Y-50403543D01*
X65246309Y-50467496D01*
X65339389Y-50612146D01*
X65481412Y-50709186D01*
X65650000Y-50743326D01*
X66382890Y-50743326D01*
X65987100Y-50822054D01*
X65573460Y-51098439D01*
X65297075Y-51512079D01*
X65200021Y-52000000D01*
X65297075Y-52487921D01*
X65573460Y-52901561D01*
X65987100Y-53177946D01*
X66475021Y-53275000D01*
X66524979Y-53275000D01*
X67012900Y-53177946D01*
X67426540Y-52901561D01*
X67702925Y-52487921D01*
X67799979Y-52000000D01*
X67702925Y-51512079D01*
X67426540Y-51098439D01*
X67012900Y-50822054D01*
X66617110Y-50743326D01*
X67350000Y-50743326D01*
X67507496Y-50713691D01*
X67652146Y-50620611D01*
X67749186Y-50478588D01*
X67783326Y-50310000D01*
X67783326Y-48610000D01*
X67772036Y-48550000D01*
X72232182Y-48550000D01*
X73071089Y-49388906D01*
X73071091Y-49388909D01*
X75786653Y-52104471D01*
X75700021Y-52540000D01*
X75797075Y-53027921D01*
X76073460Y-53441561D01*
X76483423Y-53715489D01*
X76118076Y-53887721D01*
X75728943Y-54315976D01*
X75560990Y-54721475D01*
X75681546Y-54951000D01*
X76871000Y-54951000D01*
X76871000Y-54931000D01*
X77129000Y-54931000D01*
X77129000Y-54951000D01*
X78318454Y-54951000D01*
X78439010Y-54721475D01*
X78271057Y-54315976D01*
X77881924Y-53887721D01*
X77516577Y-53715489D01*
X77926540Y-53441561D01*
X78202925Y-53027921D01*
X78299979Y-52540000D01*
X78202925Y-52052079D01*
X77926540Y-51638439D01*
X77512900Y-51362054D01*
X77050116Y-51270000D01*
X77512900Y-51177946D01*
X77926540Y-50901561D01*
X78202925Y-50487921D01*
X78299979Y-50000000D01*
X78202925Y-49512079D01*
X77926540Y-49098439D01*
X77512900Y-48822054D01*
X77050116Y-48730000D01*
X77512900Y-48637946D01*
X77926540Y-48361561D01*
X78202925Y-47947921D01*
X78299979Y-47460000D01*
X78202925Y-46972079D01*
X77926540Y-46558439D01*
X77512900Y-46282054D01*
X77117110Y-46203326D01*
X77850000Y-46203326D01*
X78007496Y-46173691D01*
X78152146Y-46080611D01*
X78249186Y-45938588D01*
X78283326Y-45770000D01*
X78283326Y-44070000D01*
X78253691Y-43912504D01*
X78160611Y-43767854D01*
X78018588Y-43670814D01*
X77850000Y-43636674D01*
X76150000Y-43636674D01*
X75992504Y-43666309D01*
X75847854Y-43759389D01*
X75750814Y-43901412D01*
X75716674Y-44070000D01*
X75716674Y-45770000D01*
X75746309Y-45927496D01*
X75839389Y-46072146D01*
X75981412Y-46169186D01*
X76150000Y-46203326D01*
X76882890Y-46203326D01*
X76487100Y-46282054D01*
X76073460Y-46558439D01*
X75797075Y-46972079D01*
X75700021Y-47460000D01*
X75797075Y-47947921D01*
X76073460Y-48361561D01*
X76487100Y-48637946D01*
X76949884Y-48730000D01*
X76487100Y-48822054D01*
X76073460Y-49098439D01*
X75797075Y-49512079D01*
X75700021Y-50000000D01*
X75797075Y-50487921D01*
X75940722Y-50702904D01*
X73848909Y-48611091D01*
X73848906Y-48611089D01*
X72848909Y-47611091D01*
X72670476Y-47491866D01*
X72460000Y-47450000D01*
X62000005Y-47450000D01*
X62000000Y-47449999D01*
X61789524Y-47491866D01*
X61611091Y-47611091D01*
X61611089Y-47611094D01*
X60947229Y-48274953D01*
X60856421Y-48274874D01*
X60589857Y-48385016D01*
X60385733Y-48588784D01*
X60275126Y-48855156D01*
X60274874Y-49143579D01*
X58199228Y-49143579D01*
X58116730Y-49061081D01*
X57938297Y-48941856D01*
X57727821Y-48899990D01*
X48152502Y-48899990D01*
X43712394Y-44459882D01*
X43712473Y-44369074D01*
X43668335Y-44262250D01*
X57467000Y-44262250D01*
X57467000Y-44875911D01*
X57563368Y-45108565D01*
X57741434Y-45286631D01*
X57974088Y-45383000D01*
X58462750Y-45383000D01*
X58621000Y-45224750D01*
X58621000Y-44104000D01*
X58879000Y-44104000D01*
X58879000Y-45224750D01*
X59037250Y-45383000D01*
X59525912Y-45383000D01*
X59758566Y-45286631D01*
X59936632Y-45108565D01*
X60033000Y-44875911D01*
X60033000Y-44262250D01*
X59874750Y-44104000D01*
X58879000Y-44104000D01*
X58621000Y-44104000D01*
X57625250Y-44104000D01*
X57467000Y-44262250D01*
X43668335Y-44262250D01*
X43602331Y-44102510D01*
X43398563Y-43898386D01*
X43132191Y-43787779D01*
X42843768Y-43787527D01*
X42577204Y-43897669D01*
X42373080Y-44101437D01*
X42262473Y-44367809D01*
X42262221Y-44656232D01*
X42372363Y-44922796D01*
X42462052Y-45012642D01*
X42360427Y-45114090D01*
X42249820Y-45380462D01*
X42249568Y-45668885D01*
X42359710Y-45935449D01*
X42449399Y-46025295D01*
X42347774Y-46126743D01*
X42237167Y-46393115D01*
X42236915Y-46681538D01*
X40725000Y-46681538D01*
X40725000Y-45500000D01*
X40701474Y-45381727D01*
X40669813Y-45222554D01*
X40512653Y-44987348D01*
X40012652Y-44487348D01*
X38599393Y-43074089D01*
X57467000Y-43074089D01*
X57467000Y-43687750D01*
X57625250Y-43846000D01*
X58621000Y-43846000D01*
X58621000Y-42725250D01*
X58462750Y-42567000D01*
X57974088Y-42567000D01*
X57741434Y-42663369D01*
X57563368Y-42841435D01*
X57467000Y-43074089D01*
X38599393Y-43074089D01*
X37725000Y-42199696D01*
X37725000Y-41050000D01*
X38073002Y-41050000D01*
X38283478Y-41008134D01*
X38461911Y-40888909D01*
X40625800Y-38725019D01*
X52447201Y-38725019D01*
X55836092Y-42113910D01*
X56014525Y-42233135D01*
X56225001Y-42275002D01*
X56225006Y-42275001D01*
X58462185Y-42275001D01*
X58895717Y-42708533D01*
X58879000Y-42725250D01*
X58879000Y-43846000D01*
X59874750Y-43846000D01*
X59953967Y-43766783D01*
X60350000Y-44162816D01*
X60350000Y-45116674D01*
X60300000Y-45116674D01*
X60142504Y-45146309D01*
X59997854Y-45239389D01*
X59900814Y-45381412D01*
X59866674Y-45550000D01*
X59866674Y-46450000D01*
X59896309Y-46607496D01*
X59989389Y-46752146D01*
X60131412Y-46849186D01*
X60300000Y-46883326D01*
X61500000Y-46883326D01*
X61657496Y-46853691D01*
X61802146Y-46760611D01*
X61899186Y-46618588D01*
X61933326Y-46450000D01*
X61933326Y-45550000D01*
X61903691Y-45392504D01*
X61810611Y-45247854D01*
X61668588Y-45150814D01*
X61500000Y-45116674D01*
X61450000Y-45116674D01*
X61450000Y-43935003D01*
X61450001Y-43934998D01*
X61408134Y-43724522D01*
X61288909Y-43546089D01*
X59078912Y-41336092D01*
X58900479Y-41216867D01*
X58690003Y-41175001D01*
X57712352Y-41175001D01*
X57724874Y-41144844D01*
X57725126Y-40856421D01*
X57614984Y-40589857D01*
X57550000Y-40524759D01*
X57550000Y-39926998D01*
X57508134Y-39716522D01*
X57388909Y-39538089D01*
X54511910Y-36661090D01*
X54333477Y-36541865D01*
X54123001Y-36499999D01*
X35950001Y-36499999D01*
X35739525Y-36541865D01*
X35561092Y-36661090D01*
X35561090Y-36661093D01*
X33386092Y-38836090D01*
X33266867Y-39014523D01*
X33225001Y-39224999D01*
X33225001Y-40216674D01*
X31650000Y-40216674D01*
X31492504Y-40246309D01*
X31347854Y-40339389D01*
X31250814Y-40481412D01*
X31216674Y-40650000D01*
X31216674Y-42350000D01*
X31246309Y-42507496D01*
X31339389Y-42652146D01*
X31481412Y-42749186D01*
X31650000Y-42783326D01*
X32382890Y-42783326D01*
X31987100Y-42862054D01*
X31573460Y-43138439D01*
X31297075Y-43552079D01*
X31200021Y-44040000D01*
X31297075Y-44527921D01*
X31573460Y-44941561D01*
X31987100Y-45217946D01*
X32449884Y-45310000D01*
X31987100Y-45402054D01*
X31573460Y-45678439D01*
X31297075Y-46092079D01*
X31200021Y-46580000D01*
X31297075Y-47067921D01*
X31573460Y-47481561D01*
X31987100Y-47757946D01*
X32449884Y-47850000D01*
X31987100Y-47942054D01*
X31573460Y-48218439D01*
X31297075Y-48632079D01*
X31200021Y-49120000D01*
X31297075Y-49607921D01*
X31573460Y-50021561D01*
X31987100Y-50297946D01*
X32449884Y-50390000D01*
X31987100Y-50482054D01*
X31573460Y-50758439D01*
X31297075Y-51172079D01*
X31200021Y-51660000D01*
X31297075Y-52147921D01*
X31573460Y-52561561D01*
X31983423Y-52835489D01*
X31618076Y-53007721D01*
X31228943Y-53435976D01*
X31060990Y-53841475D01*
X30500000Y-53841475D01*
X30500000Y-36312250D01*
X57467000Y-36312250D01*
X57467000Y-36925911D01*
X57563368Y-37158565D01*
X57741434Y-37336631D01*
X57974088Y-37433000D01*
X58462750Y-37433000D01*
X58621000Y-37274750D01*
X58621000Y-36154000D01*
X58879000Y-36154000D01*
X58879000Y-37274750D01*
X59037250Y-37433000D01*
X59525912Y-37433000D01*
X59758566Y-37336631D01*
X59936632Y-37158565D01*
X60033000Y-36925911D01*
X60033000Y-36312250D01*
X59874750Y-36154000D01*
X58879000Y-36154000D01*
X58621000Y-36154000D01*
X57625250Y-36154000D01*
X57467000Y-36312250D01*
X30500000Y-36312250D01*
X30500000Y-35125000D01*
X32260880Y-35125000D01*
X32351432Y-35215710D01*
X32351432Y-35215710D01*
G37*
X32351432Y-35215710D02*
X33095435Y-35524648D01*
X33901030Y-35525351D01*
X34645572Y-35217712D01*
X34738446Y-35125000D01*
X57467000Y-35125000D01*
X57467000Y-35737750D01*
X57625250Y-35896000D01*
X58621000Y-35896000D01*
X58621000Y-35876000D01*
X58879000Y-35876000D01*
X58879000Y-35896000D01*
X59874750Y-35896000D01*
X60033000Y-35737750D01*
X60033000Y-35125000D01*
X62191987Y-35125000D01*
X62166674Y-35250000D01*
X62166674Y-36800000D01*
X62175975Y-36849433D01*
X62089857Y-36885016D01*
X61885733Y-37088784D01*
X61775126Y-37355156D01*
X61774874Y-37643579D01*
X61885016Y-37910143D01*
X62088784Y-38114267D01*
X62355156Y-38224874D01*
X62447136Y-38224954D01*
X62700000Y-38477818D01*
X62700000Y-42766674D01*
X62600000Y-42766674D01*
X62442504Y-42796309D01*
X62297854Y-42889389D01*
X62200814Y-43031412D01*
X62166674Y-43200000D01*
X62166674Y-44750000D01*
X62196309Y-44907496D01*
X62289389Y-45052146D01*
X62408913Y-45133813D01*
X62342504Y-45146309D01*
X62197854Y-45239389D01*
X62100814Y-45381412D01*
X62066674Y-45550000D01*
X62066674Y-46450000D01*
X62096309Y-46607496D01*
X62189389Y-46752146D01*
X62331412Y-46849186D01*
X62500000Y-46883326D01*
X63700000Y-46883326D01*
X63857496Y-46853691D01*
X64002146Y-46760611D01*
X64099186Y-46618588D01*
X64133326Y-46450000D01*
X64133326Y-45550000D01*
X64103691Y-45392504D01*
X64010611Y-45247854D01*
X63912679Y-45180940D01*
X64057496Y-45153691D01*
X64202146Y-45060611D01*
X64299186Y-44918588D01*
X64333326Y-44750000D01*
X64333326Y-43200000D01*
X64303691Y-43042504D01*
X64210611Y-42897854D01*
X64068588Y-42800814D01*
X63900000Y-42766674D01*
X63800000Y-42766674D01*
X63800000Y-40262402D01*
X66134771Y-40262402D01*
X66336065Y-40749572D01*
X66708468Y-41122625D01*
X67195285Y-41324769D01*
X67722402Y-41325229D01*
X68209572Y-41123935D01*
X68253232Y-41080351D01*
X69102083Y-41080351D01*
X69188770Y-41336031D01*
X69761798Y-41544776D01*
X70371090Y-41518343D01*
X70811230Y-41336031D01*
X70897917Y-41080351D01*
X70000000Y-40182434D01*
X69102083Y-41080351D01*
X68253232Y-41080351D01*
X68582625Y-40751532D01*
X68610968Y-40683274D01*
X68663969Y-40811230D01*
X68919649Y-40897917D01*
X69817566Y-40000000D01*
X70182434Y-40000000D01*
X71080351Y-40897917D01*
X71206674Y-40855088D01*
X71206674Y-40900000D01*
X71236309Y-41057496D01*
X71329389Y-41202146D01*
X71471412Y-41299186D01*
X71640000Y-41333326D01*
X73440000Y-41333326D01*
X73597496Y-41303691D01*
X73742146Y-41210611D01*
X73839186Y-41068588D01*
X73873326Y-40900000D01*
X73873326Y-39100000D01*
X73843691Y-38942504D01*
X73750611Y-38797854D01*
X73608588Y-38700814D01*
X73440000Y-38666674D01*
X71640000Y-38666674D01*
X71482504Y-38696309D01*
X71337854Y-38789389D01*
X71240814Y-38931412D01*
X71206674Y-39100000D01*
X71206674Y-39144912D01*
X71080351Y-39102083D01*
X70182434Y-40000000D01*
X69817566Y-40000000D01*
X68919649Y-39102083D01*
X68663969Y-39188770D01*
X68614532Y-39324479D01*
X68583935Y-39250428D01*
X68253733Y-38919649D01*
X69102083Y-38919649D01*
X70000000Y-39817566D01*
X70897917Y-38919649D01*
X70811230Y-38663969D01*
X70238202Y-38455224D01*
X69628910Y-38481657D01*
X69188770Y-38663969D01*
X69102083Y-38919649D01*
X68253733Y-38919649D01*
X68211532Y-38877375D01*
X67724715Y-38675231D01*
X67197598Y-38674771D01*
X66710428Y-38876065D01*
X66337375Y-39248468D01*
X66135231Y-39735285D01*
X66134771Y-40262402D01*
X63800000Y-40262402D01*
X63800000Y-38250000D01*
X63758134Y-38039524D01*
X63638909Y-37861091D01*
X63277818Y-37500000D01*
X63544492Y-37233326D01*
X63900000Y-37233326D01*
X64057496Y-37203691D01*
X64202146Y-37110611D01*
X64299186Y-36968588D01*
X64333326Y-36800000D01*
X64333326Y-35250000D01*
X64309806Y-35125000D01*
X75260880Y-35125000D01*
X75351432Y-35215710D01*
X76095435Y-35524648D01*
X76901030Y-35525351D01*
X77645572Y-35217712D01*
X77738446Y-35125000D01*
X79500000Y-35125000D01*
X79500000Y-76450753D01*
X79262588Y-77644302D01*
X78614394Y-78614394D01*
X77644303Y-79262588D01*
X76450753Y-79500000D01*
X33549247Y-79500000D01*
X32355698Y-79262588D01*
X31385606Y-78614394D01*
X30737412Y-77644303D01*
X30589566Y-76901030D01*
X31474649Y-76901030D01*
X31782288Y-77645572D01*
X32351432Y-78215710D01*
X33095435Y-78524648D01*
X33901030Y-78525351D01*
X34645572Y-78217712D01*
X34888686Y-77975021D01*
X40185000Y-77975021D01*
X40185000Y-78024979D01*
X40282054Y-78512900D01*
X40558439Y-78926540D01*
X40972079Y-79202925D01*
X41460000Y-79299979D01*
X41947921Y-79202925D01*
X42361561Y-78926540D01*
X42637946Y-78512900D01*
X42716674Y-78117110D01*
X42716674Y-78850000D01*
X42746309Y-79007496D01*
X42839389Y-79152146D01*
X42981412Y-79249186D01*
X43150000Y-79283326D01*
X44850000Y-79283326D01*
X45007496Y-79253691D01*
X45152146Y-79160611D01*
X45249186Y-79018588D01*
X45283326Y-78850000D01*
X45283326Y-78358526D01*
X49520980Y-78358526D01*
X49767721Y-78881924D01*
X50195976Y-79271057D01*
X50601475Y-79439010D01*
X50831000Y-79318454D01*
X50831000Y-78129000D01*
X49640861Y-78129000D01*
X49520980Y-78358526D01*
X45283326Y-78358526D01*
X45283326Y-77641474D01*
X49520980Y-77641474D01*
X49640861Y-77871000D01*
X50831000Y-77871000D01*
X50831000Y-76681546D01*
X51089000Y-76681546D01*
X51089000Y-77871000D01*
X51109000Y-77871000D01*
X51109000Y-78129000D01*
X51089000Y-78129000D01*
X51089000Y-79318454D01*
X51318525Y-79439010D01*
X51724024Y-79271057D01*
X52152279Y-78881924D01*
X52216674Y-78745326D01*
X52216674Y-78850000D01*
X52246309Y-79007496D01*
X52339389Y-79152146D01*
X52481412Y-79249186D01*
X52650000Y-79283326D01*
X54350000Y-79283326D01*
X54507496Y-79253691D01*
X54652146Y-79160611D01*
X54749186Y-79018588D01*
X54783326Y-78850000D01*
X54783326Y-77150000D01*
X54753691Y-76992504D01*
X54660611Y-76847854D01*
X54518588Y-76750814D01*
X54350000Y-76716674D01*
X52650000Y-76716674D01*
X52492504Y-76746309D01*
X52347854Y-76839389D01*
X52250814Y-76981412D01*
X52216674Y-77150000D01*
X52216674Y-77254674D01*
X52152279Y-77118076D01*
X51724024Y-76728943D01*
X51318525Y-76560990D01*
X51089000Y-76681546D01*
X50831000Y-76681546D01*
X50601475Y-76560990D01*
X50195976Y-76728943D01*
X49767721Y-77118076D01*
X49520980Y-77641474D01*
X45283326Y-77641474D01*
X45283326Y-77150000D01*
X45253691Y-76992504D01*
X45160611Y-76847854D01*
X45018588Y-76750814D01*
X44850000Y-76716674D01*
X43150000Y-76716674D01*
X42992504Y-76746309D01*
X42847854Y-76839389D01*
X42750814Y-76981412D01*
X42716674Y-77150000D01*
X42716674Y-77882890D01*
X42637946Y-77487100D01*
X42361561Y-77073460D01*
X41947921Y-76797075D01*
X41460000Y-76700021D01*
X40972079Y-76797075D01*
X40558439Y-77073460D01*
X40282054Y-77487100D01*
X40185000Y-77975021D01*
X34888686Y-77975021D01*
X35215710Y-77648568D01*
X35524648Y-76904565D01*
X35525351Y-76098970D01*
X35217712Y-75354428D01*
X34648568Y-74784290D01*
X33904565Y-74475352D01*
X33098970Y-74474649D01*
X32354428Y-74782288D01*
X31784290Y-75351432D01*
X31475352Y-76095435D01*
X31474649Y-76901030D01*
X30589566Y-76901030D01*
X30500000Y-76450753D01*
X30500000Y-73475021D01*
X49685000Y-73475021D01*
X49685000Y-73524979D01*
X49782054Y-74012900D01*
X50058439Y-74426540D01*
X50472079Y-74702925D01*
X50960000Y-74799979D01*
X51447921Y-74702925D01*
X51861561Y-74426540D01*
X52137946Y-74012900D01*
X52216674Y-73617110D01*
X52216674Y-74350000D01*
X52246309Y-74507496D01*
X52339389Y-74652146D01*
X52481412Y-74749186D01*
X52650000Y-74783326D01*
X54350000Y-74783326D01*
X54507496Y-74753691D01*
X54652146Y-74660611D01*
X54749186Y-74518588D01*
X54783326Y-74350000D01*
X54783326Y-72650000D01*
X54753691Y-72492504D01*
X54660611Y-72347854D01*
X54518588Y-72250814D01*
X54350000Y-72216674D01*
X52650000Y-72216674D01*
X52492504Y-72246309D01*
X52347854Y-72339389D01*
X52250814Y-72481412D01*
X52216674Y-72650000D01*
X52216674Y-73382890D01*
X52137946Y-72987100D01*
X51861561Y-72573460D01*
X51447921Y-72297075D01*
X50960000Y-72200021D01*
X50472079Y-72297075D01*
X50058439Y-72573460D01*
X49782054Y-72987100D01*
X49685000Y-73475021D01*
X30500000Y-73475021D01*
X30500000Y-54558525D01*
X31060990Y-54558525D01*
X31228943Y-54964024D01*
X31618076Y-55392279D01*
X32141474Y-55639020D01*
X32371000Y-55519139D01*
X32371000Y-54329000D01*
X32629000Y-54329000D01*
X32629000Y-55519139D01*
X32858526Y-55639020D01*
X33381924Y-55392279D01*
X33771057Y-54964024D01*
X33939010Y-54558525D01*
X33818454Y-54329000D01*
X32629000Y-54329000D01*
X32371000Y-54329000D01*
X31181546Y-54329000D01*
X31060990Y-54558525D01*
X30500000Y-54558525D01*
X30500000Y-53841475D01*
X31060990Y-53841475D01*
X31181546Y-54071000D01*
X32371000Y-54071000D01*
X32371000Y-54051000D01*
X32629000Y-54051000D01*
X32629000Y-54071000D01*
X33818454Y-54071000D01*
X33939010Y-53841475D01*
X33771057Y-53435976D01*
X33381924Y-53007721D01*
X33016577Y-52835489D01*
X33426540Y-52561561D01*
X33661445Y-52210000D01*
X40932182Y-52210000D01*
X45274953Y-56552770D01*
X45274874Y-56643579D01*
X45385016Y-56910143D01*
X45588784Y-57114267D01*
X45855156Y-57224874D01*
X46143579Y-57225126D01*
X46410143Y-57114984D01*
X46614267Y-56911216D01*
X46693969Y-56719273D01*
X57987348Y-68012652D01*
X58222554Y-68169813D01*
X58268585Y-68178969D01*
X58500000Y-68225000D01*
X59916728Y-68225000D01*
X59975345Y-68283720D01*
X60315199Y-68424839D01*
X60683187Y-68425160D01*
X61023286Y-68284634D01*
X61283720Y-68024655D01*
X61424839Y-67684801D01*
X61425160Y-67316813D01*
X61284634Y-66976714D01*
X61024655Y-66716280D01*
X60684801Y-66575161D01*
X60316813Y-66574840D01*
X59976714Y-66715366D01*
X59916976Y-66775000D01*
X58800304Y-66775000D01*
X51262554Y-59237250D01*
X58492000Y-59237250D01*
X58492000Y-59675911D01*
X58588368Y-59908565D01*
X58766434Y-60086631D01*
X58999088Y-60183000D01*
X59212750Y-60183000D01*
X59371000Y-60024750D01*
X59371000Y-59079000D01*
X58650250Y-59079000D01*
X58492000Y-59237250D01*
X51262554Y-59237250D01*
X48950304Y-56925000D01*
X52361674Y-56925000D01*
X52361674Y-58475000D01*
X52391309Y-58632496D01*
X52484389Y-58777146D01*
X52626412Y-58874186D01*
X52795000Y-58908326D01*
X53395000Y-58908326D01*
X53552496Y-58878691D01*
X53697146Y-58785611D01*
X53729431Y-58738360D01*
X53754389Y-58777146D01*
X53896412Y-58874186D01*
X54065000Y-58908326D01*
X54665000Y-58908326D01*
X54822496Y-58878691D01*
X54967146Y-58785611D01*
X54999431Y-58738360D01*
X55024389Y-58777146D01*
X55166412Y-58874186D01*
X55335000Y-58908326D01*
X55935000Y-58908326D01*
X56092496Y-58878691D01*
X56237146Y-58785611D01*
X56269431Y-58738360D01*
X56294389Y-58777146D01*
X56436412Y-58874186D01*
X56605000Y-58908326D01*
X57205000Y-58908326D01*
X57362496Y-58878691D01*
X57507146Y-58785611D01*
X57604186Y-58643588D01*
X57638326Y-58475000D01*
X57638326Y-56925000D01*
X57608691Y-56767504D01*
X57515611Y-56622854D01*
X57373588Y-56525814D01*
X57205000Y-56491674D01*
X56605000Y-56491674D01*
X56447504Y-56521309D01*
X56302854Y-56614389D01*
X56270569Y-56661640D01*
X56245611Y-56622854D01*
X56103588Y-56525814D01*
X55935000Y-56491674D01*
X55335000Y-56491674D01*
X55177504Y-56521309D01*
X55032854Y-56614389D01*
X55000569Y-56661640D01*
X54975611Y-56622854D01*
X54833588Y-56525814D01*
X54665000Y-56491674D01*
X54065000Y-56491674D01*
X53907504Y-56521309D01*
X53762854Y-56614389D01*
X53730569Y-56661640D01*
X53705611Y-56622854D01*
X53563588Y-56525814D01*
X53395000Y-56491674D01*
X52795000Y-56491674D01*
X52637504Y-56521309D01*
X52492854Y-56614389D01*
X52395814Y-56756412D01*
X52361674Y-56925000D01*
X48950304Y-56925000D01*
X44612554Y-52587250D01*
X52162000Y-52587250D01*
X52162000Y-53200911D01*
X52258368Y-53433565D01*
X52436434Y-53611631D01*
X52669088Y-53708000D01*
X52807750Y-53708000D01*
X52966000Y-53549750D01*
X52966000Y-52429000D01*
X52320250Y-52429000D01*
X52162000Y-52587250D01*
X44612554Y-52587250D01*
X40725000Y-48699696D01*
X40725000Y-46681538D01*
X42236915Y-46681538D01*
X42347057Y-46948102D01*
X42550825Y-47152226D01*
X42817197Y-47262833D01*
X42909177Y-47262913D01*
X46585183Y-50938919D01*
X46763616Y-51058144D01*
X46974092Y-51100010D01*
X52324793Y-51100010D01*
X52258368Y-51166435D01*
X52162000Y-51399089D01*
X52162000Y-52012750D01*
X52320250Y-52171000D01*
X52966000Y-52171000D01*
X52966000Y-52151000D01*
X53224000Y-52151000D01*
X53224000Y-52171000D01*
X53244000Y-52171000D01*
X53244000Y-52429000D01*
X53224000Y-52429000D01*
X53224000Y-53549750D01*
X53382250Y-53708000D01*
X53520912Y-53708000D01*
X53753566Y-53611631D01*
X53893203Y-53471994D01*
X53896412Y-53474186D01*
X54065000Y-53508326D01*
X54665000Y-53508326D01*
X54822496Y-53478691D01*
X54910000Y-53422384D01*
X54910000Y-53675000D01*
X54943114Y-53841475D01*
X54965187Y-53952446D01*
X55122348Y-54187652D01*
X55947347Y-55012652D01*
X56104508Y-55117663D01*
X56182555Y-55169813D01*
X56460000Y-55225000D01*
X58199696Y-55225000D01*
X58775000Y-55800305D01*
X58775000Y-56209426D01*
X58725814Y-56281412D01*
X58691674Y-56450000D01*
X58691674Y-57650000D01*
X58721309Y-57807496D01*
X58741277Y-57838526D01*
X58588368Y-57991435D01*
X58492000Y-58224089D01*
X58492000Y-58662750D01*
X58650250Y-58821000D01*
X59371000Y-58821000D01*
X59371000Y-58801000D01*
X59629000Y-58801000D01*
X59629000Y-58821000D01*
X59649000Y-58821000D01*
X59649000Y-59079000D01*
X59629000Y-59079000D01*
X59629000Y-60024750D01*
X59787250Y-60183000D01*
X60000912Y-60183000D01*
X60233566Y-60086631D01*
X60242000Y-60078197D01*
X60242000Y-60125911D01*
X60338368Y-60358565D01*
X60516434Y-60536631D01*
X60749088Y-60633000D01*
X61212750Y-60633000D01*
X61371000Y-60474750D01*
X61371000Y-59379000D01*
X61629000Y-59379000D01*
X61629000Y-60474750D01*
X61787250Y-60633000D01*
X62250912Y-60633000D01*
X62483566Y-60536631D01*
X62661632Y-60358565D01*
X62758000Y-60125911D01*
X62758000Y-59537250D01*
X62599750Y-59379000D01*
X61629000Y-59379000D01*
X61371000Y-59379000D01*
X61351000Y-59379000D01*
X61351000Y-59121000D01*
X61371000Y-59121000D01*
X61371000Y-59101000D01*
X61629000Y-59101000D01*
X61629000Y-59121000D01*
X62599750Y-59121000D01*
X62758000Y-58962750D01*
X62758000Y-58374089D01*
X62661632Y-58141435D01*
X62483566Y-57963369D01*
X62304817Y-57889328D01*
X62427146Y-57810611D01*
X62524186Y-57668588D01*
X62540032Y-57590336D01*
X69775000Y-64825305D01*
X69775000Y-70955486D01*
X69598439Y-71073460D01*
X69322054Y-71487100D01*
X69243326Y-71882890D01*
X69243326Y-71150000D01*
X69213691Y-70992504D01*
X69120611Y-70847854D01*
X68978588Y-70750814D01*
X68810000Y-70716674D01*
X67110000Y-70716674D01*
X66952504Y-70746309D01*
X66807854Y-70839389D01*
X66710814Y-70981412D01*
X66676674Y-71150000D01*
X66676674Y-72850000D01*
X66706309Y-73007496D01*
X66799389Y-73152146D01*
X66941412Y-73249186D01*
X67110000Y-73283326D01*
X68810000Y-73283326D01*
X68967496Y-73253691D01*
X69112146Y-73160611D01*
X69209186Y-73018588D01*
X69243326Y-72850000D01*
X69243326Y-72117110D01*
X69322054Y-72512900D01*
X69598439Y-72926540D01*
X70012079Y-73202925D01*
X70500000Y-73299979D01*
X70987921Y-73202925D01*
X71401561Y-72926540D01*
X71677946Y-72512900D01*
X71775000Y-72024979D01*
X71775000Y-71975021D01*
X71677946Y-71487100D01*
X71401561Y-71073460D01*
X71225000Y-70955486D01*
X71225000Y-64525000D01*
X71219492Y-64497309D01*
X74450000Y-67727817D01*
X74450000Y-70772182D01*
X67772182Y-77450000D01*
X61783326Y-77450000D01*
X61783326Y-77150000D01*
X61753691Y-76992504D01*
X61660611Y-76847854D01*
X61518588Y-76750814D01*
X61350000Y-76716674D01*
X59650000Y-76716674D01*
X59492504Y-76746309D01*
X59347854Y-76839389D01*
X59250814Y-76981412D01*
X59216674Y-77150000D01*
X59216674Y-78850000D01*
X59246309Y-79007496D01*
X59339389Y-79152146D01*
X59481412Y-79249186D01*
X59650000Y-79283326D01*
X61350000Y-79283326D01*
X61507496Y-79253691D01*
X61652146Y-79160611D01*
X61749186Y-79018588D01*
X61783326Y-78850000D01*
X61783326Y-78550000D01*
X68000000Y-78550000D01*
X68210476Y-78508134D01*
X68388909Y-78388909D01*
X69876788Y-76901030D01*
X74474649Y-76901030D01*
X74782288Y-77645572D01*
X75351432Y-78215710D01*
X76095435Y-78524648D01*
X76901030Y-78525351D01*
X77645572Y-78217712D01*
X78215710Y-77648568D01*
X78524648Y-76904565D01*
X78525351Y-76098970D01*
X78217712Y-75354428D01*
X77648568Y-74784290D01*
X76904565Y-74475352D01*
X76098970Y-74474649D01*
X75354428Y-74782288D01*
X74784290Y-75351432D01*
X74475352Y-76095435D01*
X74474649Y-76901030D01*
X69876788Y-76901030D01*
X75388909Y-71388909D01*
X75508134Y-71210476D01*
X75550000Y-71000000D01*
X75550000Y-67500000D01*
X75537772Y-67438525D01*
X75560990Y-67438525D01*
X75728943Y-67844024D01*
X76118076Y-68272279D01*
X76641474Y-68519020D01*
X76871000Y-68399139D01*
X76871000Y-67209000D01*
X77129000Y-67209000D01*
X77129000Y-68399139D01*
X77358526Y-68519020D01*
X77881924Y-68272279D01*
X78271057Y-67844024D01*
X78439010Y-67438525D01*
X78318454Y-67209000D01*
X77129000Y-67209000D01*
X76871000Y-67209000D01*
X75681546Y-67209000D01*
X75560990Y-67438525D01*
X75537772Y-67438525D01*
X75508134Y-67289524D01*
X75388909Y-67111091D01*
X75388906Y-67111089D01*
X73367817Y-65090000D01*
X75838555Y-65090000D01*
X76073460Y-65441561D01*
X76483423Y-65715489D01*
X76118076Y-65887721D01*
X75728943Y-66315976D01*
X75560990Y-66721475D01*
X75681546Y-66951000D01*
X76871000Y-66951000D01*
X76871000Y-66931000D01*
X77129000Y-66931000D01*
X77129000Y-66951000D01*
X78318454Y-66951000D01*
X78439010Y-66721475D01*
X78271057Y-66315976D01*
X77881924Y-65887721D01*
X77516577Y-65715489D01*
X77926540Y-65441561D01*
X78202925Y-65027921D01*
X78299979Y-64540000D01*
X78202925Y-64052079D01*
X77926540Y-63638439D01*
X77512900Y-63362054D01*
X77117110Y-63283326D01*
X77850000Y-63283326D01*
X78007496Y-63253691D01*
X78152146Y-63160611D01*
X78249186Y-63018588D01*
X78283326Y-62850000D01*
X78283326Y-61150000D01*
X78253691Y-60992504D01*
X78160611Y-60847854D01*
X78018588Y-60750814D01*
X77850000Y-60716674D01*
X76150000Y-60716674D01*
X75992504Y-60746309D01*
X75847854Y-60839389D01*
X75750814Y-60981412D01*
X75716674Y-61150000D01*
X75716674Y-62850000D01*
X75746309Y-63007496D01*
X75839389Y-63152146D01*
X75981412Y-63249186D01*
X76150000Y-63283326D01*
X76882890Y-63283326D01*
X76487100Y-63362054D01*
X76073460Y-63638439D01*
X75838555Y-63990000D01*
X73045648Y-63990000D01*
X64494174Y-55438525D01*
X75560990Y-55438525D01*
X75728943Y-55844024D01*
X76118076Y-56272279D01*
X76641474Y-56519020D01*
X76871000Y-56399139D01*
X76871000Y-55209000D01*
X77129000Y-55209000D01*
X77129000Y-56399139D01*
X77358526Y-56519020D01*
X77881924Y-56272279D01*
X78271057Y-55844024D01*
X78439010Y-55438525D01*
X78318454Y-55209000D01*
X77129000Y-55209000D01*
X76871000Y-55209000D01*
X75681546Y-55209000D01*
X75560990Y-55438525D01*
X64494174Y-55438525D01*
X58199228Y-49143579D01*
X60274874Y-49143579D01*
X60385016Y-49410143D01*
X60588784Y-49614267D01*
X60855156Y-49724874D01*
X61143579Y-49725126D01*
X61410143Y-49614984D01*
X61614267Y-49411216D01*
X61724874Y-49144844D01*
X61724954Y-49052863D01*
X62227817Y-48550000D01*
X65228824Y-48550000D01*
X65216674Y-48610000D01*
X65216674Y-48946466D01*
X65189524Y-48951866D01*
X65011091Y-49071091D01*
X64111091Y-49971091D01*
X63991866Y-50149524D01*
X63950000Y-50360000D01*
X63950000Y-52024629D01*
X63885733Y-52088784D01*
X63775126Y-52355156D01*
X63774874Y-52643579D01*
X63885016Y-52910143D01*
X64088784Y-53114267D01*
X64355156Y-53224874D01*
X64643579Y-53225126D01*
X64910143Y-53114984D01*
X65114267Y-52911216D01*
X65224874Y-52644844D01*
X65225126Y-52356421D01*
X65114984Y-52089857D01*
X65050000Y-52024759D01*
X65050000Y-50587818D01*
X65234275Y-50403543D01*
X65246309Y-50467496D01*
X65339389Y-50612146D01*
X65481412Y-50709186D01*
X65650000Y-50743326D01*
X66382890Y-50743326D01*
X65987100Y-50822054D01*
X65573460Y-51098439D01*
X65297075Y-51512079D01*
X65200021Y-52000000D01*
X65297075Y-52487921D01*
X65573460Y-52901561D01*
X65987100Y-53177946D01*
X66475021Y-53275000D01*
X66524979Y-53275000D01*
X67012900Y-53177946D01*
X67426540Y-52901561D01*
X67702925Y-52487921D01*
X67799979Y-52000000D01*
X67702925Y-51512079D01*
X67426540Y-51098439D01*
X67012900Y-50822054D01*
X66617110Y-50743326D01*
X67350000Y-50743326D01*
X67507496Y-50713691D01*
X67652146Y-50620611D01*
X67749186Y-50478588D01*
X67783326Y-50310000D01*
X67783326Y-48610000D01*
X67772036Y-48550000D01*
X72232182Y-48550000D01*
X73071089Y-49388906D01*
X73071091Y-49388909D01*
X75786653Y-52104471D01*
X75700021Y-52540000D01*
X75797075Y-53027921D01*
X76073460Y-53441561D01*
X76483423Y-53715489D01*
X76118076Y-53887721D01*
X75728943Y-54315976D01*
X75560990Y-54721475D01*
X75681546Y-54951000D01*
X76871000Y-54951000D01*
X76871000Y-54931000D01*
X77129000Y-54931000D01*
X77129000Y-54951000D01*
X78318454Y-54951000D01*
X78439010Y-54721475D01*
X78271057Y-54315976D01*
X77881924Y-53887721D01*
X77516577Y-53715489D01*
X77926540Y-53441561D01*
X78202925Y-53027921D01*
X78299979Y-52540000D01*
X78202925Y-52052079D01*
X77926540Y-51638439D01*
X77512900Y-51362054D01*
X77050116Y-51270000D01*
X77512900Y-51177946D01*
X77926540Y-50901561D01*
X78202925Y-50487921D01*
X78299979Y-50000000D01*
X78202925Y-49512079D01*
X77926540Y-49098439D01*
X77512900Y-48822054D01*
X77050116Y-48730000D01*
X77512900Y-48637946D01*
X77926540Y-48361561D01*
X78202925Y-47947921D01*
X78299979Y-47460000D01*
X78202925Y-46972079D01*
X77926540Y-46558439D01*
X77512900Y-46282054D01*
X77117110Y-46203326D01*
X77850000Y-46203326D01*
X78007496Y-46173691D01*
X78152146Y-46080611D01*
X78249186Y-45938588D01*
X78283326Y-45770000D01*
X78283326Y-44070000D01*
X78253691Y-43912504D01*
X78160611Y-43767854D01*
X78018588Y-43670814D01*
X77850000Y-43636674D01*
X76150000Y-43636674D01*
X75992504Y-43666309D01*
X75847854Y-43759389D01*
X75750814Y-43901412D01*
X75716674Y-44070000D01*
X75716674Y-45770000D01*
X75746309Y-45927496D01*
X75839389Y-46072146D01*
X75981412Y-46169186D01*
X76150000Y-46203326D01*
X76882890Y-46203326D01*
X76487100Y-46282054D01*
X76073460Y-46558439D01*
X75797075Y-46972079D01*
X75700021Y-47460000D01*
X75797075Y-47947921D01*
X76073460Y-48361561D01*
X76487100Y-48637946D01*
X76949884Y-48730000D01*
X76487100Y-48822054D01*
X76073460Y-49098439D01*
X75797075Y-49512079D01*
X75700021Y-50000000D01*
X75797075Y-50487921D01*
X75940722Y-50702904D01*
X73848909Y-48611091D01*
X73848906Y-48611089D01*
X72848909Y-47611091D01*
X72670476Y-47491866D01*
X72460000Y-47450000D01*
X62000005Y-47450000D01*
X62000000Y-47449999D01*
X61789524Y-47491866D01*
X61611091Y-47611091D01*
X61611089Y-47611094D01*
X60947229Y-48274953D01*
X60856421Y-48274874D01*
X60589857Y-48385016D01*
X60385733Y-48588784D01*
X60275126Y-48855156D01*
X60274874Y-49143579D01*
X58199228Y-49143579D01*
X58116730Y-49061081D01*
X57938297Y-48941856D01*
X57727821Y-48899990D01*
X48152502Y-48899990D01*
X43712394Y-44459882D01*
X43712473Y-44369074D01*
X43668335Y-44262250D01*
X57467000Y-44262250D01*
X57467000Y-44875911D01*
X57563368Y-45108565D01*
X57741434Y-45286631D01*
X57974088Y-45383000D01*
X58462750Y-45383000D01*
X58621000Y-45224750D01*
X58621000Y-44104000D01*
X58879000Y-44104000D01*
X58879000Y-45224750D01*
X59037250Y-45383000D01*
X59525912Y-45383000D01*
X59758566Y-45286631D01*
X59936632Y-45108565D01*
X60033000Y-44875911D01*
X60033000Y-44262250D01*
X59874750Y-44104000D01*
X58879000Y-44104000D01*
X58621000Y-44104000D01*
X57625250Y-44104000D01*
X57467000Y-44262250D01*
X43668335Y-44262250D01*
X43602331Y-44102510D01*
X43398563Y-43898386D01*
X43132191Y-43787779D01*
X42843768Y-43787527D01*
X42577204Y-43897669D01*
X42373080Y-44101437D01*
X42262473Y-44367809D01*
X42262221Y-44656232D01*
X42372363Y-44922796D01*
X42462052Y-45012642D01*
X42360427Y-45114090D01*
X42249820Y-45380462D01*
X42249568Y-45668885D01*
X42359710Y-45935449D01*
X42449399Y-46025295D01*
X42347774Y-46126743D01*
X42237167Y-46393115D01*
X42236915Y-46681538D01*
X40725000Y-46681538D01*
X40725000Y-45500000D01*
X40701474Y-45381727D01*
X40669813Y-45222554D01*
X40512653Y-44987348D01*
X40012652Y-44487348D01*
X38599393Y-43074089D01*
X57467000Y-43074089D01*
X57467000Y-43687750D01*
X57625250Y-43846000D01*
X58621000Y-43846000D01*
X58621000Y-42725250D01*
X58462750Y-42567000D01*
X57974088Y-42567000D01*
X57741434Y-42663369D01*
X57563368Y-42841435D01*
X57467000Y-43074089D01*
X38599393Y-43074089D01*
X37725000Y-42199696D01*
X37725000Y-41050000D01*
X38073002Y-41050000D01*
X38283478Y-41008134D01*
X38461911Y-40888909D01*
X40625800Y-38725019D01*
X52447201Y-38725019D01*
X55836092Y-42113910D01*
X56014525Y-42233135D01*
X56225001Y-42275002D01*
X56225006Y-42275001D01*
X58462185Y-42275001D01*
X58895717Y-42708533D01*
X58879000Y-42725250D01*
X58879000Y-43846000D01*
X59874750Y-43846000D01*
X59953967Y-43766783D01*
X60350000Y-44162816D01*
X60350000Y-45116674D01*
X60300000Y-45116674D01*
X60142504Y-45146309D01*
X59997854Y-45239389D01*
X59900814Y-45381412D01*
X59866674Y-45550000D01*
X59866674Y-46450000D01*
X59896309Y-46607496D01*
X59989389Y-46752146D01*
X60131412Y-46849186D01*
X60300000Y-46883326D01*
X61500000Y-46883326D01*
X61657496Y-46853691D01*
X61802146Y-46760611D01*
X61899186Y-46618588D01*
X61933326Y-46450000D01*
X61933326Y-45550000D01*
X61903691Y-45392504D01*
X61810611Y-45247854D01*
X61668588Y-45150814D01*
X61500000Y-45116674D01*
X61450000Y-45116674D01*
X61450000Y-43935003D01*
X61450001Y-43934998D01*
X61408134Y-43724522D01*
X61288909Y-43546089D01*
X59078912Y-41336092D01*
X58900479Y-41216867D01*
X58690003Y-41175001D01*
X57712352Y-41175001D01*
X57724874Y-41144844D01*
X57725126Y-40856421D01*
X57614984Y-40589857D01*
X57550000Y-40524759D01*
X57550000Y-39926998D01*
X57508134Y-39716522D01*
X57388909Y-39538089D01*
X54511910Y-36661090D01*
X54333477Y-36541865D01*
X54123001Y-36499999D01*
X35950001Y-36499999D01*
X35739525Y-36541865D01*
X35561092Y-36661090D01*
X35561090Y-36661093D01*
X33386092Y-38836090D01*
X33266867Y-39014523D01*
X33225001Y-39224999D01*
X33225001Y-40216674D01*
X31650000Y-40216674D01*
X31492504Y-40246309D01*
X31347854Y-40339389D01*
X31250814Y-40481412D01*
X31216674Y-40650000D01*
X31216674Y-42350000D01*
X31246309Y-42507496D01*
X31339389Y-42652146D01*
X31481412Y-42749186D01*
X31650000Y-42783326D01*
X32382890Y-42783326D01*
X31987100Y-42862054D01*
X31573460Y-43138439D01*
X31297075Y-43552079D01*
X31200021Y-44040000D01*
X31297075Y-44527921D01*
X31573460Y-44941561D01*
X31987100Y-45217946D01*
X32449884Y-45310000D01*
X31987100Y-45402054D01*
X31573460Y-45678439D01*
X31297075Y-46092079D01*
X31200021Y-46580000D01*
X31297075Y-47067921D01*
X31573460Y-47481561D01*
X31987100Y-47757946D01*
X32449884Y-47850000D01*
X31987100Y-47942054D01*
X31573460Y-48218439D01*
X31297075Y-48632079D01*
X31200021Y-49120000D01*
X31297075Y-49607921D01*
X31573460Y-50021561D01*
X31987100Y-50297946D01*
X32449884Y-50390000D01*
X31987100Y-50482054D01*
X31573460Y-50758439D01*
X31297075Y-51172079D01*
X31200021Y-51660000D01*
X31297075Y-52147921D01*
X31573460Y-52561561D01*
X31983423Y-52835489D01*
X31618076Y-53007721D01*
X31228943Y-53435976D01*
X31060990Y-53841475D01*
X30500000Y-53841475D01*
X30500000Y-36312250D01*
X57467000Y-36312250D01*
X57467000Y-36925911D01*
X57563368Y-37158565D01*
X57741434Y-37336631D01*
X57974088Y-37433000D01*
X58462750Y-37433000D01*
X58621000Y-37274750D01*
X58621000Y-36154000D01*
X58879000Y-36154000D01*
X58879000Y-37274750D01*
X59037250Y-37433000D01*
X59525912Y-37433000D01*
X59758566Y-37336631D01*
X59936632Y-37158565D01*
X60033000Y-36925911D01*
X60033000Y-36312250D01*
X59874750Y-36154000D01*
X58879000Y-36154000D01*
X58621000Y-36154000D01*
X57625250Y-36154000D01*
X57467000Y-36312250D01*
X30500000Y-36312250D01*
X30500000Y-35125000D01*
X32260880Y-35125000D01*
X32351432Y-35215710D01*
M02*
