G04 #@! TF.FileFunction,Soldermask,Bot*
%FSLAX46Y46*%
G04 Gerber Fmt 4.6, Leading zero omitted, Abs format (unit mm)*
G04 Created by KiCad (PCBNEW 4.0.7) date 2017 November 25, Saturday 16:53:06*
%MOMM*%
%LPD*%
G01*
G04 APERTURE LIST*
%ADD10C,0.100000*%
%ADD11C,3.600000*%
%ADD12R,1.600000X1.300000*%
%ADD13R,2.200000X2.200000*%
%ADD14C,2.200000*%
%ADD15R,2.100000X2.100000*%
%ADD16O,2.100000X2.100000*%
%ADD17R,1.650000X1.900000*%
%ADD18R,1.150000X1.600000*%
%ADD19R,1.000000X1.950000*%
%ADD20R,1.700000X1.950000*%
G04 APERTURE END LIST*
D10*
D11*
X76500000Y-76500000D03*
X33500000Y-76500000D03*
X33500000Y-33500000D03*
X76500000Y-33500000D03*
D12*
X60900000Y-46000000D03*
X63100000Y-46000000D03*
D13*
X72540000Y-40000000D03*
D14*
X70000000Y-40000000D03*
X67460000Y-40000000D03*
D15*
X53500000Y-78000000D03*
D16*
X50960000Y-78000000D03*
D15*
X77000000Y-62000000D03*
D16*
X77000000Y-64540000D03*
X77000000Y-67080000D03*
D15*
X77000000Y-44920000D03*
D16*
X77000000Y-47460000D03*
X77000000Y-50000000D03*
X77000000Y-52540000D03*
X77000000Y-55080000D03*
D15*
X66500000Y-49460000D03*
D16*
X66500000Y-52000000D03*
D15*
X53500000Y-73500000D03*
D16*
X50960000Y-73500000D03*
D15*
X67960000Y-72000000D03*
D16*
X70500000Y-72000000D03*
D15*
X44000000Y-78000000D03*
D16*
X41460000Y-78000000D03*
D15*
X60500000Y-78000000D03*
X32500000Y-41500000D03*
D16*
X32500000Y-44040000D03*
X32500000Y-46580000D03*
X32500000Y-49120000D03*
X32500000Y-51660000D03*
X32500000Y-54200000D03*
D17*
X61500000Y-56750000D03*
X61500000Y-59250000D03*
D18*
X59500000Y-57050000D03*
X59500000Y-58950000D03*
D19*
X53095000Y-52300000D03*
X54365000Y-52300000D03*
X55635000Y-52300000D03*
X56905000Y-52300000D03*
X56905000Y-57700000D03*
X55635000Y-57700000D03*
X54365000Y-57700000D03*
X53095000Y-57700000D03*
D20*
X63250000Y-36025000D03*
X58750000Y-36025000D03*
X58750000Y-43975000D03*
X63250000Y-43975000D03*
M02*
