<?xml version="1.0" encoding="UTF-8" standalone="no"?>
<!-- Created with Inkscape (http://www.inkscape.org/) -->

<svg
   xmlns:dc="http://purl.org/dc/elements/1.1/"
   xmlns:cc="http://creativecommons.org/ns#"
   xmlns:rdf="http://www.w3.org/1999/02/22-rdf-syntax-ns#"
   xmlns:svg="http://www.w3.org/2000/svg"
   xmlns="http://www.w3.org/2000/svg"
   xmlns:sodipodi="http://sodipodi.sourceforge.net/DTD/sodipodi-0.dtd"
   xmlns:inkscape="http://www.inkscape.org/namespaces/inkscape"
   width="59.962406mm"
   height="57.958469mm"
   viewBox="0 0 59.962406 57.95847"
   version="1.1"
   id="svg8"
   inkscape:version="0.92.2 (5c3e80d, 2017-08-06)"
   sodipodi:docname="settings.svg">
  <defs
     id="defs2" />
  <sodipodi:namedview
     id="base"
     pagecolor="#ffffff"
     bordercolor="#666666"
     borderopacity="1.0"
     inkscape:pageopacity="0.0"
     inkscape:pageshadow="2"
     inkscape:zoom="0.5"
     inkscape:cx="-25.878891"
     inkscape:cy="-8.9612969"
     inkscape:document-units="mm"
     inkscape:current-layer="layer1"
     showgrid="false"
     fit-margin-top="0"
     fit-margin-left="0"
     fit-margin-right="0"
     fit-margin-bottom="0"
     inkscape:window-width="1920"
     inkscape:window-height="1019"
     inkscape:window-x="0"
     inkscape:window-y="0"
     inkscape:window-maximized="1"
     inkscape:pagecheckerboard="true" />
  <metadata
     id="metadata5">
    <rdf:RDF>
      <cc:Work
         rdf:about="">
        <dc:format>image/svg+xml</dc:format>
        <dc:type
           rdf:resource="http://purl.org/dc/dcmitype/StillImage" />
        <dc:title></dc:title>
      </cc:Work>
    </rdf:RDF>
  </metadata>
  <g
     inkscape:label="Calque 1"
     inkscape:groupmode="layer"
     id="layer1"
     transform="translate(-274.36498,-136.79579)">
    <path
       inkscape:connector-curvature="0"
       id="path843"
       d="m 296.58146,136.79882 a 30.000269,30.000269 0 0 0 -13.42927,7.78326 l 7.07076,7.06876 a 20.000179,20.000179 0 0 0 -5.17656,8.94888 l -9.6406,-2.58476 a 30.000269,30.000269 0 0 0 -0.0377,15.52653 30.000269,30.000269 0 0 0 0.001,0.004 l 9.65883,-2.59015 a 20.000178,20.000178 0 0 0 0.002,0.005 20.000179,20.000179 0 0 0 0.54449,1.67466 20.000178,20.000178 0 0 0 0.27348,0.67947 20.000179,20.000179 0 0 0 0.5379,1.22349 20.000178,20.000178 0 0 0 0.23507,0.44849 20.000179,20.000179 0 0 0 0.77253,1.36631 20.000178,20.000178 0 0 0 0.14678,0.22325 20.000179,20.000179 0 0 0 1.03783,1.47027 20.000178,20.000178 0 0 0 0.0343,0.0423 20.000179,20.000179 0 0 0 1.60922,1.81226 l -7.06352,7.0617 a 30.000269,30.000269 0 0 0 13.44418,7.74776 l 2.5793,-9.6304 a 20.000178,20.000178 0 0 0 0.003,0.001 20.000179,20.000179 0 0 0 1.80771,0.3909 20.000178,20.000178 0 0 0 0.19084,0.0365 20.000179,20.000179 0 0 0 1.67613,0.18982 20.000178,20.000178 0 0 0 0.34917,0.0312 20.000179,20.000179 0 0 0 1.51562,0.0195 20.000178,20.000178 0 0 0 0.52531,-0.006 20.000179,20.000179 0 0 0 1.32989,-0.11619 20.000178,20.000178 0 0 0 0.70683,-0.0794 20.000179,20.000179 0 0 0 1.1272,-0.21341 20.000178,20.000178 0 0 0 1.10892,-0.23864 20.000178,20.000178 0 0 0 0.003,-7.8e-4 l 2.58628,9.65986 a 30.000269,30.000269 0 0 0 13.42734,-7.7822 l -7.07062,-7.06824 a 20.000178,20.000178 0 0 0 0.004,-0.004 20.000179,20.000179 0 0 0 1.32593,-1.46415 20.000178,20.000178 0 0 0 0.0219,-0.0267 20.000179,20.000179 0 0 0 1.15157,-1.55966 20.000178,20.000178 0 0 0 0.0469,-0.07 20.000179,20.000179 0 0 0 0.96348,-1.6225 20.000178,20.000178 0 0 0 0.064,-0.12057 20.000179,20.000179 0 0 0 0.77538,-1.6651 20.000178,20.000178 0 0 0 0.0707,-0.1732 20.000179,20.000179 0 0 0 0.58575,-1.67664 20.000178,20.000178 0 0 0 0.16544,-0.55855 20.000178,20.000178 0 0 0 0.002,-0.006 l 9.64063,2.58476 a 30.000269,30.000269 0 0 0 0.0385,-15.5295 30.000269,30.000269 0 0 0 -10e-4,-0.004 l -9.65883,2.59015 a 20.000178,20.000178 0 0 0 -10e-4,-0.004 20.000179,20.000179 0 0 0 -0.54538,-1.67607 20.000178,20.000178 0 0 0 -0.27222,-0.67707 20.000179,20.000179 0 0 0 -0.53987,-1.22678 20.000178,20.000178 0 0 0 -0.2335,-0.44674 20.000179,20.000179 0 0 0 -0.76993,-1.36263 20.000178,20.000178 0 0 0 -0.15573,-0.23617 20.000179,20.000179 0 0 0 -1.02917,-1.45837 20.000178,20.000178 0 0 0 -0.0424,-0.0521 20.000179,20.000179 0 0 0 -1.58641,-1.78827 20.000179,20.000179 0 0 0 -0.0165,-0.0169 l 7.07044,-7.06849 a 30.000269,30.000269 0 0 0 -13.44182,-7.74511 l -2.58098,9.63633 a 20.000178,20.000178 0 0 0 -5.2e-4,1.4e-4 20.000179,20.000179 0 0 0 -1.82251,-0.39514 20.000178,20.000178 0 0 0 -0.17578,-0.0333 20.000179,20.000179 0 0 0 -1.68089,-0.19129 20.000178,20.000178 0 0 0 -0.34853,-0.0308 20.000179,20.000179 0 0 0 -1.53666,-0.0204 20.000178,20.000178 0 0 0 -0.49799,0.005 20.000179,20.000179 0 0 0 -1.35578,0.11766 20.000178,20.000178 0 0 0 -0.68459,0.0768 20.000179,20.000179 0 0 0 -1.14555,0.21616 20.000178,20.000178 0 0 0 -1.0898,0.23455 20.000179,20.000179 0 0 0 -0.004,10e-4 l -2.58641,-9.66038 a 30.000269,30.000269 0 0 0 -0.009,0.002 z m 5.11817,19.10126 a 10.225285,10.225285 0 0 1 12.52324,7.2303 10.225285,10.225285 0 0 1 -7.2303,12.52325 10.225285,10.225285 0 0 1 -12.52327,-7.2303 10.225285,10.225285 0 0 1 7.23033,-12.52325 z"
       style="fill:#fffafa;fill-opacity:1;stroke:none;stroke-width:1.35117149;stroke-miterlimit:4;stroke-dasharray:none;stroke-opacity:1" />
    <g
       transform="matrix(0.86707865,0,0,0.86707865,15.412731,110.69758)"
       id="text1061-0"
       style="font-style:normal;font-weight:normal;font-size:10.58333302px;line-height:1.25;font-family:sans-serif;letter-spacing:0px;word-spacing:0px;fill:#ffffff;fill-opacity:1;stroke:none;stroke-width:0.26458332"
       aria-label="°C" />
  </g>
</svg>
