<?xml version="1.0" encoding="UTF-8" standalone="no"?>
<!-- Created with Inkscape (http://www.inkscape.org/) -->

<svg
   xmlns:dc="http://purl.org/dc/elements/1.1/"
   xmlns:cc="http://creativecommons.org/ns#"
   xmlns:rdf="http://www.w3.org/1999/02/22-rdf-syntax-ns#"
   xmlns:svg="http://www.w3.org/2000/svg"
   xmlns="http://www.w3.org/2000/svg"
   xmlns:sodipodi="http://sodipodi.sourceforge.net/DTD/sodipodi-0.dtd"
   xmlns:inkscape="http://www.inkscape.org/namespaces/inkscape"
   width="59.864838mm"
   height="56.929981mm"
   viewBox="0 0 59.864837 56.929982"
   version="1.1"
   id="svg8"
   inkscape:version="0.92.2 (5c3e80d, 2017-08-06)"
   sodipodi:docname="configuration.svg">
  <defs
     id="defs2" />
  <sodipodi:namedview
     id="base"
     pagecolor="#ffffff"
     bordercolor="#666666"
     borderopacity="1.0"
     inkscape:pageopacity="0.0"
     inkscape:pageshadow="2"
     inkscape:zoom="2.6501896"
     inkscape:cx="128.16021"
     inkscape:cy="136.42678"
     inkscape:document-units="mm"
     inkscape:current-layer="layer1"
     showgrid="false"
     fit-margin-top="0"
     fit-margin-left="0"
     fit-margin-right="0"
     fit-margin-bottom="0"
     inkscape:window-width="1920"
     inkscape:window-height="1019"
     inkscape:window-x="0"
     inkscape:window-y="0"
     inkscape:window-maximized="1"
     inkscape:pagecheckerboard="true" />
  <metadata
     id="metadata5">
    <rdf:RDF>
      <cc:Work
         rdf:about="">
        <dc:format>image/svg+xml</dc:format>
        <dc:type
           rdf:resource="http://purl.org/dc/dcmitype/StillImage" />
        <dc:title></dc:title>
      </cc:Work>
    </rdf:RDF>
  </metadata>
  <g
     inkscape:label="Calque 1"
     inkscape:groupmode="layer"
     id="layer1"
     transform="translate(-274.40642,-137.31393)">
    <g
       transform="matrix(0.86707865,0,0,0.86707865,15.412731,110.69758)"
       id="text1061-0"
       style="font-style:normal;font-weight:normal;font-size:10.58333302px;line-height:1.25;font-family:sans-serif;letter-spacing:0px;word-spacing:0px;fill:#ffffff;fill-opacity:1;stroke:none;stroke-width:0.26458332"
       aria-label="°C" />
    <path
       style="fill:#ffffff;fill-opacity:1;stroke:none;stroke-width:0.2735959;stroke-miterlimit:4;stroke-dasharray:none;stroke-opacity:1"
       d="m 318.64458,139.44704 a 30,30 0 0 0 -0.99096,-0.50053 30.000268,30.000268 0 0 0 -1.5266,-0.70655 30,30 0 0 0 -1.5892,-0.6126 30.000268,30.000268 0 0 0 -0.90564,-0.31343 l -5.217,9.0361 a 19.878169,19.878169 0 0 0 -8.14299,-4.9e-4 l -5.2115,-9.02607 a 30.000268,30.000268 0 0 0 -0.62951,0.20462 30,30 0 0 0 -1.69088,0.64562 30.000268,30.000268 0 0 0 -0.96636,0.42425 30,30 0 0 0 -1.84757,0.92632 30.000268,30.000268 0 0 0 -0.70575,0.39868 30,30 0 0 0 -1.95498,1.23844 30.000268,30.000268 0 0 0 -0.45331,0.32007 30,30 0 0 0 -2.02227,1.58445 30.000268,30.000268 0 0 0 -0.47237,0.40992 l 5.22365,9.0474 a 19.878169,19.878169 0 0 0 -2.41279,3.31918 19.878169,19.878169 0 0 0 -1.65073,3.74901 l -10.42281,1.9e-4 a 30.000268,30.000268 0 0 0 -0.11281,0.53336 30,30 0 0 0 -0.29212,1.83509 30.000268,30.000268 0 0 0 -0.12931,1.18619 30,30 0 0 0 -0.10085,1.74562 30.000268,30.000268 0 0 0 -0.0108,1.30235 30,30 0 0 0 0.0689,1.63659 30.000268,30.000268 0 0 0 0.12962,1.40847 30,30 0 0 0 0.21664,1.51302 30.000268,30.000268 0 0 0 0.2366,1.21903 l 10.41492,4e-5 a 19.878169,19.878169 0 0 0 4.0697,7.06184 l -5.22009,9.04147 a 30.000268,30.000268 0 0 0 0.40769,0.36666 30,30 0 0 0 1.2906,1.05123 30.000268,30.000268 0 0 0 1.27554,0.93574 30,30 0 0 0 0.97807,0.64584 30.000268,30.000268 0 0 0 1.76758,1.04259 30,30 0 0 0 0.92151,0.4658 30.000268,30.000268 0 0 0 1.64424,0.76014 30,30 0 0 0 1.37489,0.53006 30.000268,30.000268 0 0 0 1.07282,0.37116 l 5.21389,-9.03073 a 19.878169,19.878169 0 0 0 8.14299,4.9e-4 l 5.1989,9.00447 a 30.000268,30.000268 0 0 0 1.13496,-0.37107 30,30 0 0 0 0.72483,-0.27669 30.000268,30.000268 0 0 0 1.94039,-0.85661 30,30 0 0 0 0.86815,-0.435 30.000268,30.000268 0 0 0 1.67653,-0.95047 30,30 0 0 0 0.987,-0.62537 30.000268,30.000268 0 0 0 1.40405,-0.99322 30,30 0 0 0 1.08672,-0.85182 30.000268,30.000268 0 0 0 0.91745,-0.79738 l -5.20813,-9.02054 a 19.878169,19.878169 0 0 0 2.41279,-3.31918 19.878169,19.878169 0 0 0 1.65073,-3.74901 l 10.3964,8e-5 a 30.000268,30.000268 0 0 0 0.23872,-1.15763 30,30 0 0 0 0.13043,-0.81916 30.000268,30.000268 0 0 0 0.2257,-2.17478 30,30 0 0 0 0.0464,-0.79665 30.000268,30.000268 0 0 0 0.007,-2.21011 30,30 0 0 0 -0.0325,-0.77777 30.000268,30.000268 0 0 0 -0.21485,-2.21789 30,30 0 0 0 -0.10805,-0.75337 30.000268,30.000268 0 0 0 -0.29317,-1.47247 l -10.39453,-2e-4 a 19.878169,19.878169 0 0 0 -4.0697,-7.06184 l 5.21648,-9.03521 a 30.000268,30.000268 0 0 0 -0.50384,-0.45438 30,30 0 0 0 -1.13081,-0.9208 30.000268,30.000268 0 0 0 -1.38989,-1.02085 30,30 0 0 0 -0.9086,-0.59976 30.000268,30.000268 0 0 0 -1.78068,-1.05195 z m -9.42344,16.85 a 10.664054,10.664054 0 0 1 4.34459,4.14452 10.664054,10.664054 0 0 1 -3.90333,14.56702 10.664054,10.664054 0 0 1 -14.56727,-3.90289 10.664054,10.664054 0 0 1 3.90359,-14.56746 10.664054,10.664054 0 0 1 10.22242,-0.24119 z"
       id="path814"
       inkscape:connector-curvature="0" />
  </g>
</svg>
