<?xml version="1.0" encoding="UTF-8" standalone="no"?>
<!-- Created with Inkscape (http://www.inkscape.org/) -->

<svg
   xmlns:dc="http://purl.org/dc/elements/1.1/"
   xmlns:cc="http://creativecommons.org/ns#"
   xmlns:rdf="http://www.w3.org/1999/02/22-rdf-syntax-ns#"
   xmlns:svg="http://www.w3.org/2000/svg"
   xmlns="http://www.w3.org/2000/svg"
   xmlns:sodipodi="http://sodipodi.sourceforge.net/DTD/sodipodi-0.dtd"
   xmlns:inkscape="http://www.inkscape.org/namespaces/inkscape"
   version="1.1"
   id="svg869"
   width="181.50757"
   height="226.77165"
   viewBox="0 0 181.50757 226.77165"
   sodipodi:docname="plant.svg"
   inkscape:version="0.92.2 (5c3e80d, 2017-08-06)"
   inkscape:export-filename="/home/n4th4/Projets/PolyPot/logo/sources.svg.png"
   inkscape:export-xdpi="47.990002"
   inkscape:export-ydpi="47.990002">
  <metadata
     id="metadata875">
    <rdf:RDF>
      <cc:Work
         rdf:about="">
        <dc:format>image/svg+xml</dc:format>
        <dc:type
           rdf:resource="http://purl.org/dc/dcmitype/StillImage" />
        <dc:title></dc:title>
      </cc:Work>
    </rdf:RDF>
  </metadata>
  <defs
     id="defs873" />
  <sodipodi:namedview
     pagecolor="#ffffff"
     bordercolor="#666666"
     borderopacity="1"
     objecttolerance="10"
     gridtolerance="10"
     guidetolerance="10"
     inkscape:pageopacity="0"
     inkscape:pageshadow="2"
     inkscape:window-width="1920"
     inkscape:window-height="1019"
     id="namedview871"
     showgrid="false"
     inkscape:zoom="0.9755254"
     inkscape:cx="-36.631515"
     inkscape:cy="152.59077"
     inkscape:window-x="0"
     inkscape:window-y="0"
     inkscape:window-maximized="1"
     inkscape:current-layer="svg869"
     fit-margin-top="0"
     fit-margin-left="0"
     fit-margin-bottom="0"
     fit-margin-right="0"
     inkscape:pagecheckerboard="true" />
  <path
     style="fill:#ffffff;fill-opacity:1;stroke:none;stroke-width:0.79994476;stroke-miterlimit:4;stroke-dasharray:none;stroke-opacity:1"
     d="m 107.99161,223.40743 c 9.12584,-6.03017 14.21307,-17.97822 12.98294,-30.49306 -0.23625,-2.40301 -0.37465,-2.88554 -2.17469,-7.58656 -2.15948,-5.63956 -3.52781,-8.46119 -6.97949,-14.403 -6.00221,-10.33003 -15.450604,-22.06194 -27.640295,-34.32077 -4.433283,-4.45795 -12.082084,-11.83832 -20.967226,-20.23064 -3.5243,-3.32851 -7.560473,-7.21546 -8.969552,-8.63749 C 43.939699,97.337235 37.060651,88.422179 31.453789,78.201428 29.472443,74.589387 24.744241,62.401907 23.770003,58.392473 22.878854,54.729835 22.44504,51.540542 22.710286,50.60196 c 0.399614,-1.41415 2.355866,-1.918259 3.304255,-0.852633 0.298996,0.337229 0.841464,2.03077 1.652133,5.174882 3.084934,11.945955 6.945278,17.842697 19.336374,29.527094 4.55253,4.293477 7.508356,6.698693 19.851966,16.154457 14.107332,10.8068 17.230698,13.33042 23.158883,18.71202 11.837053,10.74568 19.669073,21.06582 27.417793,36.12715 2.74077,5.32734 4.17829,8.4077 9.82374,21.04807 5.90707,13.22692 6.75965,14.95131 8.39229,16.97868 5.08218,6.31116 13.53156,10.10616 21.61684,9.70946 3.23239,-0.15845 7.2286,-1.39852 9.74621,-3.02441 4.51512,-2.91565 9.51903,-10.12714 11.73481,-16.91167 2.91338,-8.92112 3.44025,-18.59056 1.96497,-36.07646 -0.84775,-10.04893 -2.00093,-15.30091 -5.20203,-23.69024 -2.02316,-5.2917 -3.55064,-8.51774 -6.20247,-13.06992 -7.65728,-13.14192 -18.95161,-24.251923 -31.7311,-31.213096 -6.00476,-3.271019 -11.73582,-5.446121 -19.02119,-7.21942 C 103.4646,68.302923 89.732075,64.702282 83.93854,62.899813 65.44472,57.145874 52.692642,49.335526 43.788326,38.30902 33.163582,25.152258 27.815051,12.552245 28.041696,1.2140864 28.061076,0.30267262 27.982286,-0.14199538 27.837044,0.04023462 26.685154,1.4860069 23.422527,6.2756508 21.553535,9.2650473 18.159296,14.693964 15.851922,19.049669 12.93741,25.530413 -0.35603553,55.088721 -3.5465853,89.81882 4.0225738,122.56984 c 2.7268956,11.79956 7.4247852,24.66652 12.7861512,35.01997 5.399736,10.42731 12.093002,20.1848 19.442808,28.34321 1.566591,1.73895 4.096357,4.65847 5.621824,6.48806 9.68329,11.61338 19.102005,20.33844 27.976523,25.91684 8.909021,5.59977 19.902365,8.84883 28.392556,8.391 2.363594,-0.12758 7.629934,-1.92245 9.749154,-3.32387 z"
     id="path1096"
     inkscape:connector-curvature="0" />
</svg>
