<?xml version="1.0" encoding="UTF-8" standalone="no"?>
<!-- Created with Inkscape (http://www.inkscape.org/) -->

<svg
   xmlns:dc="http://purl.org/dc/elements/1.1/"
   xmlns:cc="http://creativecommons.org/ns#"
   xmlns:rdf="http://www.w3.org/1999/02/22-rdf-syntax-ns#"
   xmlns:svg="http://www.w3.org/2000/svg"
   xmlns="http://www.w3.org/2000/svg"
   xmlns:sodipodi="http://sodipodi.sourceforge.net/DTD/sodipodi-0.dtd"
   xmlns:inkscape="http://www.inkscape.org/namespaces/inkscape"
   version="1.1"
   id="svg869"
   width="16.193743"
   height="24"
   viewBox="0 0 16.193743 24"
   sodipodi:docname="pot.svg"
   inkscape:version="0.92.2 (5c3e80d, 2017-08-06)"
   inkscape:export-filename="/home/n4th4/Projets/PolyPot/logo/sources.svg.png"
   inkscape:export-xdpi="47.990002"
   inkscape:export-ydpi="47.990002">
  <metadata
     id="metadata875">
    <rdf:RDF>
      <cc:Work
         rdf:about="">
        <dc:format>image/svg+xml</dc:format>
        <dc:type
           rdf:resource="http://purl.org/dc/dcmitype/StillImage" />
        <dc:title></dc:title>
      </cc:Work>
    </rdf:RDF>
  </metadata>
  <defs
     id="defs873" />
  <sodipodi:namedview
     pagecolor="#ffffff"
     bordercolor="#666666"
     borderopacity="1"
     objecttolerance="10"
     gridtolerance="10"
     guidetolerance="10"
     inkscape:pageopacity="0"
     inkscape:pageshadow="2"
     inkscape:window-width="1920"
     inkscape:window-height="1019"
     id="namedview871"
     showgrid="false"
     inkscape:zoom="16"
     inkscape:cx="-4.1063837"
     inkscape:cy="15.956162"
     inkscape:window-x="0"
     inkscape:window-y="0"
     inkscape:window-maximized="1"
     inkscape:current-layer="logo-color"
     fit-margin-top="0"
     fit-margin-left="0"
     fit-margin-bottom="0"
     fit-margin-right="0"
     inkscape:pagecheckerboard="true" />
  <g
     id="logo-color"
     inkscape:label="#logo-color"
     inkscape:export-xdpi="192"
     inkscape:export-ydpi="192"
     transform="translate(-20.21837,-618.74963)">
    <g
       id="g846"
       transform="matrix(0.03858412,0,0,0.03858412,19.438262,617.9497)">
      <path
         style="fill:#bf6600;fill-opacity:1;stroke:none;stroke-width:1;stroke-miterlimit:4;stroke-dasharray:none;stroke-opacity:1"
         d="m 126.47808,642.63407 c 0,-0.0984 -10.15199,-43.52259 -22.55999,-96.49824 -12.408,-52.97568 -22.56,-96.52737 -22.56,-96.78157 0,-0.40231 21.2058,-0.46218 163.67996,-0.46218 90.024,0 163.676,0.108 163.671,0.24 -0.01,0.132 -10.1987,43.728 -22.6527,96.88001 l -22.6437,96.64 -118.4673,0.0804 c -65.157,0.0442 -118.46727,-7e-5 -118.46727,-0.0984 z"
         id="path1126"
         inkscape:connector-curvature="0" />
      <path
         style="fill:#7ab6ff;fill-opacity:1;stroke:none;stroke-width:1;stroke-miterlimit:4;stroke-dasharray:none;stroke-opacity:1"
         d="m 71.97529,443.75426 c -8.7716,-1.01952 -15.9637,-6.21927 -19.8665,-14.36311 -2.2847,-4.76736 -2.2707,-4.58425 -2.2707,-29.61907 0,-25.31479 -0.092,-24.2448 2.564,-29.76 3.2242,-6.69485 9.2943,-11.55434 16.5999,-13.28941 2.6466,-0.62858 4.1805,-0.63338 176.87286,-0.55232 l 174.2032,0.0817 2.56,0.8783 c 4.1623,1.42803 7.0415,3.21878 10.1122,6.2895 3.0707,3.07076 4.8615,5.94992 6.2895,10.1122 l 0.8783,2.56 v 23.68 23.68 l -0.7497,2.4 c -3.1351,10.03526 -11.1181,16.73638 -21.3303,17.90515 -3.4558,0.39549 -342.45946,0.39258 -345.86276,-0.003 z"
         id="path1124"
         inkscape:connector-curvature="0" />
      <path
         style="fill:#e4e4e4;fill-opacity:1;stroke:none;stroke-width:1;stroke-miterlimit:4;stroke-dasharray:none;stroke-opacity:1"
         d="m 246.26065,425.05362 c 2.6021,-0.6778 4.2311,-1.58698 6.2296,-3.47687 2.0159,-1.9064 3.3854,-4.40496 3.8796,-7.07837 0.215,-1.16294 0.3482,-6.94326 0.3482,-15.10509 v -13.22121 h -4.8 -4.8 v 6.32 c -9e-4,3.5999 -0.1529,6.86445 -0.353,7.58499 -0.7043,2.53706 -3.6153,4.31978 -6.2473,3.82598 -1.5257,-0.2862 -3.2235,-1.8198 -3.6283,-3.27731 -0.1793,-0.6455 -0.3268,-4.16166 -0.3278,-7.81366 v -6.64 h -4.8358 -4.8358 l 0.1424,9.04 c 0.1339,8.49728 0.1868,9.15414 0.8817,10.94109 1.568,4.03264 5.0992,6.25891 9.9275,6.25891 3.4038,0 5.6901,-0.85965 7.7411,-2.91063 l 1.5389,-1.53891 -0.01,2.62477 c -0.011,4.27347 -1.5089,6.49293 -4.8924,7.2512 -2.3752,0.53229 -6.5582,-0.32125 -10.2165,-2.08464 -0.6578,-0.31709 -1.2447,-0.51469 -1.3041,-0.43914 -0.085,0.10768 -1.2376,3.15617 -2.3597,6.23988 -0.2466,0.67763 4.5,2.72761 8.3797,3.61907 2.0765,0.47712 7.5125,0.4087 9.5426,-0.12006 z"
         id="path1122"
         inkscape:connector-curvature="0" />
      <path
         style="fill:#e4e4e4;fill-opacity:1;stroke:none;stroke-width:1;stroke-miterlimit:4;stroke-dasharray:none;stroke-opacity:1"
         d="m 192.87805,414.80859 c 4.8783,-1.02877 8.3386,-3.6369 10.3315,-7.78736 0.9975,-2.07725 1.1467,-2.72141 1.2822,-5.53478 0.3773,-7.83552 -3.4887,-13.24688 -10.8329,-15.16301 -2.8934,-0.75491 -8.6993,-0.52327 -11.214,0.44742 -3.874,1.49539 -6.9571,4.47274 -8.3269,8.04122 -0.86187,2.24531 -1.16177,6.92605 -0.59727,9.32 1.90017,8.05782 10.16337,12.61539 19.35737,10.67651 z"
         id="path1120"
         inkscape:connector-curvature="0" />
      <path
         style="fill:#7ab6ff;fill-opacity:1;stroke:none;stroke-width:1;stroke-miterlimit:4;stroke-dasharray:none;stroke-opacity:1"
         d="m 186.05555,407.09134 c -4.3455,-2.21261 -4.3992,-10.53321 -0.083,-12.81584 1.8444,-0.97536 3.9497,-0.97949 5.8149,-0.0115 1.0818,0.56144 1.6204,1.13917 2.312,2.48 0.8003,1.55133 0.889,2.01808 0.7886,4.14803 -0.2086,4.42138 -1.9532,6.4706 -5.655,6.64221 -1.5118,0.0701 -2.4185,-0.0563 -3.1778,-0.44294 z"
         id="path1118"
         inkscape:connector-curvature="0" />
      <path
         style="fill:#e4e4e4;fill-opacity:1;stroke:none;stroke-width:1;stroke-miterlimit:4;stroke-dasharray:none;stroke-opacity:1"
         d="m 222.78195,414.78721 1.7001,-0.50486 -0.2181,-2.77514 c -0.12,-1.52633 -0.2997,-3.30518 -0.3994,-3.95302 -0.1686,-1.09597 -0.2357,-1.15715 -0.9647,-0.88 -1.3212,0.50237 -2.9292,0.35046 -3.6218,-0.34211 -0.622,-0.62205 -0.64,-1.06666 -0.64,-15.84 v -15.2 h -4.811 -4.8111 l 0.091,16.4 c 0.091,16.3512 0.093,16.40486 0.8297,18.03161 0.9508,2.10039 3.0406,4.14039 5.0421,4.92183 1.9733,0.77046 5.4719,0.83398 7.8032,0.14169 z"
         id="path1116"
         inkscape:connector-curvature="0" />
      <path
         style="fill:#e4e4e4;fill-opacity:1;stroke:none;stroke-width:1;stroke-miterlimit:4;stroke-dasharray:none;stroke-opacity:1"
         d="m 317.35245,414.80771 c 8.2607,-1.74979 12.9675,-8.98902 11.359,-17.47052 -1.3513,-7.12544 -7.2401,-11.48509 -15.5134,-11.48509 -10.34,0 -16.7622,7.00259 -15.5063,16.90777 0.5291,4.17354 2.5782,7.59991 5.8174,9.72749 3.8892,2.55453 8.8289,3.3825 13.8433,2.32032 z"
         id="path1114"
         inkscape:connector-curvature="0" />
      <path
         style="fill:#7ab6ff;fill-opacity:1;stroke:none;stroke-width:1;stroke-miterlimit:4;stroke-dasharray:none;stroke-opacity:1"
         d="m 310.13305,406.88451 c -3.0153,-2.03193 -3.9519,-6.80422 -2.0553,-10.47184 1.6187,-3.13011 6.3919,-3.86745 9.1143,-1.40793 3.4146,3.08486 2.8582,9.78637 -0.9921,11.95033 -1.6766,0.94237 -4.6146,0.9082 -6.0669,-0.0706 z"
         id="path1112"
         inkscape:connector-curvature="0" />
      <path
         style="fill:#e4e4e4;fill-opacity:1;stroke:none;stroke-width:1;stroke-miterlimit:4;stroke-dasharray:none;stroke-opacity:1"
         d="m 347.06695,414.81197 c 1.0139,-0.26406 2.2605,-0.69581 2.7702,-0.95939 l 0.9268,-0.47923 -0.4343,-1.52061 c -0.2388,-0.83632 -0.6648,-2.34055 -0.9466,-3.34272 l -0.5125,-1.82211 -1.106,0.46211 c -1.5266,0.63785 -3.1522,0.57808 -4.051,-0.14899 -0.7407,-0.59914 -0.7574,-0.73392 -0.8545,-6.88 l -0.099,-6.2689 h 3.699 3.6991 v -3.2 -3.2 h -3.68 -3.68 v -4 -4 h -4.8179 -4.8179 l 0.098,14.48 c 0.094,13.90995 0.1242,14.5367 0.7672,15.92 1.2263,2.63786 3.1277,4.29725 5.8907,5.14077 1.3711,0.41859 5.2213,0.32115 7.1489,-0.18093 z"
         id="path1110"
         inkscape:connector-curvature="0" />
      <path
         style="fill:#e4e4e4;fill-opacity:1;stroke:none;stroke-width:1;stroke-miterlimit:4;stroke-dasharray:none;stroke-opacity:1"
         d="m 148.87808,409.90117 v -5.07088 l 5.2,-0.19309 c 7.3861,-0.27431 10.3119,-1.27091 13.2868,-4.52592 2.1597,-2.36311 2.9864,-4.56887 3.193,-8.51997 0.3525,-6.73958 -2.5123,-11.14768 -8.5598,-13.1712 -1.9276,-0.64499 -2.8361,-0.70474 -12.4,-0.81555 l -10.32,-0.11955 v 18.74355 18.74352 h 4.8 4.8 z"
         id="path1108"
         inkscape:connector-curvature="0" />
      <path
         style="fill:#7ab6ff;fill-opacity:1;stroke:none;stroke-width:1;stroke-miterlimit:4;stroke-dasharray:none;stroke-opacity:1"
         d="m 148.95108,391.05208 0.087,-5.68 4.16,0.0224 c 3.6586,0.0198 4.3272,0.10896 5.547,0.74025 1.8491,0.95706 2.7401,2.86458 2.552,5.46391 -0.1615,2.23353 -1.11,3.68928 -2.9473,4.52371 -1.0565,0.47981 -2.1068,0.59702 -5.3991,0.60269 l -4.0873,0.007 z"
         id="path1106"
         inkscape:connector-curvature="0" />
      <path
         style="fill:#e4e4e4;fill-opacity:1;stroke:none;stroke-width:1;stroke-miterlimit:4;stroke-dasharray:none;stroke-opacity:1"
         d="m 273.35845,409.90145 v -5.07062 l 5.04,-0.19645 c 7.3017,-0.28461 10.4921,-1.3216 13.241,-4.30381 3.3015,-3.58176 4.3608,-9.9624 2.4858,-14.97369 -0.8609,-2.30112 -3.2527,-4.88963 -5.5634,-6.02109 -3.1943,-1.5641 -5.1726,-1.79206 -15.6034,-1.79814 l -9.52,-0.006 v 18.50665 c 0,10.17869 0.096,18.60269 0.2133,18.72 0.1174,0.11735 2.3494,0.21335 4.96,0.21335 h 4.7467 z"
         id="path1104"
         inkscape:connector-curvature="0" />
      <path
         style="fill:#7ab6ff;fill-opacity:1;stroke:none;stroke-width:1;stroke-miterlimit:4;stroke-dasharray:none;stroke-opacity:1"
         d="m 273.35845,391.00277 v -5.79069 h 3.1843 c 4.0856,0 6.1812,0.45363 7.5181,1.62745 2.6177,2.2984 2.1567,7.2866 -0.8403,9.09255 -0.8945,0.53897 -1.7566,0.65747 -5.4621,0.75069 l -4.4,0.11068 z"
         id="path1102"
         inkscape:connector-curvature="0" />
      <path
         style="fill:#9f6320;fill-opacity:1;stroke:none;stroke-width:1;stroke-miterlimit:4;stroke-dasharray:none;stroke-opacity:1"
         d="m 217.19635,350.09208 c 2.2197,-8.59719 4.3537,-23.71359 4.9025,-34.72759 l 0.2196,-4.40759 1.91,2.44063 c 4.0157,5.13137 10.9137,10.92117 16.1769,13.57804 0.9967,0.50311 2.0317,1.24815 2.3,1.65563 0.2683,0.40748 2.991,3.92099 6.0504,7.80779 8.5979,10.92288 10.9937,14.00211 11.1094,14.27837 0.059,0.14009 -9.569,0.25472 -21.3947,0.25472 h -21.5014 z"
         id="path1100"
         inkscape:connector-curvature="0" />
      <path
         style="fill:#00bf00;fill-opacity:1;stroke:none;stroke-width:1;stroke-miterlimit:4;stroke-dasharray:none;stroke-opacity:1"
         d="m 167.27848,332.69778 c -16.2732,-1.71104 -33.9126,-9.5863 -55.62339,-24.83361 -2.6089,-1.8322 -7.0729,-4.89041 -9.92,-6.79602 -9.903,-6.6282 -17.723,-13.03801 -25.9786,-21.29388 -15.2596,-15.25995 -27.8582,-33.34495 -37.1182,-53.2825 -18.5881,-40.02137 -23.2995,-84.46124 -13.2609,-125.08055 2.2375,-9.05347 7.0338,-23.29187 7.4511,-22.11916 0.094,0.264 0.4757,1.632 0.8484,3.04 3.254,12.29224 12.9604,24.69152 28.9616,36.99652 10.4122,8.00701 23.4296,13.42281 38.3638,15.96109 11.9127,2.02471 19.83309,2.36923 48.35619,2.1034 24.38767,-0.22728 26.84327,-0.1465 34.39997,1.13165 15.2376,2.5773 30.4736,9.26606 43.36,19.03547 1.936,1.46772 3.8757,2.9503 4.3103,3.29463 l 0.7903,0.62605 -2.7221,2.8256 c -12.7637,13.24888 -22.5379,32.49822 -26.5388,52.2656 -1.8534,9.15743 -2.0785,11.69301 -2.0791,23.42412 -3e-4,5.93127 -0.092,10.68327 -0.2045,10.56 -0.1122,-0.12326 -1.8284,-2.16812 -3.8138,-4.54412 -18.2497,-21.84048 -32.77267,-33.49482 -55.82227,-44.79595 -8.5047,-4.16984 -11.3631,-5.43244 -28.68519,-12.67051 -17.7516,-7.41756 -22.3947,-9.50517 -28.9106,-12.99858 -15.8261,-8.48493 -23.156,-14.18847 -29.1149,-22.65496 -0.9291,-1.32 -2.9451,-4.632 -4.4801,-7.36 -1.535,-2.728 -3.081,-5.212 -3.4355,-5.52 -0.9432,-0.81948 -2.3758,-0.70698 -3.3455,0.26272 -0.7055,0.70555 -0.7936,1.00465 -0.6184,2.10025 0.257,1.607 2.4447,6.31137 4.8415,10.41082 7.6688,13.11655 18.4909,25.07523 31.8824,35.23085 7.0298,5.33111 16.3762,11.23751 27.3063,17.25597 3.52,1.93821 10.792,5.94071 16.15999,8.89442 31.7477,17.46899 46.3161,27.046 60.62067,39.85102 6.8254,6.10986 12.3654,12.14035 17.9267,19.51395 5.7688,7.64882 8.1766,15.09273 8.1693,25.25639 -0.01,14.26938 -6.323,25.69932 -17.0623,30.89351 -5.6929,2.75345 -15.856,3.97875 -25.01437,3.01581 z"
         id="path1098"
         inkscape:connector-curvature="0" />
      <path
         style="fill:#00bf00;fill-opacity:1;stroke:none;stroke-width:1;stroke-miterlimit:4;stroke-dasharray:none;stroke-opacity:1"
         d="m 329.03845,326.17477 c -13.3435,-2.98707 -24.6001,-14.68401 -28.7282,-29.85206 -0.7927,-2.91275 -0.8457,-3.53815 -0.8331,-9.83064 0.015,-7.54935 0.3579,-11.45419 1.7491,-19.931 2.419,-14.73813 8.2406,-32.64633 17.0306,-52.389 3.1968,-7.17991 8.8512,-19.20395 15.4999,-32.96 2.6371,-5.456 5.6242,-11.792 6.638,-14.08 7.4138,-16.73078 11.4862,-30.20562 13.4915,-44.64 0.7086,-5.10086 0.8131,-21.44255 0.1698,-26.56 -0.5877,-4.67531 -1.4991,-8.59438 -2.2263,-9.57295 -1.0958,-1.47459 -3.6053,-1.19346 -4.2396,0.47494 -0.2003,0.52671 -0.079,2.74661 0.3705,6.78055 1.708,15.32846 -0.1813,23.93446 -9.4606,43.09581 -3.4096,7.04062 -5.7933,11.16513 -16.0096,27.70165 -11.6761,18.89918 -14.2029,23.23651 -18.7356,32.16 -9.0508,17.8182 -13.612,33.35825 -15.9671,54.40061 -0.833,7.44267 -1.1429,11.68087 -2.1172,28.95939 -1.0196,18.07981 -1.2486,20.47372 -2.2545,23.5683 -3.1313,9.63341 -11.315,17.82463 -20.9376,20.95682 -3.8471,1.25228 -9.0671,1.58052 -12.7318,0.80062 -6.5715,-1.3985 -15.6247,-7.59869 -21.2305,-14.53997 -7.3709,-9.12697 -12.2862,-20.18986 -18.3386,-41.2747 -3.4783,-12.11733 -4.4664,-18.76611 -4.4573,-29.99107 0.01,-7.08226 0.3596,-11.53034 1.4342,-18.02799 3.1022,-18.75924 11.357,-36.76172 23.1917,-50.57756 5.5608,-6.49167 11.2893,-11.58168 19.0123,-16.89326 15.9957,-11.00113 30.4384,-21.31459 36.4056,-25.99691 19.0477,-14.94647 30.4731,-29.74217 35.9727,-46.58429 6.5623,-20.096148 7.208,-37.195218 1.9011,-50.341148 -0.4264,-1.05634 -0.5337,-1.61062 -0.283,-1.46232 1.9887,1.17669 7.9304,5.32173 11.4436,7.98331 6.3795,4.83307 11.0122,8.8959 17.2993,15.17131 28.6753,28.621988 47.8473,67.778848 53.5685,109.408498 2.0612,14.99827 2.2945,32.11996 0.6348,46.60036 -1.6715,14.5836 -5.1525,28.95993 -10.1114,41.76 -1.0568,2.728 -2.7142,7.264 -3.6829,10.08 -6.1487,17.87426 -13.2725,32.25631 -21.1602,42.72 -7.9182,10.50424 -19.3171,19.18867 -29.44,22.42931 -2.8182,0.90221 -9.7691,1.14712 -12.8681,0.45339 z"
         id="path1096"
         inkscape:connector-curvature="0" />
      <path
         style="fill:#00bf00;fill-opacity:1;stroke:none;stroke-width:1;stroke-miterlimit:4;stroke-dasharray:none;stroke-opacity:1"
         d="m 232.43465,155.26335 c -3.0905,-2.47038 -6.9879,-5.20121 -11.2507,-7.88315 l -1.7746,-1.11644 -0.8962,-4.28584 c -1.1363,-5.43413 -3.4319,-12.42956 -5.7644,-17.56585 -2.539,-5.5912 -6.0066,-11.66881 -13.3278,-23.36 -7.1704,-11.45029 -9.4622,-15.5213 -12.1218,-21.53265 -3.6953,-8.352422 -4.4655,-13.068412 -3.5196,-21.551468 0.3057,-2.74135 0.2839,-3.12206 -0.2096,-3.66739 -0.3029,-0.33468 -0.813,-0.6085 -1.1337,-0.6085 -1.3485,0 -2.0584,2.53159 -2.5196,8.986126 -0.5408,7.56651 0.4035,15.919212 2.7024,23.906292 2.2112,7.68237 4.3275,12.63247 13.2309,30.94759 5.1519,10.59784 10.1049,21.59029 9.8452,21.84998 -0.065,0.0652 -1.5107,-0.40287 -3.2122,-1.04016 -6.5309,-2.44611 -14.8299,-4.4821 -22.4577,-5.50955 -3.2965,-0.44402 -6.63227,-0.55584 -16.90677,-0.56672 l -12.8,-0.0136 -0.3677,-2.56 c -1.6529,-11.50629 -1.3393,-24.63598 0.8713,-36.47997 3.4822,-18.656932 11.5294,-36.293278 23.28327,-51.027638 3.2918,-4.12643 11.6255,-12.44578 15.6806,-15.65358 3.0293,-2.39628 7.8215,-5.79877 8.1673,-5.79877 0.079,0 -0.1184,0.68979 -0.4387,1.53286 -3.6124,9.50711 -1.2073,25.71225 5.5847,37.62786 3.3168,5.818796 8.9801,11.998386 16.3392,17.828538 4.5296,3.5885 6.5549,5.04087 17.6,12.62126 4.576,3.14056 9.4138,6.61285 10.7506,7.71619 9.357,7.7228 16.7095,20.29703 19.4955,33.34102 0.3925,1.83769 0.5837,3.42233 0.4302,3.56559 -0.3133,0.29245 -17.4872,12.33167 -21.3963,14.99918 -3.5277,2.4073 -5.6999,4.02892 -7.9787,5.95653 -1.0677,0.90311 -2.0853,1.72238 -2.2613,1.8206 -0.176,0.0982 -1.8157,-1.01704 -3.6438,-2.47834 z"
         id="logo-wireframe-8"
         inkscape:connector-curvature="0" />
    </g>
  </g>
</svg>
